<?xml version="1.0" encoding="UTF-8"?>
<svg version="1.1" xmlns="http://www.w3.org/2000/svg" width="280" height="150">
<path d="M0 0 C92.4 0 184.8 0 280 0 C280 49.5 280 99 280 150 C187.6 150 95.2 150 0 150 C0 100.5 0 51 0 0 Z " fill="#FDFDFD" transform="translate(0,0)"/>
<path d="M0 0 C0.66 0 1.32 0 2 0 C0.9292901 3.11479243 -0.43137856 5.71833933 -2.25 8.4375 C-5.97931471 14.21515473 -8.40749948 20.65683721 -11 27 C-8.89505699 26.91291962 -6.79097858 26.80474307 -4.6875 26.6875 C-3.51574219 26.62949219 -2.34398437 26.57148437 -1.13671875 26.51171875 C1.95371323 26.2549452 1.95371323 26.2549452 3.84375 24.625 C5.32426307 22.54427892 6.15637972 20.4010731 7 18 C8.32 18 9.64 18 11 18 C11.25 20.25 11.25 20.25 11 23 C10.401875 23.556875 9.80375 24.11375 9.1875 24.6875 C4.62421763 29.51154136 3.82165713 36.17838259 3.8125 42.625 C3.85963404 44.08391081 3.91628452 45.54273061 4 47 C5.32 47.33 6.64 47.66 8 48 C8 47.34 8 46.68 8 46 C8.66 46 9.32 46 10 46 C11.06782104 43.35238892 12.11198153 40.70098966 13.11328125 38.02734375 C13.50902344 37.00769531 13.90476562 35.98804688 14.3125 34.9375 C14.70050781 33.91527344 15.08851562 32.89304688 15.48828125 31.83984375 C17.22995398 28.56801927 18.89817279 27.00011115 22 25 C25.6875 24.625 25.6875 24.625 29 25 C31 27 31 27 31.3125 30 C31.209375 30.99 31.10625 31.98 31 33 C30.01 33.66 29.02 34.32 28 35 C28 32.69 28 30.38 28 28 C24.69098884 29.0269345 23.9780362 30.03922107 22.25 33.125 C20.68387125 37.21576253 20.63735794 40.64829527 21 45 C22.67428236 48.23576125 22.67428236 48.23576125 25.6875 48.6875 C30.06385137 47.77920066 31.65243126 46.02660779 34.40234375 42.59375 C37.37706324 37.76437655 38.58434484 32.44719484 40 27 C40.67369365 24.66264304 41.36086216 22.32912109 42.0625 20 C42.36285156 18.96875 42.66320312 17.9375 42.97265625 16.875 C44.03305788 13.90748823 45.1161753 11.52983653 47 9 C49.1875 8.1875 49.1875 8.1875 51 8 C50.82984375 8.55945312 50.6596875 9.11890625 50.484375 9.6953125 C48.24392676 17.10785935 46.11457447 24.55068688 44 32 C44.33 32.33 44.66 32.66 45 33 C45.48210937 32.4946875 45.96421875 31.989375 46.4609375 31.46875 C47.09257813 30.8190625 47.72421875 30.169375 48.375 29.5 C49.00148438 28.8503125 49.62796875 28.200625 50.2734375 27.53125 C52 26 52 26 54 26 C54.495 24.515 54.495 24.515 55 23 C55.99 23 56.98 23 58 23 C57.59773543 27.41459584 54.59612875 29.53697056 51.4375 32.25 C50.91736328 32.70890625 50.39722656 33.1678125 49.86132812 33.640625 C48.58104445 34.7682143 47.29141202 35.88517315 46 37 C46.735859 40.31344855 46.735859 40.31344855 50.16015625 41.82421875 C51.45600869 42.45553148 52.75706229 43.07625399 54.0625 43.6875 C54.72572266 44.00783203 55.38894531 44.32816406 56.07226562 44.65820312 C57.71050858 45.4478598 59.35471454 46.22512362 61 47 C61.103125 45.783125 61.20625 44.56625 61.3125 43.3125 C63.07722232 27.67855157 63.07722232 27.67855157 66.3515625 23.1171875 C68 22 68 22 72 22 C71.835 23.093125 71.67 24.18625 71.5 25.3125 C70.93281816 28.87525873 70.93281816 28.87525873 71 32 C71.7425 31.195625 72.485 30.39125 73.25 29.5625 C76.83018868 26.22641509 76.83018868 26.22641509 80 26 C81 27 81 27 81.09765625 30.59765625 C81.0909822 32.08596867 81.07902183 33.57426432 81.0625 35.0625 C81.05798828 35.82111328 81.05347656 36.57972656 81.04882812 37.36132812 C81.0370068 39.24091871 81.01907078 41.12046899 81 43 C81.66 43 82.32 43 83 43 C83.38865234 41.90558594 83.38865234 41.90558594 83.78515625 40.7890625 C85.03811856 37.91248664 86.4839543 35.820083 88.4375 33.375 C89.03433594 32.61960938 89.63117188 31.86421875 90.24609375 31.0859375 C93.37363454 27.36632329 93.37363454 27.36632329 95 26 C99.42105263 26.42105263 99.42105263 26.42105263 101 28 C101.08700342 29.63472882 101.10701063 31.27314055 101.09765625 32.91015625 C101.09443359 33.89951172 101.09121094 34.88886719 101.08789062 35.90820312 C101.07951172 36.94912109 101.07113281 37.99003906 101.0625 39.0625 C101.05798828 40.10728516 101.05347656 41.15207031 101.04882812 42.22851562 C101.03699913 44.8190666 101.02051689 47.40950559 101 50 C106.54906485 47.28829965 108.88486797 45.38291549 111.5625 39.625 C114.20126842 34.38869391 116.273133 30.52000734 121 27 C124.375 26.625 124.375 26.625 127 27 C125.26083819 30.96528893 122.78255339 33.30439938 119.65625 36.21875 C116.35134378 39.77308311 115.64615479 43.26153154 115 48 C115.99 48 116.98 48 118 48 C118.40412109 46.92685547 118.40412109 46.92685547 118.81640625 45.83203125 C120.01164779 42.97212987 121.37849208 40.36518535 122.9375 37.6875 C123.69353516 36.36298828 123.69353516 36.36298828 124.46484375 35.01171875 C124.97144531 34.34785156 125.47804687 33.68398438 126 33 C126.99 33 127.98 33 129 33 C128.83628906 33.70511719 128.67257813 34.41023438 128.50390625 35.13671875 C127.98300176 38.09658688 127.90133268 40.81061273 127.9375 43.8125 C127.94652344 44.78832031 127.95554688 45.76414063 127.96484375 46.76953125 C127.97644531 47.50558594 127.98804688 48.24164063 128 49 C131.82156332 48.4568012 132.80486983 48.19977613 135.625 45.3125 C138.70180089 40.70691367 139.33766678 35.48892574 140.2265625 30.109375 C140.99433522 27.02277356 141.51971702 25.89104448 144 24 C144.99 24.33 145.98 24.66 147 25 C147.08912219 28.83225427 146.87867729 32.26562152 146 36 C146.56267578 35.3503125 146.56267578 35.3503125 147.13671875 34.6875 C151.36878216 30.08233276 151.36878216 30.08233276 154.875 29.625 C155.57625 29.74875 156.2775 29.8725 157 30 C158.2062252 33.61867559 158.10816918 36.92506251 158.0625 40.6875 C158.05798828 41.38939453 158.05347656 42.09128906 158.04882812 42.81445312 C158.03706927 44.54300538 158.01913454 46.27151365 158 48 C161.93667951 46.72323908 163.9761671 45.65364524 166 42 C166.89828044 39.28552016 167.55479968 36.53683563 168.1875 33.75 C168.36474609 33.00492188 168.54199219 32.25984375 168.72460938 31.4921875 C169.15834193 29.66347729 169.58034597 27.83199221 170 26 C171.65 25.67 173.3 25.34 175 25 C174.67 28.96 174.34 32.92 174 37 C174.680625 36.030625 175.36125 35.06125 176.0625 34.0625 C177.22265625 32.41015625 177.22265625 32.41015625 179 31 C181.31 30.67 183.62 30.34 186 30 C186.33 35.94 186.66 41.88 187 48 C192.00430446 46.14079162 192.00430446 46.14079162 194.6875 42.375 C195.88671875 40.4609375 195.88671875 40.4609375 197 39 C197.66 39 198.32 39 199 39 C198.09447223 44.15454267 194.94602543 47.70775393 191 51 C187.1875 51.6875 187.1875 51.6875 184 51 C181.57869669 47.36804504 181.78977215 45.61650652 181.875 41.3125 C181.89304688 40.13300781 181.91109375 38.95351563 181.9296875 37.73828125 C181.95289063 36.83464844 181.97609375 35.93101563 182 35 C177.0627225 39.50537158 174.63220418 44.28885421 171.74609375 50.234375 C170 53 170 53 167.78515625 53.890625 C166.90150391 53.94476563 166.90150391 53.94476563 166 54 C165.67 52.35 165.34 50.7 165 49 C164.46375 49.33 163.9275 49.66 163.375 50 C160.4608939 51.22699204 158.13132292 51.14233286 155 51 C153.49843126 47.99686252 153.90718796 45.20932478 153.9375 41.875 C153.94652344 40.59367187 153.95554688 39.31234375 153.96484375 37.9921875 C153.98224609 36.51105469 153.98224609 36.51105469 154 35 C148.08588624 40.40718973 144.42523556 46.78897776 141 54 C139.68 54 138.36 54 137 54 C137 52.35 137 50.7 137 49 C136.113125 49.66 135.22625 50.32 134.3125 51 C131.04466775 52.97303079 129.69719276 53.71889859 126 53 C123.8480563 49.77208445 123.79913557 48.71599191 124 45 C122.824375 46.175625 122.824375 46.175625 121.625 47.375 C120.08333333 48.91666667 118.54166667 50.45833333 117 52 C114.0371669 51.60495559 111.61673759 50.40182371 109 49 C108.34644531 49.54140625 108.34644531 49.54140625 107.6796875 50.09375 C103.68592849 53.20577001 101.26159459 54.64165788 96 54 C93.61133566 46.83400697 94.86644038 38.36813755 96 31 C90.94942399 34.37309565 88.65788826 38.55856545 85.8125 43.75 C84.95075767 45.31103544 84.08261003 46.86855813 83.20703125 48.421875 C82.8303833 49.10862305 82.45373535 49.79537109 82.06567383 50.50292969 C81.71400146 50.99696289 81.3623291 51.49099609 81 52 C80.34 52 79.68 52 79 52 C77.82573736 49.65147472 77.88491827 48.26225935 77.90234375 45.6484375 C77.90556641 44.79765625 77.90878906 43.946875 77.91210938 43.0703125 C77.92048828 42.18085937 77.92886719 41.29140625 77.9375 40.375 C77.94201172 39.4778125 77.94652344 38.580625 77.95117188 37.65625 C77.96297409 35.43743352 77.97943845 33.21874982 78 31 C72.4303259 34.73599619 70.28155526 39.58976561 67.39453125 45.41992188 C64.65454318 50.64512719 64.65454318 50.64512719 61.73046875 52.23046875 C57.58644407 51.88068698 54.43265729 50.08414394 50.8125 48.125 C50.08869141 47.74730469 49.36488281 47.36960938 48.61914062 46.98046875 C46.74019804 45.99817505 44.86951583 45.00011835 43 44 C42.34 43.67 41.68 43.34 41 43 C41.495 48.94 41.495 48.94 42 55 C40.68 54.34 39.36 53.68 38 53 C37.25 49.875 37.25 49.875 37 47 C36.46632813 47.433125 35.93265625 47.86625 35.3828125 48.3125 C30.2513807 52.14775698 26.57839838 53.66265141 20.1640625 53.6015625 C17.26502686 52.79569339 16.56339326 51.51422893 15 49 C14.34 48.01 13.68 47.02 13 46 C12.319375 46.969375 11.63875 47.93875 10.9375 48.9375 C8.60889305 51.7813447 8.04729408 51.98914562 4.1875 52.875 C3.135625 52.91625 2.08375 52.9575 1 53 C-1.63172097 50.35442787 -2.0021093 48.97544174 -2.328125 45.1796875 C-2.31755341 43.74459431 -2.29106031 42.30954462 -2.25 40.875 C-2.24484375 40.14667969 -2.2396875 39.41835938 -2.234375 38.66796875 C-2.15514881 33.31029762 -2.15514881 33.31029762 -1 31 C-4.96 31 -8.92 31 -13 31 C-13.66 37.6 -14.32 44.2 -15 51 C-15.99 51 -16.98 51 -18 51 C-19.34413413 48.31173174 -19.13239863 46.18764598 -19.125 43.1875 C-19.12886719 41.63095703 -19.12886719 41.63095703 -19.1328125 40.04296875 C-19.01076175 37.24657058 -18.63363355 34.72060121 -18 32 C-25.40117311 32.77366323 -25.40117311 32.77366323 -31.2890625 36.62890625 C-31.97431813 38.57488347 -31.97431813 38.57488347 -32.4375 40.67578125 C-33.81066584 46.34962623 -37.04812327 53.69874884 -42 57 C-45.20195936 57.45742277 -47.07553259 57.55468045 -49.875 55.875 C-51.63530047 52.94116588 -51.57579188 51.39077439 -51 48 C-48.39635198 43.30771126 -45.10318013 40.0236137 -40.8125 36.875 C-35.26899044 32.25364212 -34.77373884 25.85532615 -34 19 C-33.49208972 13.34707411 -33.49208972 13.34707411 -35 8 C-38.02934491 7.34227572 -38.02934491 7.34227572 -41 7 C-40.67 6.01 -40.34 5.02 -40 4 C-36.9167365 2.45836825 -34.39121901 2.70252465 -31 3 C-28.26218022 5.45589326 -28.004574 6.94919594 -27.671875 10.64453125 C-27.6824518 12.03405796 -27.70895961 13.42353923 -27.75 14.8125 C-27.75515625 15.49892578 -27.7603125 16.18535156 -27.765625 16.89257812 C-27.83294765 21.34008076 -28.28851452 25.61059359 -29 30 C-24.21862145 29.82507152 -20.30539279 29.14031034 -16 27 C-12.65891756 22.9676149 -10.95593786 17.82289407 -8.94580078 13.04296875 C-6.73298157 8.26318787 -3.51957727 3.89962552 0 0 Z " fill="#3C3C3C" transform="translate(66,23)"/>
<path d="M0 0 C0.66 0 1.32 0 2 0 C0.9292901 3.11479243 -0.43137856 5.71833933 -2.25 8.4375 C-5.97931471 14.21515473 -8.40749948 20.65683721 -11 27 C-8.89505699 26.91291962 -6.79097858 26.80474307 -4.6875 26.6875 C-3.51574219 26.62949219 -2.34398437 26.57148437 -1.13671875 26.51171875 C1.95371323 26.2549452 1.95371323 26.2549452 3.84375 24.625 C5.32426307 22.54427892 6.15637972 20.4010731 7 18 C8.32 18 9.64 18 11 18 C11.25 20.25 11.25 20.25 11 23 C10.401875 23.556875 9.80375 24.11375 9.1875 24.6875 C4.62421763 29.51154136 3.82165713 36.17838259 3.8125 42.625 C3.85963404 44.08391081 3.91628452 45.54273061 4 47 C5.32 47.33 6.64 47.66 8 48 C8 47.34 8 46.68 8 46 C8.66 46 9.32 46 10 46 C11.06782104 43.35238892 12.11198153 40.70098966 13.11328125 38.02734375 C13.50902344 37.00769531 13.90476562 35.98804688 14.3125 34.9375 C14.70050781 33.91527344 15.08851562 32.89304688 15.48828125 31.83984375 C17.22995398 28.56801927 18.89817279 27.00011115 22 25 C25.6875 24.625 25.6875 24.625 29 25 C31 27 31 27 31.3125 30 C31.209375 30.99 31.10625 31.98 31 33 C30.01 33.66 29.02 34.32 28 35 C28 32.69 28 30.38 28 28 C24.69098884 29.0269345 23.9780362 30.03922107 22.25 33.125 C20.68387125 37.21576253 20.63735794 40.64829527 21 45 C22.66566336 48.25765755 22.66566336 48.25765755 25.6875 48.5625 C30.32928614 47.77427216 32.73244863 45.24821675 36 42 C35.67 42.99 35.34 43.98 35 45 C35.66 45.66 36.32 46.32 37 47 C31.48612904 51.47502571 27.32905437 53.66980052 20.1640625 53.6015625 C17.26502686 52.79569339 16.56339326 51.51422893 15 49 C14.34 48.01 13.68 47.02 13 46 C12.319375 46.969375 11.63875 47.93875 10.9375 48.9375 C8.60889305 51.7813447 8.04729408 51.98914562 4.1875 52.875 C3.135625 52.91625 2.08375 52.9575 1 53 C-1.63172097 50.35442787 -2.0021093 48.97544174 -2.328125 45.1796875 C-2.31755341 43.74459431 -2.29106031 42.30954462 -2.25 40.875 C-2.24484375 40.14667969 -2.2396875 39.41835938 -2.234375 38.66796875 C-2.15514881 33.31029762 -2.15514881 33.31029762 -1 31 C-4.96 31 -8.92 31 -13 31 C-13.66 37.6 -14.32 44.2 -15 51 C-15.99 51 -16.98 51 -18 51 C-19.34413413 48.31173174 -19.13239863 46.18764598 -19.125 43.1875 C-19.12886719 41.63095703 -19.12886719 41.63095703 -19.1328125 40.04296875 C-19.01076175 37.24657058 -18.63363355 34.72060121 -18 32 C-25.40117311 32.77366323 -25.40117311 32.77366323 -31.2890625 36.62890625 C-31.97431813 38.57488347 -31.97431813 38.57488347 -32.4375 40.67578125 C-33.81066584 46.34962623 -37.04812327 53.69874884 -42 57 C-45.20195936 57.45742277 -47.07553259 57.55468045 -49.875 55.875 C-51.63530047 52.94116588 -51.57579188 51.39077439 -51 48 C-48.39635198 43.30771126 -45.10318013 40.0236137 -40.8125 36.875 C-35.26899044 32.25364212 -34.77373884 25.85532615 -34 19 C-33.49208972 13.34707411 -33.49208972 13.34707411 -35 8 C-38.02934491 7.34227572 -38.02934491 7.34227572 -41 7 C-40.67 6.01 -40.34 5.02 -40 4 C-36.9167365 2.45836825 -34.39121901 2.70252465 -31 3 C-28.26218022 5.45589326 -28.004574 6.94919594 -27.671875 10.64453125 C-27.6824518 12.03405796 -27.70895961 13.42353923 -27.75 14.8125 C-27.75515625 15.49892578 -27.7603125 16.18535156 -27.765625 16.89257812 C-27.83294765 21.34008076 -28.28851452 25.61059359 -29 30 C-24.21862145 29.82507152 -20.30539279 29.14031034 -16 27 C-12.65891756 22.9676149 -10.95593786 17.82289407 -8.94580078 13.04296875 C-6.73298157 8.26318787 -3.51957727 3.89962552 0 0 Z " fill="#3A3A3A" transform="translate(66,23)"/>
<path d="M0 0 C2.70959234 2.4423619 2.99488623 3.94919219 3.36328125 7.609375 C3.36461103 8.98968649 3.3469333 10.37011743 3.3125 11.75 C3.30412109 12.46285156 3.29574219 13.17570312 3.28710938 13.91015625 C3.1728839 18.90866302 2.57580347 23.27258958 1 28 C2.32 28 3.64 28 5 28 C4.67 28.99 4.34 29.98 4 31 C3.34773438 31.29777344 2.69546875 31.59554687 2.0234375 31.90234375 C-0.18268013 32.82148454 -0.18268013 32.82148454 -0.8359375 35.06640625 C-1.01382813 35.89011719 -1.19171875 36.71382812 -1.375 37.5625 C-3.06263607 43.98670582 -6.30268236 49.30268236 -11 54 C-14.10347254 54.33015665 -16.15781176 54.50531294 -18.875 52.875 C-20.63530047 49.94116588 -20.57579188 48.39077439 -20 45 C-17.39635198 40.30771126 -14.10318013 37.0236137 -9.8125 33.875 C-4.26899044 29.25364212 -3.77373884 22.85532615 -3 16 C-2.49208972 10.34707411 -2.49208972 10.34707411 -4 5 C-7.02934491 4.34227572 -7.02934491 4.34227572 -10 4 C-9.67 3.01 -9.34 2.02 -9 1 C-5.9167365 -0.54163175 -3.39121901 -0.29747535 0 0 Z " fill="#353535" transform="translate(35,26)"/>
<path d="M0 0 C2.9375 0.4375 2.9375 0.4375 5.9375 2.4375 C5.79601011 4.0420556 5.64914314 5.64613767 5.5 7.25 C5.41878906 8.14332031 5.33757812 9.03664063 5.25390625 9.95703125 C4.9375 12.4375 4.9375 12.4375 3.9375 15.4375 C4.5975 15.4375 5.2575 15.4375 5.9375 15.4375 C5.9375 16.0975 5.9375 16.7575 5.9375 17.4375 C4.14616022 17.49141993 2.35436101 17.53025571 0.5625 17.5625 C-0.43523437 17.58570312 -1.43296875 17.60890625 -2.4609375 17.6328125 C-5.0625 17.4375 -5.0625 17.4375 -7.0625 15.4375 C-7.78949543 10.66130907 -7.67571659 6.61676268 -5.4375 2.3125 C-3.0625 0.4375 -3.0625 0.4375 0 0 Z " fill="#424242" transform="translate(225.0625,96.5625)"/>
<path d="M0 0 C-0.17015625 0.55945313 -0.3403125 1.11890625 -0.515625 1.6953125 C-2.75607324 9.10785935 -4.88542553 16.55068688 -7 24 C-6.67 24.33 -6.34 24.66 -6 25 C-5.51789063 24.4946875 -5.03578125 23.989375 -4.5390625 23.46875 C-3.59160156 22.49421875 -3.59160156 22.49421875 -2.625 21.5 C-1.99851562 20.8503125 -1.37203125 20.200625 -0.7265625 19.53125 C1 18 1 18 3 18 C3.33 17.01 3.66 16.02 4 15 C4.99 15 5.98 15 7 15 C6.6597171 18.76056231 4.77607982 20.37002773 2.00195312 22.75976562 C1.48568359 23.18966797 0.96941406 23.61957031 0.4375 24.0625 C-1.46986769 25.65315484 -3.22629504 27.24967171 -5 29 C-5 29.99 -5 30.98 -5 32 C-6.9375 31.1875 -6.9375 31.1875 -9 30 C-9.33 29.01 -9.66 28.02 -10 27 C-10.66 27 -11.32 27 -12 27 C-12.33 27.66 -12.66 28.32 -13 29 C-11.42379931 19.13415123 -9.43044189 9.54891347 -4 1 C-2 0 -2 0 0 0 Z " fill="#3B3B3B" transform="translate(117,31)"/>
<path d="M0 0 C0.99 0 1.98 0 3 0 C3.33 4.29 3.66 8.58 4 13 C4.66 13 5.32 13 6 13 C6.06058594 12.37351562 6.12117187 11.74703125 6.18359375 11.1015625 C6.26738281 10.28429687 6.35117188 9.46703125 6.4375 8.625 C6.51871094 7.81289062 6.59992188 7.00078125 6.68359375 6.1640625 C7 4 7 4 8 2 C9.65 2 11.3 2 13 2 C13.66 4.97 14.32 7.94 15 11 C15.18175781 10.36191406 15.36351562 9.72382812 15.55078125 9.06640625 C15.80214844 8.24011719 16.05351562 7.41382812 16.3125 6.5625 C16.55613281 5.73878906 16.79976562 4.91507812 17.05078125 4.06640625 C17.36402344 3.38449219 17.67726562 2.70257813 18 2 C18.99 1.67 19.98 1.34 21 1 C20.49228528 6.96564796 18.61407872 11.63809899 16 17 C12.125 16.125 12.125 16.125 11 15 C10.54540142 12.34536879 10.29756762 9.67810862 10 7 C9.01 10.3 8.02 13.6 7 17 C5.35 17 3.7 17 2 17 C-0.25998595 13.40537669 -0.20868087 10.43404325 -0.125 6.25 C-0.09792969 4.49429688 -0.09792969 4.49429688 -0.0703125 2.703125 C-0.04710937 1.81109375 -0.02390625 0.9190625 0 0 Z " fill="#515151" transform="translate(179,97)"/>
<path d="M0 0 C0.33 5.94 0.66 11.88 1 18 C6.00430446 16.14079162 6.00430446 16.14079162 8.6875 12.375 C9.88671875 10.4609375 9.88671875 10.4609375 11 9 C11.66 9 12.32 9 13 9 C12.09447223 14.15454267 8.94602543 17.70775393 5 21 C1.1875 21.6875 1.1875 21.6875 -2 21 C-4.42130331 17.36804504 -4.21022785 15.61650652 -4.125 11.3125 C-4.10695312 10.13300781 -4.08890625 8.95351563 -4.0703125 7.73828125 C-4.04710937 6.83464844 -4.02390625 5.93101563 -4 5 C-4.78375 5.78375 -5.5675 6.5675 -6.375 7.375 C-7.91666667 8.91666667 -9.45833333 10.45833333 -11 12 C-11 11.34 -11 10.68 -11 10 C-11.99 10 -12.98 10 -14 10 C-11.80016762 3.40050285 -6.72671731 0 0 0 Z " fill="#2E2E2E" transform="translate(252,53)"/>
<path d="M0 0 C1.9375 1.125 1.9375 1.125 3 3 C3 6.0625 3 6.0625 2 9 C-1.25802063 10.93720146 -3.15044673 11 -7 11 C-6.67 12.32 -6.34 13.64 -6 15 C-2.7 14.34 0.6 13.68 4 13 C3.34 14.32 2.68 15.64 2 17 C-5.95467422 17.61189802 -5.95467422 17.61189802 -9.5625 15.5 C-11.5746689 12.00057583 -11.88254888 8.87554073 -11 5 C-7.85107955 0.55446525 -5.44419378 -0.94681631 0 0 Z " fill="#444444" transform="translate(174,97)"/>
<path d="M0 0 C-0.45822468 3.46941546 -0.89131683 6.67395049 -2 10 C-1.45730469 9.50628906 -0.91460937 9.01257813 -0.35546875 8.50390625 C0.35996094 7.86324219 1.07539063 7.22257812 1.8125 6.5625 C2.52019531 5.92441406 3.22789062 5.28632812 3.95703125 4.62890625 C6 3 6 3 9 2 C9.52460576 10.95715767 8.83268755 19.89107467 3.125 27.1875 C0.94605603 29.47539117 0.34606787 29.9473375 -2.875 30.4375 C-3.57625 30.293125 -4.2775 30.14875 -5 30 C-6.34516765 23.64102564 -6.34516765 23.64102564 -4.6875 20.5625 C-3 19 -3 19 -1 19 C-1.99 21.97 -2.98 24.94 -4 28 C-0.77753386 26.45022358 0.74814576 25.50659505 2.36328125 22.2578125 C2.67652344 21.22398438 2.98976562 20.19015625 3.3125 19.125 C3.63863281 18.09632812 3.96476563 17.06765625 4.30078125 16.0078125 C4.95201149 13.20643103 5.14247614 10.86007659 5 8 C4.278125 8.66 3.55625 9.32 2.8125 10 C-0.21597933 12.1535853 -1.39703406 12.41176754 -5 12 C-5.36666667 4.66666667 -5.36666667 4.66666667 -3.625 1.5 C-2 0 -2 0 0 0 Z " fill="#444444" transform="translate(151,97)"/>
<path d="M0 0 C1.9375 1.75 1.9375 1.75 3 4 C3 5.32 3 6.64 3 8 C-3.625 11 -3.625 11 -7 11 C-6.01 12.485 -6.01 12.485 -5 14 C-0.545 13.505 -0.545 13.505 4 13 C3 15 3 15 1 17 C-2.1746011 17.45351444 -3.98852271 17.68470208 -7 17 C-9.6483191 14.88134472 -10.73807669 13.37782575 -11.375 10.02734375 C-11.57794811 6.63430511 -11.24095223 4.38552357 -9.4375 1.5 C-6.06575823 -0.57491801 -3.88409465 -0.56495922 0 0 Z " fill="#424242" transform="translate(141,97)"/>
<path d="M0 0 C2.4375 1.75 2.4375 1.75 4 4 C4.1875 6.0625 4.1875 6.0625 3 8 C-0.4960903 9.81278756 -3.03981755 11 -7 11 C-6.01 12.485 -6.01 12.485 -5 14 C-0.545 13.505 -0.545 13.505 4 13 C3.67 14.32 3.34 15.64 3 17 C1.3973218 17.10824843 -0.20745748 17.18570645 -1.8125 17.25 C-2.70582031 17.29640625 -3.59914062 17.3428125 -4.51953125 17.390625 C-7 17 -7 17 -8.796875 15.265625 C-10.77029789 11.54943903 -10.66906878 8.09710657 -10 4 C-7.35478334 -0.1713032 -4.79556761 -0.79926127 0 0 Z " fill="#4E4E4E" transform="translate(212,97)"/>
<path d="M0 0 C0.99 0.99 1.98 1.98 3 3 C1.35 4.65 -0.3 6.3 -2 8 C-1.34 8.33 -0.68 8.66 0 9 C-3.465 15.435 -3.465 15.435 -7 22 C-7.66 22 -8.32 22 -9 22 C-9.33 22.99 -9.66 23.98 -10 25 C-10.99 25.33 -11.98 25.66 -13 26 C-15 24 -15 24 -15.5 21.375 C-14.39382688 13.90833144 -8.27223536 9.06211636 -2.63671875 4.54296875 C-0.73505206 2.99412152 -0.73505206 2.99412152 0 0 Z " fill="#474747" transform="translate(30,53)"/>
<path d="M0 0 C0.33 0 0.66 0 1 0 C1.6758148 4.50543198 2.12954682 7.60731793 1 12 C0.77882441 14.4138176 0.59427758 16.83114597 0.4375 19.25 C0.35371094 20.51328125 0.26992188 21.7765625 0.18359375 23.078125 C0.12300781 24.04234375 0.06242187 25.0065625 0 26 C-0.99 26 -1.98 26 -3 26 C-4.34413413 23.31173174 -4.13239863 21.18764598 -4.125 18.1875 C-4.12757812 17.14980469 -4.13015625 16.11210938 -4.1328125 15.04296875 C-4.01076175 12.24657058 -3.63363355 9.72060121 -3 7 C-5.64 7.33 -8.28 7.66 -11 8 C-11 7.34 -11 6.68 -11 6 C-12.32 6 -13.64 6 -15 6 C-14.67 5.01 -14.34 4.02 -14 3 C-14 3.66 -14 4.32 -14 5 C-11.8520106 4.55187982 -9.70663439 4.09121652 -7.5625 3.625 C-6.36753906 3.36976562 -5.17257813 3.11453125 -3.94140625 2.8515625 C-2.97074219 2.57054687 -2.00007813 2.28953125 -1 2 C-0.67 1.34 -0.34 0.68 0 0 Z " fill="#3C3C3C" transform="translate(51,48)"/>
<path d="M0 0 C0.99 0.33 1.98 0.66 3 1 C3 5.62 3 10.24 3 15 C3.66 15 4.32 15 5 15 C5.33 14.01 5.66 13.02 6 12 C6.66 12 7.32 12 8 12 C7.52583422 16.97874064 6.0900669 20.06718758 3 24 C2.34 24 1.68 24 1 24 C-0.82658439 20.34683122 -0.43472364 16.02938182 -0.625 12 C-0.6765625 11.071875 -0.728125 10.14375 -0.78125 9.1875 C-0.84699219 7.8571875 -0.84699219 7.8571875 -0.9140625 6.5 C-0.9548291 5.6853125 -0.9955957 4.870625 -1.03759766 4.03125 C-1 2 -1 2 0 0 Z " fill="#363636" transform="translate(144,51)"/>
<path d="M0 0 C0.66 0.33 1.32 0.66 2 1 C2 1.66 2 2.32 2 3 C2.99 3.33 3.98 3.66 5 4 C4.41892368 7.7602985 3.34800504 10.53035032 1.4375 13.8125 C0.98246094 14.60269531 0.52742187 15.39289063 0.05859375 16.20703125 C-0.29074219 16.79871094 -0.64007813 17.39039062 -1 18 C-2.32 17.67 -3.64 17.34 -5 17 C-4.67 16.34 -4.34 15.68 -4 15 C-3.47743076 11.66258302 -3.03852574 8.31787621 -2.59765625 4.96875 C-2 2 -2 2 0 0 Z " fill="#333333" transform="translate(131,56)"/>
<path d="M0 0 C0 4.95 0 9.9 0 15 C-0.33 15 -0.66 15 -1 15 C-1.33 11.7 -1.66 8.4 -2 5 C-2.33 9.29 -2.66 13.58 -3 18 C-3.33 18 -3.66 18 -4 18 C-4 13.71 -4 9.42 -4 5 C-4.78375 5.78375 -5.5675 6.5675 -6.375 7.375 C-7.91666667 8.91666667 -9.45833333 10.45833333 -11 12 C-11 11.34 -11 10.68 -11 10 C-11.99 10 -12.98 10 -14 10 C-11.80016762 3.40050285 -6.72671731 0 0 0 Z " fill="#525252" transform="translate(252,53)"/>
<path d="M0 0 C0.99 0 1.98 0 3 0 C3.33 4.29 3.66 8.58 4 13 C4.66 13 5.32 13 6 13 C6.33 10.03 6.66 7.06 7 4 C7.66 4 8.32 4 9 4 C9.19294408 8.82360189 8.75747614 12.49646738 7 17 C5.35 17 3.7 17 2 17 C-0.25998595 13.40537669 -0.20868087 10.43404325 -0.125 6.25 C-0.09792969 4.49429688 -0.09792969 4.49429688 -0.0703125 2.703125 C-0.04710937 1.81109375 -0.02390625 0.9190625 0 0 Z " fill="#434343" transform="translate(179,97)"/>
<path d="M0 0 C0.99 1.32 1.98 2.64 3 4 C2.01 4.33 1.02 4.66 0 5 C-1.50994018 7.33564361 -2.86915145 9.62367437 -4.1875 12.0625 C-4.55552734 12.72572266 -4.92355469 13.38894531 -5.30273438 14.07226562 C-6.21012062 15.71027457 -7.10615573 17.35456221 -8 19 C-8.99 19 -9.98 19 -11 19 C-11.51117861 13.63262463 -10.3307423 11.18477878 -7 7 C-4.73167572 4.5956734 -2.39694738 2.27575341 0 0 Z " fill="#EEEEEE" transform="translate(192,52)"/>
<path d="M0 0 C0.99 0 1.98 0 3 0 C3 1.65 3 3.3 3 5 C3.7425 4.505 4.485 4.01 5.25 3.5 C8 2 8 2 12 2 C12 2.99 12 3.98 12 5 C10.329375 5.4021875 10.329375 5.4021875 8.625 5.8125 C4.78159049 6.65809019 4.78159049 6.65809019 3 10 C2.29187186 12.32108669 1.61975848 14.65377147 1 17 C0.01 17 -0.98 17 -2 17 C-1.85786703 15.10388566 -1.71113093 13.20811606 -1.5625 11.3125 C-1.48128906 10.25675781 -1.40007812 9.20101562 -1.31640625 8.11328125 C-1.03548319 5.34913703 -0.59843148 2.71054259 0 0 Z " fill="#4A4A4A" transform="translate(236,97)"/>
<path d="M0 0 C0.66 0 1.32 0 2 0 C0.91457831 3.15759037 -0.47783194 5.79895912 -2.3125 8.5625 C-5.63023795 13.70696866 -7.77483142 19.31871852 -10 25 C-11.32 25 -12.64 25 -14 25 C-11.32115841 15.74581996 -6.69671948 6.98348076 0 0 Z " fill="#3E3E3E" transform="translate(66,23)"/>
<path d="M0 0 C0.33 0 0.66 0 1 0 C1.33 1.98 1.66 3.96 2 6 C3.32 6.33 4.64 6.66 6 7 C6 6.34 6 5.68 6 5 C6.66 5 7.32 5 8 5 C8.33 4.01 8.66 3.02 9 2 C9.99 3.485 9.99 3.485 11 5 C6.93846154 10.78461538 6.93846154 10.78461538 2.1875 11.875 C1.135625 11.91625 0.08375 11.9575 -1 12 C-4 8.375 -4 8.375 -4 5 C-3.01 4.67 -2.02 4.34 -1 4 C-0.26676204 1.98491642 -0.26676204 1.98491642 0 0 Z " fill="#3C3C3C" transform="translate(68,64)"/>
<path d="M0 0 C1.14077657 3.42232972 1.09815117 6.08673217 1.0625 9.6875 C1.05347656 10.86699219 1.04445312 12.04648438 1.03515625 13.26171875 C1.02355469 14.16535156 1.01195312 15.06898437 1 16 C0.67 16 0.34 16 0 16 C-0.33 13.03 -0.66 10.06 -1 7 C-1.66 7 -2.32 7 -3 7 C-3 6.34 -3 5.68 -3 5 C-5.97 7.475 -5.97 7.475 -9 10 C-9 9.34 -9 8.68 -9 8 C-10.32 8.33 -11.64 8.66 -13 9 C-11.16023343 3.48070028 -6.07249345 -1.10408972 0 0 Z " fill="#555555" transform="translate(223,53)"/>
<path d="M0 0 C3.125 -0.1875 3.125 -0.1875 6 0 C6.3125 2.6875 6.3125 2.6875 6 6 C3.6875 8.875 3.6875 8.875 1 11 C0.01 11 -0.98 11 -2 11 C-2.25 3.375 -2.25 3.375 0 0 Z " fill="#F4F4F4" transform="translate(223,100)"/>
<path d="M0 0 C0 1.65 0 3.3 0 5 C2.64 4.34 5.28 3.68 8 3 C7.0625 5 7.0625 5 5 7 C2.72838185 7.26279504 0.57991608 7.18240207 -1.703125 7.07421875 C-4.56095036 6.98187405 -7.206244 7.42692185 -10 8 C-10.66 6.68 -11.32 5.36 -12 4 C-10.3767313 3.3291288 -8.75132422 2.66342971 -7.125 2 C-6.22007812 1.62875 -5.31515625 1.2575 -4.3828125 0.875 C-2 0 -2 0 0 0 Z " fill="#EBEBEB" transform="translate(146,104)"/>
<path d="M0 0 C0.99 0 1.98 0 3 0 C3 2.31 3 4.62 3 7 C2.01 7.495 2.01 7.495 1 8 C1 7.34 1 6.68 1 6 C0.443125 6.33 -0.11375 6.66 -0.6875 7 C-3.30284522 8.1309601 -5.1806646 8.15662974 -8 8 C-8.66 6.68 -9.32 5.36 -10 4 C-9.36191406 3.79503906 -8.72382813 3.59007813 -8.06640625 3.37890625 C-7.24011719 3.10949219 -6.41382813 2.84007813 -5.5625 2.5625 C-4.73878906 2.29566406 -3.91507813 2.02882813 -3.06640625 1.75390625 C-1.03780412 1.17844506 -1.03780412 1.17844506 0 0 Z " fill="#E4E4E4" transform="translate(215,104)"/>
<path d="M0 0 C0.99 0.33 1.98 0.66 3 1 C3.34833144 5.87664009 2.41685712 8.77050005 0 13 C-1.32 13 -2.64 13 -4 13 C-4.29543354 7.97762985 -4.00679573 5.0892422 -1 1 C-0.67 0.67 -0.34 0.34 0 0 Z " fill="#3E3E3E" transform="translate(210,47)"/>
<path d="M0 0 C2 2 2 2 2.3125 5 C2.1578125 6.485 2.1578125 6.485 2 8 C1.01 8.66 0.02 9.32 -1 10 C-1 7.69 -1 5.38 -1 3 C-1.62648438 3.2165625 -2.25296875 3.433125 -2.8984375 3.65625 C-3.71570313 3.9346875 -4.53296875 4.213125 -5.375 4.5 C-6.59316406 4.91765625 -6.59316406 4.91765625 -7.8359375 5.34375 C-10 6 -10 6 -12 6 C-9.44049628 0.09345297 -6.17829321 -0.44933042 0 0 Z " fill="#494949" transform="translate(95,48)"/>
<path d="M0 0 C0.33 0.99 0.66 1.98 1 3 C3.31 3 5.62 3 8 3 C5 5 5 5 2 5 C2.99 6.485 2.99 6.485 4 8 C8.455 7.505 8.455 7.505 13 7 C12.67 8.32 12.34 9.64 12 11 C10.3973218 11.10824843 8.79254252 11.18570645 7.1875 11.25 C6.29417969 11.29640625 5.40085938 11.3428125 4.48046875 11.390625 C2 11 2 11 0.19140625 9.18359375 C-1.37157483 6.31898253 -1.28563069 4.21334527 -1 1 C-0.67 0.67 -0.34 0.34 0 0 Z " fill="#393939" transform="translate(203,103)"/>
<path d="M0 0 C1.32 0 2.64 0 4 0 C4.25 2.25 4.25 2.25 4 5 C2.125 7.125 2.125 7.125 0 9 C-0.99 10.485 -0.99 10.485 -2 12 C-2.33 11.67 -2.66 11.34 -3 11 C-3.66 11.66 -4.32 12.32 -5 13 C-5 12.01 -5 11.02 -5 10 C-7.97 10 -10.94 10 -14 10 C-14 9.67 -14 9.34 -14 9 C-13.38511719 8.96261719 -12.77023438 8.92523438 -12.13671875 8.88671875 C-11.32847656 8.82097656 -10.52023438 8.75523438 -9.6875 8.6875 C-8.88699219 8.62949219 -8.08648437 8.57148437 -7.26171875 8.51171875 C-4.58492201 7.90608771 -3.68140037 7.13250778 -2 5 C-0.80972016 2.40084462 -0.80972016 2.40084462 0 0 Z " fill="#404040" transform="translate(73,41)"/>
<path d="M0 0 C0.33 2.64 0.66 5.28 1 8 C-4.94 8.495 -4.94 8.495 -11 9 C-11.33 7.68 -11.66 6.36 -12 5 C-9.03 4.34 -6.06 3.68 -3 3 C-3 2.34 -3 1.68 -3 1 C-1 0 -1 0 0 0 Z " fill="#EDEDED" transform="translate(179,103)"/>
<path d="M0 0 C-0.19335938 0.64066406 -0.38671875 1.28132813 -0.5859375 1.94140625 C-2.0940748 6.95110985 -3.57717786 11.96539857 -5 17 C-5.99 17 -6.98 17 -8 17 C-8.45028522 10.69600687 -7.61202629 6.28621366 -4 1 C-2 0 -2 0 0 0 Z " fill="#393939" transform="translate(117,31)"/>
<path d="M0 0 C-0.45822468 3.46941546 -0.89131683 6.67395049 -2 10 C0.31 8.35 2.62 6.7 5 5 C5.66 5.66 6.32 6.32 7 7 C0.92560175 11.90153173 0.92560175 11.90153173 -2.9375 12.3125 C-3.9584375 12.1578125 -3.9584375 12.1578125 -5 12 C-5.36666667 4.66666667 -5.36666667 4.66666667 -3.625 1.5 C-2 0 -2 0 0 0 Z " fill="#4D4D4D" transform="translate(151,97)"/>
<path d="M0 0 C4.03520597 1.58962659 8.01811282 3.28232318 12 5 C12.33 3.68 12.66 2.36 13 1 C12.79375 2.11375 12.5875 3.2275 12.375 4.375 C12.25125 5.57125 12.1275 6.7675 12 8 C12.66 8.66 13.32 9.32 14 10 C10.14974121 9.39644592 7.13898841 8.23227397 3.6875 6.4375 C2.80449219 5.98246094 1.92148438 5.52742188 1.01171875 5.05859375 C0.34785156 4.70925781 -0.31601563 4.35992187 -1 4 C-0.67 2.68 -0.34 1.36 0 0 Z " fill="#373737" transform="translate(115,65)"/>
<path d="M0 0 C0.06058594 0.69867188 0.12117187 1.39734375 0.18359375 2.1171875 C0.26738281 3.02726562 0.35117188 3.93734375 0.4375 4.875 C0.55931641 6.23238281 0.55931641 6.23238281 0.68359375 7.6171875 C0.86989285 10.01110861 0.86989285 10.01110861 2 12 C2.99 12.66 3.98 13.32 5 14 C4 15 4 15 0.9375 15.0625 C-0.031875 15.041875 -1.00125 15.02125 -2 15 C-3.38226016 12.23547967 -3.09525387 9.9538637 -3.0625 6.875 C-3.05347656 5.77929688 -3.04445312 4.68359375 -3.03515625 3.5546875 C-3.02355469 2.71164063 -3.01195312 1.86859375 -3 1 C-1 0 -1 0 0 0 Z " fill="#313131" transform="translate(223,59)"/>
<path d="M0 0 C-1.41292095 4.8274799 -3.42974154 8.7162359 -6 13 C-6.99 13 -7.98 13 -9 13 C-8.8185742 8.46435491 -8.219977 5.78143641 -5.0625 2.5625 C-2 0 -2 0 0 0 Z " fill="#EEEEEE" transform="translate(29,62)"/>
<path d="M0 0 C1.9375 2 1.9375 2 3 4 C2.67 4.66 2.34 5.32 2 6 C-0.5625 6.625 -0.5625 6.625 -3 7 C-3.33 6.34 -3.66 5.68 -4 5 C-7.02934491 4.34227572 -7.02934491 4.34227572 -10 4 C-9.67 3.01 -9.34 2.02 -9 1 C-5.9167365 -0.54163175 -3.39121901 -0.29747535 0 0 Z " fill="#343434" transform="translate(35,26)"/>
<path d="M0 0 C0.66 0 1.32 0 2 0 C2.33 0.99 2.66 1.98 3 3 C6.37462715 2.45276317 8.08235 1.9451 11 0 C11.66 0.33 12.32 0.66 13 1 C13 3.31 13 5.62 13 8 C12.67 8 12.34 8 12 8 C12 6.35 12 4.7 12 3 C11.113125 3.66 10.22625 4.32 9.3125 5 C6.01888014 6.98860067 4.71748127 7.43735074 1 7 C0.67 4.69 0.34 2.38 0 0 Z " fill="#3A3A3A" transform="translate(191,69)"/>
<path d="M0 0 C3 2 3 2 3.8125 4.4375 C4 7 4 7 2 10 C2.66 10.33 3.32 10.66 4 11 C2.68 11 1.36 11 0 11 C-0.28875 10.195625 -0.5775 9.39125 -0.875 8.5625 C-1.73262568 5.8673532 -1.73262568 5.8673532 -4 5 C-3 2 -3 2 0 0 Z " fill="#333333" transform="translate(82,63)"/>
<path d="M0 0 C0.66 0 1.32 0 2 0 C2.33 1.98 2.66 3.96 3 6 C7.3164922 6.76173392 10.74433453 7.16063604 15 6 C14 8 14 8 12 10 C8.82798829 10.45314453 7.00734304 10.70191508 4 10 C1.09200217 7.4555019 0.09297943 6.04601863 -0.25 2.1875 C-0.1675 1.465625 -0.085 0.74375 0 0 Z " fill="#434343" transform="translate(130,104)"/>
<path d="M0 0 C0.99 0 1.98 0 3 0 C3 1.32 3 2.64 3 4 C3.66 4 4.32 4 5 4 C5 4.66 5 5.32 5 6 C8.3 5.34 11.6 4.68 15 4 C14.34 5.32 13.68 6.64 13 8 C4.91111111 8.62222222 4.91111111 8.62222222 1.4375 6.25 C0 4 0 4 0 0 Z " fill="#404040" transform="translate(163,106)"/>
<path d="M0 0 C2.625 0.375 2.625 0.375 5 1 C5.33 2.32 5.66 3.64 6 5 C3.03 5.66 0.06 6.32 -3 7 C-2.25 2.25 -2.25 2.25 0 0 Z " fill="#ECECEC" transform="translate(169,99)"/>
<path d="M0 0 C-0.33 0.66 -0.66 1.32 -1 2 C-1.66 1.67 -2.32 1.34 -3 1 C-3.2475 1.556875 -3.495 2.11375 -3.75 2.6875 C-5.66694931 6.23385622 -8.15738803 9.15738803 -11 12 C-11.66 10.35 -12.32 8.7 -13 7 C-12.34 7 -11.68 7 -11 7 C-10.38125 6.05125 -9.7625 5.1025 -9.125 4.125 C-6.33114814 0.01639433 -4.85944949 -1.6198165 0 0 Z " fill="#4C4C4C" transform="translate(147,50)"/>
<path d="M0 0 C1.65 0 3.3 0 5 0 C5.13277344 0.62648438 5.26554688 1.25296875 5.40234375 1.8984375 C5.57894531 2.71570313 5.75554687 3.53296875 5.9375 4.375 C6.19853516 5.59316406 6.19853516 5.59316406 6.46484375 6.8359375 C6.92330693 9.029463 6.92330693 9.029463 8 11 C6.68 11 5.36 11 4 11 C3.67 11.66 3.34 12.32 3 13 C2.8046875 11.01432292 2.609375 9.02864583 2.4140625 7.04296875 C2.07334609 4.70011858 2.07334609 4.70011858 0 2 C0 1.34 0 0.68 0 0 Z " fill="#585858" transform="translate(187,99)"/>
<path d="M0 0 C0 1.32 0 2.64 0 4 C-1 5 -1 5 -4.5625 5.0625 C-5.696875 5.041875 -6.83125 5.02125 -8 5 C-7.625 2.5625 -7.625 2.5625 -7 0 C-4.3333581 -1.33332095 -2.83319697 -0.67102033 0 0 Z " fill="#EDEDED" transform="translate(141,100)"/>
<path d="M0 0 C0.66 0.33 1.32 0.66 2 1 C2 5.29 2 9.58 2 14 C-2 12 -2 12 -3.25 9.375 C-3.4975 8.59125 -3.745 7.8075 -4 7 C-3.01 7 -2.02 7 -1 7 C-1.20625 6.21625 -1.4125 5.4325 -1.625 4.625 C-1.74875 3.75875 -1.8725 2.8925 -2 2 C-1.34 1.34 -0.68 0.68 0 0 Z " fill="#2F2F2F" transform="translate(180,61)"/>
<path d="M0 0 C1.32 0.66 2.64 1.32 4 2 C1.61820737 5.74281699 -0.74475735 8.97727468 -4 12 C-4 9 -4 6 -4 3 C-2 1.25 -2 1.25 0 0 Z " fill="#2D2D2D" transform="translate(33,55)"/>
<path d="M0 0 C2.625 0.375 2.625 0.375 5 1 C4.67 2.65 4.34 4.3 4 6 C1.69 6.33 -0.62 6.66 -3 7 C-2.25 2.25 -2.25 2.25 0 0 Z " fill="#EDEDED" transform="translate(208,99)"/>
<path d="M0 0 C0 0.99 0 1.98 0 3 C0.66 3.66 1.32 4.32 2 5 C-2.455 7.97 -2.455 7.97 -7 11 C-7.66 10.67 -8.32 10.34 -9 10 C-7.84906278 6.54718834 -6.6794007 5.61917837 -3.9375 3.3125 C-2.83728516 2.37857422 -2.83728516 2.37857422 -1.71484375 1.42578125 C-1.14894531 0.95527344 -0.58304688 0.48476562 0 0 Z " fill="#4C4C4C" transform="translate(101,65)"/>
<path d="M0 0 C0.33 1.32 0.66 2.64 1 4 C4.63 4.33 8.26 4.66 12 5 C12 5.33 12 5.66 12 6 C7.38 6.66 2.76 7.32 -2 8 C-2 6.02 -2 4.04 -2 2 C-1.34 2 -0.68 2 0 2 C0 1.34 0 0.68 0 0 Z " fill="#2F2F2F" transform="translate(54,46)"/>
<path d="M0 0 C0.66 0 1.32 0 2 0 C1.46884894 4.51478398 -0.36620292 7.34666857 -3 11 C-3.33 10.34 -3.66 9.68 -4 9 C-4.99 9 -5.98 9 -7 9 C-5.76465298 5.29395893 -3.80264776 3.66251537 -1 1 C-0.67 0.67 -0.34 0.34 0 0 Z " fill="#484848" transform="translate(245,54)"/>
<path d="M0 0 C0.74636719 0.0928125 1.49273437 0.185625 2.26171875 0.28125 C1.875 0.72855469 1.48828125 1.17585938 1.08984375 1.63671875 C-1.922182 5.1333526 -4.88149156 8.65532463 -7.73828125 12.28125 C-7.73828125 11.62125 -7.73828125 10.96125 -7.73828125 10.28125 C-8.39828125 9.95125 -9.05828125 9.62125 -9.73828125 9.28125 C-8.69587951 7.76721405 -7.62852804 6.27033298 -6.55078125 4.78125 C-5.95910156 3.9459375 -5.36742187 3.110625 -4.7578125 2.25 C-2.73828125 0.28125 -2.73828125 0.28125 0 0 Z " fill="#4B4B4B" transform="translate(159.73828125,52.71875)"/>
<path d="M0 0 C0.99 0 1.98 0 3 0 C2.88590407 1.45922693 2.75834456 2.91740598 2.625 4.375 C2.55539063 5.18710937 2.48578125 5.99921875 2.4140625 6.8359375 C2 9 2 9 0 11 C-0.99 11 -1.98 11 -3 11 C-2.01 7.37 -1.02 3.74 0 0 Z " fill="#2D2D2D" transform="translate(238,48)"/>
<path d="M0 0 C0.66 0 1.32 0 2 0 C1.41463247 3.66060821 -0.083239 5.54535164 -2.5625 8.25 C-3.20316406 8.95640625 -3.84382813 9.6628125 -4.50390625 10.390625 C-5.24447266 11.18726562 -5.24447266 11.18726562 -6 12 C-6.33 11.34 -6.66 10.68 -7 10 C-7.99 9.67 -8.98 9.34 -10 9 C-9.278125 8.814375 -8.55625 8.62875 -7.8125 8.4375 C-4.36981743 6.67790669 -3.12833769 4.67715136 -1.11328125 1.4609375 C-0.74589844 0.97882812 -0.37851562 0.49671875 0 0 Z " fill="#464646" transform="translate(263,62)"/>
<path d="M0 0 C0.99 0.99 1.98 1.98 3 3 C1.35 4.65 -0.3 6.3 -2 8 C-1.34 8.33 -0.68 8.66 0 9 C-4.75 11.875 -4.75 11.875 -7 13 C-7.33 11.68 -7.66 10.36 -8 9 C-7.50628906 8.60167969 -7.01257813 8.20335937 -6.50390625 7.79296875 C-5.86324219 7.26316406 -5.22257812 6.73335937 -4.5625 6.1875 C-3.92441406 5.66542969 -3.28632813 5.14335938 -2.62890625 4.60546875 C-0.7451725 2.99165589 -0.7451725 2.99165589 0 0 Z " fill="#4B4B4B" transform="translate(30,53)"/>
<path d="M0 0 C0.66 0.33 1.32 0.66 2 1 C2 1.66 2 2.32 2 3 C1.34 3 0.68 3 0 3 C-0.33 4.65 -0.66 6.3 -1 8 C0.32 8.33 1.64 8.66 3 9 C3 9.66 3 10.32 3 11 C2.01 11 1.02 11 0 11 C-0.33 11.66 -0.66 12.32 -1 13 C-1.33 11.02 -1.66 9.04 -2 7 C-2.66 7 -3.32 7 -4 7 C-3.43628586 3.73045798 -2.50037734 2.17424117 0 0 Z " fill="#606060" transform="translate(134,97)"/>
<path d="M0 0 C0.66 0 1.32 0 2 0 C2.02698189 1.62490954 2.04638757 3.24994633 2.0625 4.875 C2.07410156 5.77992187 2.08570313 6.68484375 2.09765625 7.6171875 C2 10 2 10 1 12 C0.34 12 -0.32 12 -1 12 C-1 1 -1 1 0 0 Z " fill="#3A3A3A" transform="translate(158,99)"/>
<path d="M0 0 C0.99 0.99 1.98 1.98 3 3 C1.35 4.98 -0.3 6.96 -2 9 C-2.33 8.34 -2.66 7.68 -3 7 C-4.32 7.33 -5.64 7.66 -7 8 C-5.61918777 3.8575633 -3.40174442 2.67796901 0 0 Z " fill="#4E4E4E" transform="translate(217,54)"/>
<path d="M0 0 C0.33 0.66 0.66 1.32 1 2 C2.2375 1.649375 3.475 1.29875 4.75 0.9375 C7.903292 0.04406727 9.86774164 -0.00881294 13 1 C12.01 1.33 11.02 1.66 10 2 C10.99 2.33 11.98 2.66 13 3 C12.67 4.32 12.34 5.64 12 7 C12 6.01 12 5.02 12 4 C9.36 4.33 6.72 4.66 4 5 C4 4.34 4 3.68 4 3 C2.68 3 1.36 3 0 3 C0 2.01 0 1.02 0 0 Z " fill="#666666" transform="translate(36,51)"/>
<path d="M0 0 C0.99 0 1.98 0 3 0 C2.45773019 3.79588866 0.79872437 5.47211993 -2 8 C-3.32 7.34 -4.64 6.68 -6 6 C-4.625 4.5 -4.625 4.5 -3 3 C-2.34 3 -1.68 3 -1 3 C-0.67 2.01 -0.34 1.02 0 0 Z " fill="#565656" transform="translate(121,46)"/>
<path d="M0 0 C-1.00313062 2.23775292 -1.84476835 3.8507388 -3.625 5.5625 C-5.34561132 7.02978279 -5.34561132 7.02978279 -5 10 C-5.99 9.67 -6.98 9.34 -8 9 C-7.64598897 5.81390075 -7.16972964 4.20933322 -5.125 1.6875 C-3 0 -3 0 0 0 Z " fill="#484848" transform="translate(117,53)"/>
<path d="M0 0 C0.66 1.32 1.32 2.64 2 4 C2.33 4.33 2.66 4.66 3 5 C2.71269945 7.33944736 2.38063221 9.6739143 2 12 C1.01 12 0.02 12 -1 12 C-0.67 8.04 -0.34 4.08 0 0 Z " fill="#515151" transform="translate(235,102)"/>
<path d="M0 0 C0 2.64 0 5.28 0 8 C-0.99 8 -1.98 8 -3 8 C-4.6875 6 -4.6875 6 -6 4 C-2.25 0 -2.25 0 0 0 Z " fill="#E6E6E6" transform="translate(162,54)"/>
<path d="M0 0 C1.98 0 3.96 0 6 0 C4.63016497 3.16115776 4.0109362 3.9927092 1 6 C0.01 5.34 -0.98 4.68 -2 4 C-1.34 2.68 -0.68 1.36 0 0 Z " fill="#3B3B3B" transform="translate(187,50)"/>
<path d="M0 0 C2.62187494 1.04874998 3.79371361 1.64931313 5.25 4.125 C5.4975 4.74375 5.745 5.3625 6 6 C5.34 6 4.68 6 4 6 C3.67 7.32 3.34 8.64 3 10 C2.34 8.68 1.68 7.36 1 6 C0.34 6 -0.32 6 -1 6 C-0.67 4.02 -0.34 2.04 0 0 Z " fill="#3E3E3E" transform="translate(103,60)"/>
<path d="M0 0 C-0.99 2.97 -1.98 5.94 -3 9 C-1.68 9.66 -0.36 10.32 1 11 C-0.65 11 -2.3 11 -4 11 C-5.34516765 4.64102564 -5.34516765 4.64102564 -3.6875 1.5625 C-2 0 -2 0 0 0 Z " fill="#4F4F4F" transform="translate(150,116)"/>
<path d="M0 0 C0 0.33 0 0.66 0 1 C-1.65 1.33 -3.3 1.66 -5 2 C-5.66 5.96 -6.32 9.92 -7 14 C-7.33 14 -7.66 14 -8 14 C-8.24915939 12.23186888 -8.47366632 10.46025018 -8.6875 8.6875 C-8.81511719 7.70136719 -8.94273437 6.71523437 -9.07421875 5.69921875 C-9 3 -9 3 -7.71875 1.15625 C-5.17780353 -0.55311399 -2.97969016 -0.19864601 0 0 Z " fill="#6A6A6A" transform="translate(228,97)"/>
<path d="M0 0 C-0.66 2.31 -1.32 4.62 -2 7 C-3.65 7.33 -5.3 7.66 -7 8 C-4.18918919 0 -4.18918919 0 0 0 Z " fill="#444444" transform="translate(117,31)"/>
<path d="M0 0 C3 3 3 3 3.5 5.5 C3 8 3 8 0.5 9.8125 C-0.325 10.204375 -1.15 10.59625 -2 11 C-1.34 7.37 -0.68 3.74 0 0 Z " fill="#474747" transform="translate(108,42)"/>
<path d="M0 0 C0.66 0 1.32 0 2 0 C1.67 1.98 1.34 3.96 1 6 C-0.32 6.33 -1.64 6.66 -3 7 C-3.33 5.68 -3.66 4.36 -4 3 C-2.68 3 -1.36 3 0 3 C0 2.01 0 1.02 0 0 Z " fill="#383838" transform="translate(195,107)"/>
<path d="M0 0 C-2 2 -2 2 -5.5625 2.5 C-7.2640625 2.7475 -7.2640625 2.7475 -9 3 C-9.33 3.66 -9.66 4.32 -10 5 C-10 3.68 -10 2.36 -10 1 C-3.375 -1.125 -3.375 -1.125 0 0 Z " fill="#5C5C5C" transform="translate(176,105)"/>
<path d="M0 0 C0.66 0.33 1.32 0.66 2 1 C1.67 2.65 1.34 4.3 1 6 C-0.98 6 -2.96 6 -5 6 C-5 5.34 -5 4.68 -5 4 C-3.37373596 2.61767557 -1.7074998 1.28062485 0 0 Z " fill="#333333" transform="translate(23,74)"/>
<path d="M0 0 C-1.32 0.33 -2.64 0.66 -4 1 C-3.67 1.99 -3.34 2.98 -3 4 C-5.31 4 -7.62 4 -10 4 C-9.67 3.01 -9.34 2.02 -9 1 C-6.04335481 -0.4783226 -3.25770263 -0.06032783 0 0 Z " fill="#5F5F5F" transform="translate(35,26)"/>
<path d="M0 0 C0.99 0 1.98 0 3 0 C3 0.99 3 1.98 3 3 C3.99 3 4.98 3 6 3 C6 3.66 6 4.32 6 5 C4.02 5 2.04 5 0 5 C-0.5625 3.0625 -0.5625 3.0625 -1 1 C-0.67 0.67 -0.34 0.34 0 0 Z " fill="#393939" transform="translate(250,69)"/>
<path d="M0 0 C0.66 1.32 1.32 2.64 2 4 C1.01 4.495 1.01 4.495 0 5 C0 5.99 0 6.98 0 8 C-1.875 8.625 -1.875 8.625 -4 9 C-4.66 8.34 -5.32 7.68 -6 7 C-5.195625 6.21625 -4.39125 5.4325 -3.5625 4.625 C-1.01309583 2.28017144 -1.01309583 2.28017144 0 0 Z " fill="#4A4A4A" transform="translate(177,64)"/>
<path d="M0 0 C-0.33 1.32 -0.66 2.64 -1 4 C-3.64 4 -6.28 4 -9 4 C-9 3.34 -9 2.68 -9 2 C-2.25 0 -2.25 0 0 0 Z " fill="#474747" transform="translate(216,110)"/>
<path d="M0 0 C0.33 0 0.66 0 1 0 C0.79375 1.11375 0.5875 2.2275 0.375 3.375 C0.25125 4.57125 0.1275 5.7675 0 7 C0.66 7.66 1.32 8.32 2 9 C0.35 8.67 -1.3 8.34 -3 8 C-3.33 6.68 -3.66 5.36 -4 4 C-2.68 4 -1.36 4 0 4 C0 2.68 0 1.36 0 0 Z " fill="#565656" transform="translate(127,66)"/>
<path d="M0 0 C0.66 0 1.32 0 2 0 C0.82744291 3.33727786 -0.18868404 5.77437487 -3 8 C-3.66 8 -4.32 8 -5 8 C-3.63055898 5.05043472 -2.12169591 2.47531189 0 0 Z " fill="#4F4F4F" transform="translate(66,23)"/>
<path d="M0 0 C0.66 0.66 1.32 1.32 2 2 C1.875 4 1.875 4 1 6 C-0.8125 7.375 -0.8125 7.375 -3 8 C-5.25 7.125 -5.25 7.125 -7 6 C-6.21625 5.938125 -5.4325 5.87625 -4.625 5.8125 C-3.75875 5.544375 -2.8925 5.27625 -2 5 C-0.62533375 2.52363988 -0.62533375 2.52363988 0 0 Z " fill="#5E5E5E" transform="translate(214,99)"/>
<path d="M0 0 C0.33 0 0.66 0 1 0 C1.33 2.31 1.66 4.62 2 7 C1.01 7.33 0.02 7.66 -1 8 C-1.66 8.66 -2.32 9.32 -3 10 C-3.33 8.35 -3.66 6.7 -4 5 C-3.01 4.67 -2.02 4.34 -1 4 C-0.26676204 1.98491642 -0.26676204 1.98491642 0 0 Z " fill="#4D4D4D" transform="translate(68,64)"/>
<path d="M0 0 C0.99 1.32 1.98 2.64 3 4 C2.01 4.33 1.02 4.66 0 5 C-0.66 5.66 -1.32 6.32 -2 7 C-3.32 6.67 -4.64 6.34 -6 6 C-4.02 4.02 -2.04 2.04 0 0 Z " fill="#DFDFDF" transform="translate(192,52)"/>
<path d="M0 0 C0.66 0.33 1.32 0.66 2 1 C2.1875 3.875 2.1875 3.875 2 7 C1.01 7.66 0.02 8.32 -1 9 C-1.125 2.25 -1.125 2.25 0 0 Z " fill="#414141" transform="translate(95,49)"/>
<path d="M0 0 C-0.33 0.99 -0.66 1.98 -1 3 C-1.33 2.67 -1.66 2.34 -2 2 C-2.66 2.66 -3.32 3.32 -4 4 C-4 3.01 -4 2.02 -4 1 C-6.97 1 -9.94 1 -13 1 C-13 0.67 -13 0.34 -13 0 C-11.58456585 -0.19658808 -10.16755969 -0.38187546 -8.75 -0.5625 C-7.96109375 -0.66691406 -7.1721875 -0.77132812 -6.359375 -0.87890625 C-3.99467126 -1.00027349 -2.2488963 -0.69633257 0 0 Z " fill="#484848" transform="translate(72,50)"/>
<path d="M0 0 C0.99 0.33 1.98 0.66 3 1 C3 3.31 3 5.62 3 8 C2.67 8 2.34 8 2 8 C2 6.35 2 4.7 2 3 C0.02 3.99 0.02 3.99 -2 5 C-2.66 4.34 -3.32 3.68 -4 3 C-2.1875 1.4375 -2.1875 1.4375 0 0 Z " fill="#606060" transform="translate(201,69)"/>
<path d="M0 0 C0.66 0 1.32 0 2 0 C2.66 2.31 3.32 4.62 4 7 C3.01 7 2.02 7 1 7 C0.67 4.69 0.34 2.38 0 0 Z " fill="#2F2F2F" transform="translate(130,104)"/>
<path d="M0 0 C0.66 0.99 1.32 1.98 2 3 C0.35 4.65 -1.3 6.3 -3 8 C-3 6.35 -3 4.7 -3 3 C-2.34 3 -1.68 3 -1 3 C-0.67 2.01 -0.34 1.02 0 0 Z " fill="#494949" transform="translate(77,66)"/>
<path d="M0 0 C1.9375 0.8125 1.9375 0.8125 4 2 C4.33 2.99 4.66 3.98 5 5 C4.01 5.495 4.01 5.495 3 6 C1.68 5.01 0.36 4.02 -1 3 C-0.67 2.01 -0.34 1.02 0 0 Z " fill="#404040" transform="translate(115,65)"/>
<path d="M0 0 C0.66 0 1.32 0 2 0 C1.67 1.65 1.34 3.3 1 5 C0.01 4.67 -0.98 4.34 -2 4 C-2 4.66 -2 5.32 -2 6 C-2.66 5.67 -3.32 5.34 -4 5 C-2.71937515 3.2925002 -1.38232443 1.62626404 0 0 Z " fill="#404040" transform="translate(21,63)"/>
<path d="M0 0 C0.66 0 1.32 0 2 0 C3.625 2.5 3.625 2.5 5 5 C4.34 5.66 3.68 6.32 3 7 C1.29159719 5.36587557 0.06546953 4.13093906 -1 2 C-0.67 1.34 -0.34 0.68 0 0 Z " fill="#2A2A2A" transform="translate(105,58)"/>
<path d="M0 0 C0.33 0.66 0.66 1.32 1 2 C1.99 2.33 2.98 2.66 4 3 C2.35 4.65 0.7 6.3 -1 8 C-0.67 5.36 -0.34 2.72 0 0 Z " fill="#E4E4E4" transform="translate(110,50)"/>
<path d="M0 0 C-0.75 1.9375 -0.75 1.9375 -2 4 C-4.125 4.75 -4.125 4.75 -6 5 C-5.6875 3.0625 -5.6875 3.0625 -5 1 C-2 0 -2 0 0 0 Z " fill="#3A3A3A" transform="translate(76,45)"/>
<path d="M0 0 C2.125 0.375 2.125 0.375 4 1 C3.67 1.99 3.34 2.98 3 4 C1.35 4 -0.3 4 -2 4 C-2 2 -2 2 0 0 Z " fill="#313131" transform="translate(89,72)"/>
<path d="M0 0 C0.66 0 1.32 0 2 0 C1.67 1.98 1.34 3.96 1 6 C0.01 6 -0.98 6 -2 6 C-2.33 5.01 -2.66 4.02 -3 3 C-2.34 3 -1.68 3 -1 3 C-0.67 2.01 -0.34 1.02 0 0 Z " fill="#3C3C3C" transform="translate(150,63)"/>
<path d="M0 0 C-1.29299694 2.88437779 -2.65941363 4.87219421 -5 7 C-4.625 4.0625 -4.625 4.0625 -4 1 C-2 0 -2 0 0 0 Z " fill="#E1E1E1" transform="translate(140,51)"/>
</svg>
