<?xml version="1.0" standalone="no"?>
<!DOCTYPE svg PUBLIC "-//W3C//DTD SVG 20010904//EN"
 "http://www.w3.org/TR/2001/REC-SVG-20010904/DTD/svg10.dtd">
<svg version="1.0" xmlns="http://www.w3.org/2000/svg"
 width="280.000000pt" height="150.000000pt" viewBox="0 0 280.000000 150.000000"
 preserveAspectRatio="xMidYMid meet">

<g transform="translate(0.000000,150.000000) scale(0.100000,-0.100000)"
fill="#000000" stroke="none">
<path d="M231 953 c-79 -142 -79 -143 -47 -143 19 0 32 8 44 30 16 29 19 30
89 30 70 0 73 -1 88 -30 11 -21 23 -30 40 -30 14 0 25 5 25 10 0 6 -28 62 -62
125 -56 101 -66 115 -90 115 -23 0 -33 -13 -87 -107z m112 2 c9 -20 17 -38 17
-40 0 -3 -20 -5 -45 -5 l-45 0 20 40 c11 22 24 40 28 40 5 0 16 -16 25 -35z"/>
<path d="M462 1033 c3 -28 4 -28 81 -31 l77 -3 0 -94 c0 -95 0 -95 25 -95 25
0 25 0 25 95 l0 94 78 3 c76 3 77 3 80 31 l3 27 -186 0 -186 0 3 -27z"/>
<path d="M890 934 l0 -125 28 3 27 3 3 123 3 122 -31 0 -30 0 0 -126z"/>
<path d="M1010 1031 c0 -28 1 -29 39 -24 22 3 56 2 75 -1 l35 -7 3 -92 c3 -91
3 -92 28 -92 25 0 25 1 28 93 l3 92 74 0 75 0 0 30 0 30 -180 0 -180 0 0 -29z"/>
<path d="M1430 945 c0 -103 2 -115 19 -125 29 -15 324 -13 339 2 8 8 12 50 12
125 l0 113 -30 0 -30 0 0 -100 0 -100 -125 0 -125 0 0 100 0 100 -30 0 -30 0
0 -115z"/>
<path d="M1862 938 l3 -123 154 -3 c203 -3 201 -5 201 122 0 129 5 126 -199
126 l-162 0 3 -122z m298 -8 l0 -70 -120 0 -120 0 0 70 0 70 120 0 120 0 0
-70z"/>
<path d="M2282 938 l3 -123 169 -3 c93 -1 173 1 178 6 5 5 6 16 2 25 -5 15
-25 17 -150 17 l-144 0 0 25 0 25 140 0 140 0 0 25 0 25 -140 0 c-133 0 -140
1 -140 20 0 19 7 20 136 20 l135 0 -3 28 -3 27 -163 3 -163 2 3 -122z"/>
<path d="M1084 731 c-56 -24 -80 -101 -50 -159 21 -40 77 -65 125 -56 32 7 89
49 80 59 -4 3 -18 -5 -32 -19 -29 -29 -78 -34 -122 -14 -28 13 -60 62 -50 78
3 5 52 9 108 8 96 -1 102 1 105 20 2 12 -9 34 -25 52 -22 25 -39 33 -73 36
-25 2 -55 0 -66 -5z m121 -31 c13 -12 25 -30 28 -41 5 -18 -1 -19 -94 -19 -89
0 -99 2 -99 18 0 19 33 55 60 65 27 11 82 -2 105 -23z"/>
<path d="M1406 667 c-19 -41 -37 -85 -41 -96 -3 -12 -9 -21 -13 -21 -4 0 -23
41 -42 90 -19 50 -38 90 -42 90 -11 0 -12 4 32 -106 l41 -99 -17 -43 c-9 -24
-14 -45 -12 -48 3 -2 36 63 73 146 37 83 65 153 62 156 -4 4 -22 -27 -41 -69z"/>
<path d="M1485 707 c-107 -107 41 -258 161 -162 16 13 26 26 23 30 -4 3 -18
-5 -32 -19 -47 -47 -134 -31 -166 32 -19 37 -5 43 92 42 51 -1 98 -1 105 -1
21 1 13 40 -16 72 -23 26 -38 33 -80 37 -49 4 -54 2 -87 -31z m135 1 c18 -13
37 -33 41 -45 8 -23 8 -23 -96 -23 -95 0 -104 2 -98 18 24 67 94 90 153 50z"/>
<path d="M1973 720 c-5 -14 -20 -54 -33 -90 -13 -36 -26 -69 -30 -73 -4 -4
-19 26 -34 68 -16 41 -32 75 -36 75 -8 0 -35 -64 -55 -129 -9 -31 -17 -20 -50
72 -24 67 -45 105 -45 81 0 -22 77 -203 85 -201 5 2 21 36 35 75 14 40 27 72
30 72 3 0 16 -32 30 -71 14 -39 29 -72 35 -73 11 -1 88 192 82 208 -3 6 -9 0
-14 -14z"/>
<path d="M2064 730 c-37 -15 -64 -59 -64 -106 0 -76 73 -125 154 -103 19 5 42
19 50 31 22 31 12 33 -17 4 -29 -29 -78 -34 -122 -14 -28 13 -60 62 -50 78 3
5 47 9 98 9 51 0 98 0 105 0 23 2 12 43 -22 77 -27 27 -42 34 -72 33 -22 0
-49 -4 -60 -9z m129 -40 c15 -17 27 -35 27 -40 0 -6 -43 -10 -105 -10 -58 0
-105 3 -105 6 0 17 25 48 53 65 44 27 93 19 130 -21z"/>
<path d="M2285 707 c-39 -39 -46 -86 -21 -135 29 -57 121 -74 176 -33 l29 21
4 -23 c2 -12 4 28 4 88 1 61 -1 102 -4 93 -6 -22 -12 -22 -35 -2 -10 10 -40
19 -68 22 -46 4 -52 2 -85 -31z m135 1 c85 -58 49 -178 -52 -178 -94 1 -142
106 -75 167 42 39 81 42 127 11z"/>
<path d="M2572 724 c-12 -8 -22 -10 -22 -5 0 6 -4 11 -10 11 -6 0 -10 -42 -10
-107 0 -125 17 -132 22 -8 3 78 4 80 37 102 19 13 28 23 20 23 -8 0 -25 -7
-37 -16z"/>
</g>
</svg>
