<?xml version="1.0" standalone="no"?>
<!DOCTYPE svg PUBLIC "-//W3C//DTD SVG 20010904//EN"
 "http://www.w3.org/TR/2001/REC-SVG-20010904/DTD/svg10.dtd">
<svg version="1.0" xmlns="http://www.w3.org/2000/svg"
 width="280.000000pt" height="150.000000pt" viewBox="0 0 280.000000 150.000000"
 preserveAspectRatio="xMidYMid meet">

<g transform="translate(0.000000,150.000000) scale(0.100000,-0.100000)"
fill="#000000" stroke="none">
<path d="M1040 1370 c0 -6 106 -11 293 -12 l292 -3 -264 -2 -263 -3 4 -168 c3
-147 6 -172 25 -208 29 -55 80 -98 170 -142 l74 -37 73 39 c90 47 141 93 166
149 16 36 19 70 20 210 l2 167 34 0 c19 0 34 5 34 10 0 6 -117 10 -330 10
-213 0 -330 -4 -330 -10z m541 -62 c8 -14 10 -62 7 -147 -4 -104 -9 -133 -27
-169 -22 -44 -74 -88 -151 -127 l-45 -23 -66 39 c-78 45 -124 94 -138 146 -12
41 -15 261 -5 287 5 14 33 16 210 16 198 0 204 -1 215 -22z"/>
<path d="M1260 1125 l0 -175 96 0 c96 0 96 0 130 34 24 24 34 43 34 64 0 34
-42 92 -67 92 -10 0 -4 10 16 29 33 31 38 50 21 82 -19 34 -64 49 -150 49
l-80 0 0 -175z m172 135 c21 -26 23 -59 4 -85 -9 -13 -30 -20 -70 -23 l-56 -4
0 72 0 73 52 -5 c38 -4 57 -12 70 -28z m-4 -140 c19 -12 33 -29 34 -42 3 -44
-4 -73 -19 -90 -21 -23 -78 -33 -109 -19 -22 10 -24 16 -24 91 l0 80 43 0 c24
0 56 -8 75 -20z"/>
<path d="M383 602 c-23 -3 -23 -6 -23 -148 l0 -144 81 0 c76 0 82 2 110 29 38
38 38 75 0 110 -29 27 -29 28 -10 44 37 32 17 91 -34 101 -38 8 -101 12 -124
8z m119 -29 c10 -9 18 -26 18 -39 0 -35 -26 -54 -76 -54 l-44 0 0 55 0 55 42
0 c24 0 49 -7 60 -17z m8 -128 c29 -26 27 -89 -2 -109 -27 -19 -79 -21 -96 -4
-7 7 -12 40 -12 76 l0 65 45 -6 c25 -2 55 -13 65 -22z"/>
<path d="M1535 595 c-95 -34 -130 -156 -71 -241 34 -49 125 -67 207 -42 39 11
39 11 39 65 l0 53 -37 -1 c-21 -1 -30 -3 -20 -6 15 -4 17 -13 15 -51 -3 -45
-4 -47 -41 -56 -76 -19 -147 45 -147 132 0 88 48 142 125 142 46 0 71 -13 89
-48 l15 -27 1 31 c0 28 -5 34 -40 48 -49 19 -82 20 -135 1z"/>
<path d="M710 493 c0 -66 5 -118 13 -133 29 -59 145 -79 208 -37 45 30 58 71
58 185 1 75 -2 92 -14 92 -12 0 -15 -19 -15 -109 0 -93 -3 -112 -20 -134 -38
-49 -151 -42 -179 11 -6 12 -11 68 -11 126 0 99 -1 106 -20 106 -19 0 -20 -7
-20 -107z"/>
<path d="M1147 593 c-4 -3 -7 -69 -7 -145 l0 -138 93 2 c50 1 70 3 42 5 -102
7 -95 -5 -95 148 0 106 -3 135 -13 135 -8 0 -17 -3 -20 -7z"/>
<path d="M1870 455 l0 -145 103 2 102 2 -80 5 -80 6 -3 63 -3 62 61 0 c33 0
60 4 60 10 0 6 -27 10 -60 10 l-60 0 0 55 0 55 70 0 c40 0 70 4 70 10 0 6 -37
10 -90 10 l-90 0 0 -145z"/>
<path d="M2170 590 c0 -6 27 -10 60 -10 l60 0 0 -135 c0 -128 1 -135 20 -135
19 0 20 7 20 135 l0 135 60 0 c33 0 60 4 60 10 0 6 -53 10 -140 10 -87 0 -140
-4 -140 -10z"/>
<path d="M722 163 c2 -26 8 -38 18 -38 10 0 16 12 18 38 3 32 0 37 -18 37 -18
0 -21 -5 -18 -37z m25 -3 c2 -11 -2 -20 -7 -20 -6 0 -10 12 -10 27 0 29 12 24
17 -7z"/>
<path d="M914 185 c-9 -23 5 -65 21 -65 8 0 15 8 15 18 0 14 -2 15 -10 2 -7
-11 -10 -7 -10 18 0 20 4 31 10 27 6 -3 10 -1 10 4 0 17 -30 13 -36 -4z"/>
<path d="M1112 163 c3 -37 26 -54 36 -25 2 7 -2 10 -12 6 -12 -5 -16 0 -16 20
0 18 4 24 15 20 8 -4 15 -1 15 5 0 6 -9 11 -21 11 -17 0 -20 -5 -17 -37z"/>
<path d="M1312 160 c0 -25 2 -37 5 -27 5 18 5 18 19 0 12 -16 13 -14 14 25 0
39 -19 63 -21 25 0 -15 -2 -15 -9 2 -6 15 -8 9 -8 -25z"/>
<path d="M1500 166 c0 -19 5 -38 10 -41 6 -4 10 10 10 34 0 23 -4 41 -10 41
-5 0 -10 -15 -10 -34z"/>
<path d="M1687 193 c-4 -3 -7 -22 -6 -42 0 -20 3 -30 6 -23 4 10 8 10 21 0 13
-11 15 -10 9 12 -4 14 -7 33 -7 43 0 17 -11 22 -23 10z"/>
<path d="M1872 163 c2 -29 8 -38 23 -40 11 -2 14 0 8 3 -7 3 -13 21 -13 40 0
19 -5 34 -11 34 -6 0 -9 -16 -7 -37z"/>
<path d="M2060 166 c0 -19 5 -38 10 -41 6 -4 10 10 10 34 0 23 -4 41 -10 41
-5 0 -10 -15 -10 -34z"/>
</g>
</svg>
