<?xml version="1.0" standalone="no"?>
<!DOCTYPE svg PUBLIC "-//W3C//DTD SVG 20010904//EN"
 "http://www.w3.org/TR/2001/REC-SVG-20010904/DTD/svg10.dtd">
<svg version="1.0" xmlns="http://www.w3.org/2000/svg"
 width="1920.000000pt" height="1080.000000pt" viewBox="0 0 1920.000000 1080.000000"
 preserveAspectRatio="xMidYMid meet">

<g transform="translate(0.000000,1080.000000) scale(0.100000,-0.100000)"
fill="#000000" stroke="none">
<path d="M1578 6829 c-398 -34 -787 -243 -1043 -564 -151 -188 -258 -421 -307
-668 -28 -145 -31 -396 -4 -532 112 -584 522 -1036 1088 -1199 561 -162 1199
43 1553 499 66 85 162 225 171 250 5 13 -16 15 -152 15 l-159 -1 -40 -51 c-71
-92 -220 -232 -311 -295 -147 -100 -272 -154 -434 -189 -102 -21 -323 -24
-420 -5 -333 65 -618 259 -817 556 -86 129 -154 294 -188 460 -19 93 -22 297
-6 396 63 386 326 754 669 937 100 53 264 107 371 123 126 18 332 7 454 -25
116 -30 279 -105 374 -173 83 -59 216 -185 285 -270 l51 -63 159 0 c87 0 158
3 158 6 0 13 -104 178 -159 252 -216 291 -641 511 -1044 540 -141 11 -135 11
-249 1z"/>
<path d="M5634 6765 c-2 -5 -3 -649 -2 -1430 l3 -1420 135 0 135 0 3 1427 2
1427 -136 3 c-85 2 -138 -1 -140 -7z"/>
<path d="M8114 6771 c-2 -2 -4 -109 -4 -238 l0 -233 140 0 140 0 0 235 0 235
-27 1 c-161 3 -245 3 -249 0z"/>
<path d="M11595 6769 c-3 -8 -4 -653 -3 -1434 l3 -1420 115 -3 c63 -1 125 0
138 3 l22 5 0 390 0 390 181 225 c100 124 184 225 188 224 3 0 204 -266 446
-591 242 -324 452 -603 466 -618 l26 -29 172 1 c94 0 171 2 171 3 0 2 -78 107
-173 232 -95 125 -310 410 -478 633 -168 223 -338 447 -378 499 -39 52 -70
100 -67 107 5 13 1034 1312 1073 1355 12 14 23 28 23 31 0 4 -19 5 -42 3 -24
-1 -106 -4 -183 -4 l-140 -2 -261 -332 c-143 -183 -431 -549 -640 -814 l-379
-482 -3 814 -2 815 -74 0 c-40 0 -101 3 -134 6 -48 5 -63 4 -67 -7z"/>
<path d="M13624 6771 c-2 -2 -4 -644 -4 -1427 0 -1128 3 -1423 13 -1426 6 -3
68 -5 137 -4 l125 1 0 1429 0 1428 -133 2 c-74 0 -136 -1 -138 -3z"/>
<path d="M16540 6530 l0 -240 140 0 140 0 0 240 0 240 -140 0 -140 0 0 -240z"/>
<path d="M4042 6066 c-412 -79 -738 -356 -868 -740 -73 -215 -73 -487 0 -702
165 -486 634 -791 1154 -752 245 18 482 141 652 339 l60 70 0 -180 c0 -162 2
-179 18 -183 29 -7 211 -10 232 -3 20 6 20 15 20 1061 l0 1054 -135 0 -135 0
0 -181 0 -181 -92 95 c-148 150 -312 246 -500 293 -88 21 -314 27 -406 10z
m368 -258 c147 -37 272 -110 381 -224 107 -113 175 -230 220 -379 32 -109 37
-304 10 -417 -54 -227 -180 -415 -360 -537 -488 -332 -1146 -41 -1267 558 -22
111 -15 295 15 396 117 393 467 653 846 628 44 -3 114 -14 155 -25z"/>
<path d="M9455 6062 c-140 -36 -252 -102 -397 -233 l-78 -70 0 135 0 136 -130
0 -130 0 0 -1060 0 -1061 138 3 137 3 5 715 5 715 31 76 c79 195 235 339 428
394 77 23 230 23 315 1 188 -48 334 -184 419 -389 61 -145 62 -163 62 -866 0
-573 2 -639 16 -645 20 -8 218 -8 238 0 14 6 16 67 16 588 0 325 -5 629 -10
691 -43 450 -280 757 -661 855 -118 31 -309 36 -404 12z"/>
<path d="M15029 6064 c-400 -69 -751 -368 -877 -749 -73 -219 -73 -475 0 -690
101 -297 349 -558 642 -675 159 -64 213 -74 416 -74 210 -1 289 14 450 83 179
77 371 232 465 376 42 64 135 246 135 264 0 8 -46 11 -144 11 l-144 0 -27 -47
c-91 -160 -233 -296 -380 -369 -111 -54 -183 -73 -302 -81 -256 -16 -524 98
-688 295 -90 107 -146 236 -189 435 l-6 27 975 0 975 0 0 71 c0 233 -79 485
-208 669 -241 341 -683 525 -1093 454z m396 -255 c97 -23 240 -92 317 -153 82
-65 161 -166 213 -271 39 -79 85 -216 85 -252 0 -10 -165 -13 -824 -13 l-825
0 19 63 c92 315 318 551 600 627 121 32 276 32 415 -1z"/>
<path d="M17915 6071 c-162 -36 -314 -123 -445 -255 -30 -31 -58 -56 -62 -56
-4 0 -8 61 -8 135 l0 135 -130 0 -130 0 2 -1057 3 -1058 135 0 135 0 5 715 5
715 29 70 c108 263 333 419 601 418 301 -2 525 -190 617 -518 22 -78 23 -95
28 -740 l5 -660 130 0 130 0 3 565 c3 593 -3 742 -38 889 -84 351 -314 598
-635 681 -89 23 -312 35 -380 21z"/>
<path d="M5990 6025 c0 -6 -8 14 490 -1210 199 -489 367 -893 373 -896 14 -10
260 -11 273 -2 6 5 43 87 82 183 51 125 724 1783 779 1918 4 9 -27 12 -133 12
l-139 0 -87 -213 c-449 -1097 -638 -1552 -644 -1550 -4 1 -167 398 -362 882
l-355 881 -139 0 c-76 0 -138 -2 -138 -5z"/>
<path d="M8112 4973 l3 -1058 135 0 135 0 3 1058 2 1057 -140 0 -140 0 2
-1057z"/>
<path d="M16542 4973 l3 -1058 135 0 135 0 3 1058 2 1057 -140 0 -140 0 2
-1057z"/>
</g>
</svg>
