<?xml version="1.0" standalone="no"?>
<!DOCTYPE svg PUBLIC "-//W3C//DTD SVG 20010904//EN"
 "http://www.w3.org/TR/2001/REC-SVG-20010904/DTD/svg10.dtd">
<svg version="1.0" xmlns="http://www.w3.org/2000/svg"
 width="280.000000pt" height="150.000000pt" viewBox="0 0 280.000000 150.000000"
 preserveAspectRatio="xMidYMid meet">

<g transform="translate(0.000000,150.000000) scale(0.100000,-0.100000)"
fill="#000000" stroke="none">
<path d="M1655 1324 c-431 -29 -875 -181 -875 -299 l0 -24 275 -3 c242 -3 274
-1 268 12 -50 112 56 197 275 219 102 11 258 -2 357 -28 l70 -18 47 24 c26 13
89 34 140 47 l93 23 -65 12 c-167 30 -426 45 -585 35z"/>
<path d="M830 950 c33 -18 60 -19 406 -20 358 0 372 1 389 20 18 20 17 20
-406 20 -423 -1 -424 -1 -389 -20z"/>
<path d="M951 905 c15 -14 221 -37 389 -42 l195 -5 24 26 24 26 -318 0 c-175
0 -316 -2 -314 -5z"/>
<path d="M333 696 c-94 -44 -182 -154 -183 -228 0 -17 12 -41 29 -60 l29 -33
174 -3 c165 -3 175 -2 192 17 16 18 31 21 104 21 79 0 84 -1 79 -20 -5 -19 0
-20 76 -20 l82 1 80 124 c79 123 80 125 118 125 20 0 37 -4 37 -8 0 -17 -25
-32 -52 -32 -23 0 -34 -9 -58 -47 -39 -61 -38 -93 1 -132 l31 -31 117 0 117 0
82 125 c79 122 82 125 117 125 29 0 36 -3 33 -17 -2 -12 -15 -20 -41 -23 -31
-4 -43 -13 -67 -50 -39 -58 -38 -84 4 -126 l34 -34 175 0 174 0 25 38 c14 20
25 41 24 46 -1 5 -23 9 -49 10 -38 0 -47 3 -45 15 2 12 19 17 68 19 64 3 65 3
92 45 l27 42 -55 3 c-78 4 -66 26 17 30 l64 3 32 50 32 49 -127 0 -127 0 -80
-123 c-44 -67 -84 -125 -90 -129 -24 -18 -105 -1 -105 21 0 5 15 11 32 15 72
14 138 84 138 145 0 12 -11 33 -25 46 -23 24 -30 25 -144 25 l-120 0 -86 -131
-85 -130 -45 5 c-24 2 -49 7 -55 11 -16 10 -12 25 8 25 34 1 100 38 124 71 41
56 44 85 9 119 -29 30 -30 30 -146 30 l-116 0 -71 -110 c-39 -60 -73 -110 -77
-110 -3 0 -5 49 -3 110 l3 110 -45 0 c-45 0 -48 -2 -178 -130 l-133 -129 -77
-1 c-86 0 -128 12 -128 36 0 25 29 67 68 97 33 25 41 27 136 27 l102 0 49 50
49 50 -159 0 c-148 0 -164 -2 -212 -24z m424 -158 c-2 -29 -6 -33 -34 -36 -18
-2 -33 -1 -33 1 0 8 54 67 61 67 4 0 7 -15 6 -32z"/>
<path d="M2020 603 c-41 -64 -92 -142 -113 -174 l-37 -59 67 0 68 0 80 125
c79 124 80 125 118 125 20 0 37 -4 37 -8 0 -16 -25 -32 -51 -32 -21 0 -33 -10
-58 -48 -40 -62 -39 -86 3 -128 34 -34 34 -34 128 -34 82 0 97 3 113 20 15 17
31 20 97 20 71 0 78 -2 78 -20 0 -17 7 -20 50 -20 l50 0 0 175 0 175 -44 0
c-43 0 -46 -2 -169 -131 -124 -129 -126 -130 -162 -125 -68 11 -73 27 -15 45
82 25 143 106 120 161 -17 41 -49 50 -173 49 l-112 0 -75 -116z m526 -89 c-3
-8 -19 -14 -38 -14 l-32 0 35 36 c32 33 34 34 37 14 2 -12 1 -28 -2 -36z"/>
<path d="M450 230 c0 -18 7 -20 55 -20 42 0 55 -3 55 -15 0 -18 -80 -21 -97
-4 -8 8 -13 8 -18 0 -9 -16 16 -23 76 -19 46 3 54 6 54 23 0 17 -8 20 -52 23
-29 2 -53 8 -53 14 0 7 20 9 55 6 30 -3 55 -1 55 4 0 4 -29 8 -65 8 -58 0 -65
-2 -65 -20z"/>
<path d="M652 213 l3 -38 65 0 65 0 3 38 c2 21 -1 37 -7 37 -6 0 -11 -13 -11
-29 0 -32 -10 -38 -60 -37 -32 1 -35 4 -38 34 -2 17 -8 32 -13 32 -6 0 -9 -17
-7 -37z"/>
<path d="M860 210 c0 -22 5 -40 10 -40 6 0 10 14 10 30 0 17 2 30 3 30 2 0 28
-13 58 -30 30 -16 57 -30 62 -30 4 0 7 18 7 40 0 30 -4 40 -16 40 -12 0 -15
-7 -12 -25 6 -31 -6 -31 -57 0 -56 35 -65 32 -65 -15z"/>
<path d="M1074 236 c-3 -8 -4 -25 -2 -38 3 -22 7 -23 73 -23 65 0 70 2 73 23
3 20 -1 22 -35 22 l-38 -1 30 -13 30 -13 -25 -5 c-21 -5 -37 -5 -81 1 -3 1 -4
13 -1 27 5 25 7 26 63 22 33 -2 59 -1 59 4 0 4 -32 8 -70 8 -52 0 -72 -4 -76
-14z"/>
<path d="M1282 213 l3 -38 65 -3 c35 -2 61 0 57 5 -5 4 -25 8 -45 9 -20 1 -40
3 -44 3 -5 1 -8 15 -8 31 0 20 -5 30 -15 30 -12 0 -15 -9 -13 -37z"/>
<path d="M1470 215 c-18 -19 -30 -38 -27 -42 4 -4 13 -1 19 5 15 15 104 16
113 2 3 -5 11 -10 16 -10 6 0 -5 18 -23 40 -18 22 -40 40 -49 40 -8 0 -30 -16
-49 -35z m70 -6 c0 -5 -11 -9 -25 -9 -27 0 -32 9 -13 28 12 12 38 -1 38 -19z"/>
<path d="M1645 240 c-12 -20 7 -30 61 -30 30 0 54 -4 54 -9 0 -12 -77 -19 -96
-8 -19 11 -32 1 -17 -14 5 -5 37 -9 69 -7 51 3 59 6 59 23 0 17 -8 20 -50 23
-27 2 -54 8 -60 14 -7 7 9 9 53 6 34 -2 62 -1 62 4 0 12 -128 10 -135 -2z"/>
<path d="M1850 230 c0 -18 7 -20 56 -20 40 0 54 -4 52 -12 -4 -12 -52 -16 -90
-7 -9 2 -17 0 -17 -6 -1 -6 26 -10 62 -10 55 0 62 2 62 20 0 17 -8 20 -52 23
-29 2 -53 8 -53 14 0 7 20 9 55 6 30 -3 55 -1 55 4 0 4 -29 8 -65 8 -58 0 -65
-2 -65 -20z"/>
<path d="M2050 210 l0 -40 67 0 c71 0 79 14 10 16 -56 2 -57 3 -57 13 0 6 17
12 38 14 l37 4 -37 1 c-59 3 -45 21 20 25 l57 3 -67 2 -68 2 0 -40z"/>
<path d="M2230 230 c0 -18 7 -20 55 -20 51 0 72 -11 43 -22 -14 -5 -67 -3 -83
3 -5 2 -12 0 -15 -6 -3 -6 22 -11 63 -13 66 -3 67 -3 67 23 0 24 -3 25 -55 25
-34 0 -55 4 -55 11 0 8 18 10 55 7 30 -3 55 -1 55 4 0 4 -29 8 -65 8 -58 0
-65 -2 -65 -20z"/>
</g>
</svg>
