<?xml version="1.0" standalone="no"?>
<!DOCTYPE svg PUBLIC "-//W3C//DTD SVG 20010904//EN"
 "http://www.w3.org/TR/2001/REC-SVG-20010904/DTD/svg10.dtd">
<svg version="1.0" xmlns="http://www.w3.org/2000/svg"
 width="1920.000000pt" height="1080.000000pt" viewBox="0 0 1920.000000 1080.000000"
 preserveAspectRatio="xMidYMid meet">

<g transform="translate(0.000000,1080.000000) scale(0.100000,-0.100000)"
fill="#000000" stroke="none">
<path d="M8087 9963 c184 -216 564 -663 878 -1033 203 -239 419 -493 480 -565
61 -71 124 -146 140 -166 26 -31 359 -423 1073 -1262 106 -125 192 -231 190
-236 -3 -10 -155 -189 -1003 -1186 -609 -715 -960 -1128 -1230 -1445 -86 -102
-243 -286 -348 -410 -104 -124 -202 -237 -215 -252 l-26 -28 1200 0 1199 1
330 366 c332 368 409 453 915 1013 151 167 383 424 515 570 323 358 766 848
895 990 238 262 335 372 335 380 0 4 -79 95 -176 202 -96 106 -294 324 -438
483 -145 160 -365 403 -490 540 -336 369 -602 662 -921 1015 -369 407 -892
983 -942 1038 l-38 42 -1186 0 -1186 0 49 -57z"/>
<path d="M7689 8383 c-68 -92 -249 -339 -402 -548 -154 -209 -281 -382 -283
-384 -3 -3 -226 65 -1094 333 -129 40 -236 72 -238 70 -2 -1 167 -258 375
-570 209 -313 382 -574 386 -581 4 -6 -135 -231 -320 -515 -407 -628 -422
-652 -419 -655 1 -1 296 95 655 213 360 119 657 212 661 207 4 -4 197 -255
429 -556 l421 -548 0 698 0 698 660 245 c363 135 660 247 660 250 0 3 -59 25
-131 48 -73 23 -372 121 -665 217 l-532 175 -6 63 c-3 34 -10 341 -16 682 -7
341 -13 621 -15 623 -1 1 -58 -73 -126 -165z"/>
<path d="M14055 2465 c-125 -28 -203 -62 -302 -131 -111 -79 -182 -186 -209
-316 -29 -137 3 -244 103 -350 118 -123 259 -197 436 -228 311 -53 446 -147
354 -247 -60 -66 -277 -90 -401 -45 -81 30 -169 81 -243 141 l-61 50 -132
-140 c-131 -138 -132 -140 -116 -164 54 -82 298 -187 531 -227 142 -24 349
-21 449 7 241 67 386 242 386 463 0 246 -225 461 -515 493 -154 17 -273 57
-318 107 -29 32 -38 80 -22 118 27 64 166 108 270 84 65 -14 176 -70 245 -121
l54 -42 36 40 c19 22 79 88 134 146 l98 107 -23 19 c-13 11 -69 47 -125 81
-244 148 -442 197 -629 155z"/>
<path d="M3406 2435 c-344 -65 -622 -342 -692 -689 -12 -59 -15 -111 -11 -200
6 -141 23 -210 79 -326 56 -115 185 -247 303 -307 150 -76 275 -106 455 -106
186 0 361 55 521 164 73 49 181 148 174 159 -3 4 -82 63 -175 130 l-171 123
-32 -30 c-80 -74 -193 -136 -274 -151 -249 -45 -491 203 -444 455 38 209 195
343 401 345 135 0 238 -45 298 -132 17 -25 32 -37 42 -34 15 5 349 197 383
220 17 11 11 19 -65 83 -153 131 -325 234 -468 281 -85 28 -221 34 -324 15z"/>
<path d="M5161 2420 c-277 -38 -521 -212 -641 -455 -70 -143 -84 -203 -84
-365 0 -162 20 -247 91 -382 107 -202 305 -356 538 -419 112 -30 297 -30 410
0 166 44 299 124 418 251 60 64 88 104 127 183 71 144 85 204 85 367 0 110 -4
149 -23 213 -54 187 -176 358 -335 466 -163 111 -396 167 -586 141z m230 -426
c242 -72 366 -346 258 -571 -28 -59 -107 -144 -163 -177 -114 -67 -270 -74
-389 -19 -347 163 -317 639 48 765 64 22 175 23 246 2z"/>
<path d="M6430 1630 l0 -770 200 0 200 0 0 410 c0 226 3 410 8 409 4 0 153
-185 332 -410 l325 -409 203 0 202 0 0 770 0 770 -205 0 -205 0 -2 -446 -3
-447 -225 309 c-124 170 -271 371 -325 446 l-100 137 -202 1 -203 0 0 -770z"/>
<path d="M8230 2397 c0 -4 142 -406 365 -1037 81 -228 154 -434 162 -457 l15
-43 302 0 301 0 234 663 c129 364 251 710 272 770 l39 107 -225 0 c-156 0
-225 -3 -225 -11 0 -27 -393 -1200 -400 -1192 -4 4 -44 121 -89 258 -44 138
-132 405 -195 595 l-115 345 -221 3 c-121 1 -220 1 -220 -1z"/>
<path d="M10210 1630 l0 -770 620 0 620 0 0 175 0 175 -415 0 -415 0 0 130 0
130 375 0 375 0 0 160 0 160 -375 0 -375 0 0 123 0 122 415 -3 415 -2 0 185 0
185 -620 0 -620 0 0 -770z"/>
<path d="M15220 1630 l0 -770 620 0 620 0 0 175 0 175 -417 2 -418 3 -3 127
-3 128 378 2 378 3 0 155 0 155 -377 3 -378 2 0 120 0 120 420 0 420 0 0 185
0 185 -620 0 -620 0 0 -770z"/>
<path d="M11910 1610 l0 -760 180 0 180 0 0 300 0 300 103 0 102 0 109 -207
c60 -115 131 -250 158 -300 l50 -93 229 0 c126 0 229 3 228 8 0 4 -69 149
-154 322 l-153 315 27 20 c72 54 159 154 192 220 33 67 34 74 34 185 0 109 -2
119 -32 183 -44 93 -125 172 -227 223 l-80 39 -473 3 -473 3 0 -761z m842 361
c27 -30 30 -39 26 -83 -4 -36 -12 -57 -32 -76 l-26 -27 -230 -3 -230 -3 0 109
c0 60 3 112 7 115 3 4 107 6 230 4 l225 -2 30 -34z"/>
</g>
</svg>
