<?xml version="1.0" encoding="UTF-8"?>
<svg version="1.1" xmlns="http://www.w3.org/2000/svg" width="300" height="200">
<path d="M0 0 C1.65 0 3.3 0 5 0 C5.495 0.99 5.495 0.99 6 2 C5.67 2.99 5.34 3.98 5 5 C7.31 5 9.62 5 12 5 C12.04254356 6.99954746 12.04080783 9.00041636 12 11 C11 12 11 12 7.9375 12.0625 C6.968125 12.041875 5.99875 12.02125 5 12 C5.495 15.465 5.495 15.465 6 19 C7.98 19.66 9.96 20.32 12 21 C12.125 23.375 12.125 23.375 12 26 C10 28 10 28 6.625 28.4375 C3 28 3 28 0.5625 26 C-1.54833483 21.94719712 -1.36646277 19.54413832 -1 15 C-0.67 14.01 -0.34 13.02 0 12 C-0.99 12 -1.98 12 -3 12 C-3 12.66 -3 13.32 -3 14 C-7.60500468 14.18058842 -10.80071804 13.86634754 -15 12 C-15.99 12 -16.98 12 -18 12 C-17.81870185 15.43793339 -17.81870185 15.43793339 -17 19 C-15.06402968 20.51294288 -15.06402968 20.51294288 -13 21 C-12.46375 20.505 -11.9275 20.01 -11.375 19.5 C-8.40641555 17.62510456 -6.44687573 17.76498575 -3 18 C-2 20 -2 20 -2.5625 21.875 C-4.64155819 24.94839036 -6.70700546 26.29252135 -10 28 C-13.93067238 28.69998275 -17.15312909 28.39520642 -20.8125 26.6875 C-22.70905365 25.22444433 -24.3945719 23.77442053 -26 22 C-26.804375 22.804375 -27.60875 23.60875 -28.4375 24.4375 C-32 28 -32 28 -35.125 28.3125 C-39.99560852 27.91970899 -42.02823356 26.80359984 -46 24 C-48.40886363 21.06747036 -48.42414625 17.77139953 -48.3125 14.03125 C-47.7783762 10.55944529 -46.32309407 8.56763028 -44 6 C-39.44196167 3.67033596 -35.91863489 3.74798385 -31 5 C-28.29432374 6.82339052 -26.46271282 8.07457436 -25 11 C-24.67 10.01 -24.34 9.02 -24 8 C-20.18278319 5.08095185 -16.77972107 4.16481797 -12 4 C-10.13671875 4.68359375 -10.13671875 4.68359375 -8.3125 5.5625 C-5.21784266 7.28501546 -5.21784266 7.28501546 -2.625 6.5 C-0.46022532 4.50174645 -0.30255568 2.874279 0 0 Z M-38 11 C-38.33 11.66 -38.66 12.32 -39 13 C-37.68 13 -36.36 13 -35 13 C-35 12.34 -35 11.68 -35 11 C-35.99 11 -36.98 11 -38 11 Z M-40 18 C-39.67 18.99 -39.34 19.98 -39 21 C-37.09291157 21.91428339 -37.09291157 21.91428339 -35 22 C-34.34 21.34 -33.68 20.68 -33 20 C-31.68 19.34 -30.36 18.68 -29 18 C-32.63 18 -36.26 18 -40 18 Z " fill="#000000" transform="translate(172,96)"/>
<path d="M0 0 C2.1875 1.5625 2.1875 1.5625 4.1875 3.5625 C4.703125 2.94375 5.21875 2.325 5.75 1.6875 C8.89504558 -1.05433461 11.0578342 -1.81805013 15.1875 -2.4375 C19.36311236 -1.70062723 22.31672051 -0.38991507 25.1875 2.75 C26.89540477 7.55348217 26.99213775 11.65677902 25 16.375 C21.9159599 20.09711736 19.51506847 21.42026052 14.6875 21.9375 C9.59804612 21.39220137 6.57245545 19.30376655 3.1875 15.5625 C2.40375 16.366875 1.62 17.17125 0.8125 18 C-2.75039711 21.47806622 -4.71017337 21.90097747 -9.70703125 21.85546875 C-13.08843947 21.3849574 -15.23504136 19.69990472 -17.8125 17.5625 C-19.15533649 14.87682703 -19.05537519 12.68503147 -19.125 9.6875 C-19.16238281 8.63820313 -19.19976562 7.58890625 -19.23828125 6.5078125 C-18.7136769 2.87889799 -17.63223662 1.81725263 -14.8125 -0.4375 C-9.72449181 -3.32528843 -5.10979738 -2.61167422 0 0 Z M-11.0625 6.25 C-13.06507621 8.42826328 -13.06507621 8.42826328 -12.875 11.1875 C-11.99971603 13.77520942 -11.99971603 13.77520942 -9.375 14.9375 C-6.84362869 15.84740483 -6.84362869 15.84740483 -4.8125 14.5625 C-4.8125 13.9025 -4.8125 13.2425 -4.8125 12.5625 C-2.1725 12.5625 0.4675 12.5625 3.1875 12.5625 C3.1875 10.9125 3.1875 9.2625 3.1875 7.5625 C2.07375 7.43875 0.96 7.315 -0.1875 7.1875 C-3.8125 6.5625 -3.8125 6.5625 -5.8125 4.5625 C-8.88125 4.2625 -8.88125 4.2625 -11.0625 6.25 Z M11.4375 5.6875 C9.90437177 7.61161408 9.90437177 7.61161408 10.1875 10.625 C10.88798201 13.77679571 10.88798201 13.77679571 13.75 14.9375 C14.554375 15.14375 15.35875 15.35 16.1875 15.5625 C18.18990521 13.30979413 19.13118221 11.95672456 19.5625 8.9375 C19.43875 8.15375 19.315 7.37 19.1875 6.5625 C16.09976461 4.50400974 14.68789555 3.59796 11.4375 5.6875 Z " fill="#000000" transform="translate(78.8125,102.4375)"/>
<path d="M0 0 C2.31 0 4.62 0 7 0 C7 9.9 7 19.8 7 30 C3.07008351 30.98247912 2.54115316 30.92938311 -1 30 C-3.3028054 30.09056825 -3.3028054 30.09056825 -5.625 30.4375 C-9.91139241 31 -9.91139241 31 -12 31 C-12 30.34 -12 29.68 -12 29 C-12.61875 28.7525 -13.2375 28.505 -13.875 28.25 C-16.48998244 26.71177504 -17.06708246 25.87649576 -18 23 C-18.480151 18.67864101 -18.29173086 16.5331633 -16.1875 12.6875 C-14 10 -14 10 -11 8 C-8.51953125 7.8046875 -8.51953125 7.8046875 -5.8125 7.875 C-4.91144531 7.89304687 -4.01039062 7.91109375 -3.08203125 7.9296875 C-2.39496094 7.95289062 -1.70789063 7.97609375 -1 8 C-0.67 5.36 -0.34 2.72 0 0 Z M-8 14 C-10.15502531 17.23253796 -10.46856135 18.25150923 -10 22 C-8.60414215 23.81476003 -8.60414215 23.81476003 -7 25 C-3.20452079 24.03223902 -3.20452079 24.03223902 0 22 C0.29386153 18.27775401 0.14809171 17.22213757 -2 14 C-5 13.5 -5 13.5 -8 14 Z " fill="#000000" transform="translate(97,60)"/>
<path d="M0 0 C2.89438124 2.67534699 3.13622137 5.27588846 3.375 9.125 C3.14879443 13.39134234 2.67887871 15.93574671 -0.4375 18.9375 C-4.5639008 21.7691799 -7.53808072 21.89870602 -12.4375 21.1875 C-15.4375 19.8125 -15.4375 19.8125 -17.4375 18.1875 C-17.4375 17.5275 -17.4375 16.8675 -17.4375 16.1875 C-18.0975 16.1875 -18.7575 16.1875 -19.4375 16.1875 C-20.35207003 10.62592552 -20.75836397 6.511835 -18.4375 1.1875 C-17.7775 1.1875 -17.1175 1.1875 -16.4375 1.1875 C-16.4375 0.5275 -16.4375 -0.1325 -16.4375 -0.8125 C-10.19875402 -3.39929711 -5.97832679 -3.15220867 0 0 Z M-12.25 5.3125 C-13.86570518 7.86361344 -14.0297129 9.2264355 -13.4375 12.1875 C-11.02891286 14.0499438 -11.02891286 14.0499438 -8.4375 15.1875 C-6.7875 13.5375 -5.1375 11.8875 -3.4375 10.1875 C-4.06283375 7.66386012 -4.06283375 7.66386012 -5.4375 5.1875 C-8.28376308 4.01980233 -9.59089538 3.66202127 -12.25 5.3125 Z " fill="#000000" transform="translate(214.4375,102.8125)"/>
<path d="M0 0 C4.1146875 -0.0928125 4.1146875 -0.0928125 8.3125 -0.1875 C9.60281128 -0.22846802 9.60281128 -0.22846802 10.91918945 -0.27026367 C11.60198975 -0.27775635 12.28479004 -0.28524902 12.98828125 -0.29296875 C14.03302612 -0.31653442 14.03302612 -0.31653442 15.09887695 -0.34057617 C17.58234806 0.10432459 18.42664746 1.072914 20 3 C21.1482685 5.296537 21.11561175 6.58313167 21.09765625 9.1328125 C21.09443359 9.93847656 21.09121094 10.74414062 21.08789062 11.57421875 C21.07951172 12.41597656 21.07113281 13.25773437 21.0625 14.125 C21.05798828 14.97449219 21.05347656 15.82398437 21.04882812 16.69921875 C21.03702874 18.79950909 21.01909306 20.8997633 21 23 C19.00045254 23.04254356 16.99958364 23.04080783 15 23 C13.00383446 21.00383446 13.59016573 17.18298037 13.4375 14.4375 C13.39431641 13.72658203 13.35113281 13.01566406 13.30664062 12.28320312 C13.20028223 10.52238088 13.09961154 8.7612168 13 7 C10.52733235 7.34444881 10.52733235 7.34444881 8 8 C6.58365167 10.83269666 6.6536995 13.47466438 6.4375 16.625 C6.35371094 17.81351563 6.26992187 19.00203125 6.18359375 20.2265625 C6.12300781 21.14179687 6.06242188 22.05703125 6 23 C4.02 23 2.04 23 0 23 C0 15.41 0 7.82 0 0 Z " fill="#000000" transform="translate(219,101)"/>
<path d="M0 0 C1.4540625 0.0309375 1.4540625 0.0309375 2.9375 0.0625 C3.82313089 3.85324537 4.05431301 7.34945898 4.03515625 11.23828125 C4.03193359 12.39521484 4.02871094 13.55214844 4.02539062 14.74414062 C4.01701172 15.94232422 4.00863281 17.14050781 4 18.375 C3.99548828 19.59251953 3.99097656 20.81003906 3.98632812 22.06445312 C3.97456578 25.06385226 3.95812826 28.06315089 3.9375 31.0625 C0.65053767 31.86203138 -0.77273192 32.15908936 -4.0625 31.0625 C-4.08715622 26.80835377 -4.10533899 22.55424502 -4.11743164 18.30004883 C-4.12247101 16.85179927 -4.12930253 15.40355483 -4.13793945 13.95532227 C-4.15002247 11.87775412 -4.15573211 9.80025303 -4.16015625 7.72265625 C-4.16539307 6.47105713 -4.17062988 5.21945801 -4.17602539 3.92993164 C-4.01898034 -0.03672231 -3.99984495 0.08162949 0 0 Z " fill="#000000" transform="translate(110.0625,91.9375)"/>
<path d="M0 0 C3 0.125 3 0.125 4 1.125 C4.04384447 2.79108987 4.0396713 4.45880554 4 6.125 C4 8.65900778 4.03046944 11.1890913 4.0703125 13.72265625 C4.08891392 15.54426707 4.10712848 17.36588187 4.125 19.1875 C4.14175781 20.11111328 4.15851563 21.03472656 4.17578125 21.98632812 C4.18222656 22.86869141 4.18867187 23.75105469 4.1953125 24.66015625 C4.20578613 25.468479 4.21625977 26.27680176 4.22705078 27.10961914 C4 29.125 4 29.125 2 31.125 C-1.125 30.75 -1.125 30.75 -4 30.125 C-4 22.125 -4 14.125 -4 6.125 C-4.0309375 4.825625 -4.0309375 4.825625 -4.0625 3.5 C-3.96863157 -0.06700023 -3.62132166 0.1508884 0 0 Z " fill="#000000" transform="translate(110,59.875)"/>
<path d="M0 0 C4.875 0.875 4.875 0.875 6 2 C6.10003289 4.13353174 6.13081048 6.27037542 6.1328125 8.40625 C6.13410156 9.70691406 6.13539063 11.00757812 6.13671875 12.34765625 C6.13357666 13.36883545 6.13357666 13.36883545 6.13037109 14.41064453 C6.1250224 16.49128515 6.1303168 18.57170989 6.13671875 20.65234375 C6.13542969 21.95300781 6.13414062 23.25367188 6.1328125 24.59375 C6.13168457 25.79708984 6.13055664 27.00042969 6.12939453 28.24023438 C6 31 6 31 5 32 C2.66055264 31.71269945 0.3260857 31.38063221 -2 31 C-2.05454409 28.64551325 -2.0939279 26.29232125 -2.125 23.9375 C-2.14820313 22.62652344 -2.17140625 21.31554687 -2.1953125 19.96484375 C-1.99417522 15.88175701 -1.27165462 12.85000947 0 9 C-0.66 8.34 -1.32 7.68 -2 7 C-1.6730244 4.38419521 -1.17960932 2.35921863 0 0 Z " fill="#000000" transform="translate(187,92)"/>
<path d="M0 0 C1.99954746 -0.04254356 4.00041636 -0.04080783 6 0 C7 1 7 1 7.11352539 3.86743164 C7.10828857 5.11903076 7.10305176 6.37062988 7.09765625 7.66015625 C7.0962413 8.32462265 7.09482635 8.98908905 7.09336853 9.6736908 C7.08775518 11.80333899 7.07520054 13.93288339 7.0625 16.0625 C7.05748671 17.50325369 7.05292351 18.94400903 7.04882812 20.38476562 C7.03778145 23.92321102 7.02050792 27.46159539 7 31 C5.0085944 31.38133299 3.00720923 31.71325582 1 32 C-1.24796269 29.75203731 -0.81611821 25.0857489 -1 22 C-0.97912787 18.13730942 -0.7845084 14.29330107 -0.5625 10.4375 C-0.51029297 9.42880859 -0.45808594 8.42011719 -0.40429688 7.38085938 C-0.27601349 4.92015084 -0.14112915 2.45999946 0 0 Z " fill="#000000" transform="translate(116,92)"/>
<path d="M0 0 C1.99954746 -0.04254356 4.00041636 -0.04080783 6 0 C7 1 7 1 7.0625 3.375 C7.041875 4.24125 7.02125 5.1075 7 6 C7 6.99 7 7.98 7 9 C7 15.66666667 7 22.33333333 7 29 C5.02 29.66 3.04 30.32 1 31 C0 30 0 30 -0.11352539 27.13256836 C-0.10828857 25.88096924 -0.10305176 24.62937012 -0.09765625 23.33984375 C-0.0962413 22.67537735 -0.09482635 22.01091095 -0.09336853 21.3263092 C-0.08775518 19.19666101 -0.07520054 17.06711661 -0.0625 14.9375 C-0.05748671 13.49674631 -0.05292351 12.05599097 -0.04882812 10.61523438 C-0.03778145 7.07678898 -0.02050792 3.53840461 0 0 Z " fill="#000000" transform="translate(116,60)"/>
<path d="M0 0 C1.48831242 0.00667405 2.97660807 0.01863442 4.46484375 0.03515625 C5.22345703 0.03966797 5.98207031 0.04417969 6.76367188 0.04882812 C8.64326246 0.06064945 10.52281274 0.07858547 12.40234375 0.09765625 C13.49893311 3.38742433 13.20187513 4.81069392 12.40234375 8.09765625 C10.75234375 8.09765625 9.10234375 8.09765625 7.40234375 8.09765625 C6.74234375 6.77765625 6.08234375 5.45765625 5.40234375 4.09765625 C4.41234375 5.41765625 3.42234375 6.73765625 2.40234375 8.09765625 C2.40234375 7.43765625 2.40234375 6.77765625 2.40234375 6.09765625 C1.74234375 6.09765625 1.08234375 6.09765625 0.40234375 6.09765625 C0.40234375 6.75765625 0.40234375 7.41765625 0.40234375 8.09765625 C-0.58765625 8.09765625 -1.57765625 8.09765625 -2.59765625 8.09765625 C-3.25765625 5.78765625 -3.91765625 3.47765625 -4.59765625 1.09765625 C-3.59765625 0.09765625 -3.59765625 0.09765625 0 0 Z " fill="#000000" transform="translate(211.59765625,124.90234375)"/>
<path d="M0 0 C3.0625 0.125 3.0625 0.125 5.0625 1.125 C5.0625 2.775 5.0625 4.425 5.0625 6.125 C2.35370665 7.47939668 0.05316732 7.19001451 -2.9375 7.125 C-3.31883299 5.1335944 -3.65075582 3.13220923 -3.9375 1.125 C-2.9375 0.125 -2.9375 0.125 0 0 Z " fill="#000000" transform="translate(242.9375,97.875)"/>
<path d="M0 0 C2.00720923 0.28674418 4.0085944 0.61866701 6 1 C5.67 3.31 5.34 5.62 5 8 C3.35 8 1.7 8 0 8 C-0.38063221 5.6739143 -0.71269945 3.33944736 -1 1 C-0.67 0.67 -0.34 0.34 0 0 Z " fill="#000000" transform="translate(234,125)"/>
<path d="M0 0 C1.65 0.33 3.3 0.66 5 1 C4.67 3.31 4.34 5.62 4 8 C2.35 8 0.7 8 -1 8 C-1.625 5.6875 -1.625 5.6875 -2 3 C-1.34 2.01 -0.68 1.02 0 0 Z " fill="#000000" transform="translate(187,125)"/>
<path d="M0 0 C1.9375 0.75 1.9375 0.75 4 2 C4.8125 4 4.8125 4 5 6 C4.67 6.66 4.34 7.32 4 8 C3.34 8 2.68 8 2 8 C2 7.34 2 6.68 2 6 C1.34 6 0.68 6 0 6 C0 6.66 0 7.32 0 8 C-0.99 8 -1.98 8 -3 8 C-2.45276317 4.62537285 -1.9451 2.91765 0 0 Z " fill="#000000" transform="translate(228,125)"/>
<path d="M0 0 C1.2065625 0.0309375 1.2065625 0.0309375 2.4375 0.0625 C2.4375 2.7025 2.4375 5.3425 2.4375 8.0625 C0.7875 8.0625 -0.8625 8.0625 -2.5625 8.0625 C-2.94313221 5.7364143 -3.27519945 3.40194736 -3.5625 1.0625 C-2.5625 0.0625 -2.5625 0.0625 0 0 Z " fill="#000000" transform="translate(203.5625,124.9375)"/>
<path d="M0 0 C1.98 0 3.96 0 6 0 C5.47731534 2.76276177 4.89130413 5.3260876 4 8 C3.34 8 2.68 8 2 8 C0.74335022 5.09399739 0 3.20395416 0 0 Z " fill="#000000" transform="translate(193,125)"/>
</svg>
