<?xml version="1.0" encoding="UTF-8"?>
<svg version="1.1" xmlns="http://www.w3.org/2000/svg" width="3840" height="2160">
<path d="M0 0 C2.98783541 2.11638342 3.74069856 2.73858338 5 6 C8.661053 29.91023993 -4.73875572 57.44774654 -18.3527832 76.27636719 C-24.10192703 83.96648099 -30.32283506 91.10554427 -37 98 C-37.75168457 98.79035645 -37.75168457 98.79035645 -38.51855469 99.59667969 C-46.43162896 107.90417511 -54.78855377 115.17046685 -64 122 C-64.54172852 122.40782715 -65.08345703 122.8156543 -65.64160156 123.23583984 C-82.45644569 135.85967298 -100.62824632 146.12141235 -119.33935547 155.6328125 C-121.71284493 156.85244371 -124.06540894 158.10123041 -126.41015625 159.375 C-203.25031346 201.0589524 -286.89883785 226.52544606 -373.37783813 248.89907837 C-432.71902696 264.24990027 -490.64494899 281.31302119 -546 308 C-547.16047852 308.5583252 -548.32095703 309.11665039 -549.51660156 309.69189453 C-594.99862847 330.36096233 -594.99862847 330.36096233 -627.0703125 366.8515625 C-629.13895823 373.85714424 -629.42525436 381.62508332 -626.5 388.4375 C-621.19765027 397.12591167 -612.46022428 401.70577214 -602.875 404.1875 C-585.28716062 407.54188174 -567.78489637 405.64324389 -550.5546875 401.35546875 C-549.47960938 401.09279205 -548.40453125 400.83011536 -547.296875 400.55947876 C-538.1617222 398.31643134 -529.04806499 395.98820692 -519.93441772 393.65963745 C-486.80093886 385.19941703 -453.5557553 377.62631675 -420 371 C-419.00091614 370.80233032 -418.00183228 370.60466064 -416.97247314 370.40100098 C-376.35852349 362.39548498 -335.29616225 356.10076671 -294 353 C-292.91372314 352.9064624 -291.82744629 352.8129248 -290.70825195 352.71655273 C-278.34027713 351.7391523 -265.96188756 351.80077265 -253.5625 351.8125 C-251.79681168 351.81340637 -251.79681168 351.81340637 -249.99545288 351.81433105 C-231.25025645 351.84041841 -212.66955428 352.20756693 -194 354 C-193.34028198 354.06316406 -192.68056396 354.12632812 -192.00085449 354.19140625 C-128.22911758 360.36909217 -66.52510256 376.19230643 -8.14910889 402.84506226 C-3.86135119 404.77406839 -1.57255187 405.34128188 3 404 C4.98602384 403.14498156 6.94403888 402.22300379 8.875 401.25 C32.44285392 390.05795978 58.8697528 387.05123259 84.1875 393.5625 C86.55925247 394.10171287 86.55925247 394.10171287 89 394 C90.82551685 392.74924836 90.82551685 392.74924836 92.33203125 390.89453125 C95.78219755 387.1768598 99.42939593 384.13811979 103.5 381.125 C104.1914209 380.61179199 104.8828418 380.09858398 105.59521484 379.56982422 C129.51595022 362.07945255 156.75840779 351.3130364 186.75732422 355.87255859 C194.3271076 357.14655 201.80910429 358.78167076 209.25585938 360.64160156 C226.21371444 364.86009864 240.56668898 362.22376747 257.34375 358.57250977 C266.59212937 356.579178 277.54528569 354.68848962 286 360 C294.68784605 366.68923358 300.81839473 374.4339595 306 384 C312.41627219 383.3870144 318.56859463 382.34983243 324.85327148 380.93725586 C325.80029812 380.72841609 326.74732475 380.51957632 327.72304916 380.30440807 C330.85671852 379.61226859 333.98887787 378.91352866 337.12109375 378.21484375 C339.3514068 377.721056 341.58182195 377.22772918 343.81233215 376.73483276 C348.55689137 375.6855903 353.30083728 374.63363482 358.04431152 373.57949829 C369.19418915 371.10200542 380.34740334 368.63960173 391.50030136 366.17574883 C395.23442242 365.35068893 398.96842886 364.52511178 402.7024231 363.69947815 C423.1149427 359.18744622 443.5372631 354.72212101 463.97063065 350.30550003 C466.21624972 349.81979978 468.46165879 349.33314056 470.70700073 348.84616089 C484.47037237 345.86188 498.23967446 342.91266955 512.046875 340.13671875 C513.05921204 339.93262894 514.07154907 339.72853912 515.11456299 339.51826477 C545.42748614 333.49291952 545.42748614 333.49291952 556.27734375 339.68359375 C562.62519798 344.53444834 565.76947456 350.08284578 567 358 C567.61487646 367.98442257 563.79077717 376.71180147 557.33203125 384.21484375 C555.49148957 386.26200228 553.60277956 388.23458445 551.68359375 390.2109375 C550.79800781 391.13132812 549.91242188 392.05171875 549 393 C548.14535156 393.86753906 547.29070312 394.73507812 546.41015625 395.62890625 C542.25251168 400.69908453 540.93683189 407.52541286 539.0390625 413.67773438 C535.82185131 423.60604811 535.82185131 423.60604811 531 427 C527.16701809 428.41019805 524.85193086 428.14858116 521.23046875 426.5234375 C519.87429202 425.82356116 518.52681095 425.10663406 517.1875 424.375 C516.48189941 424.00761719 515.77629883 423.64023437 515.04931641 423.26171875 C511.26170477 421.27603134 507.55923051 419.1716248 503.875 417 C500.42964092 415.06771686 498.00717993 414.18034956 494 415 C486.20471174 418.99270862 484.04141349 429.8077051 481.4375 437.5 C481.06496094 438.6653125 480.69242188 439.830625 480.30859375 441.03125 C478.88549289 444.25977732 478.21126481 445.55081383 475 447 C469.78520531 446.82982022 466.11814362 445.30166181 461.625 442.75 C460.5009375 442.12609375 459.376875 441.5021875 458.21875 440.859375 C456.26502066 439.73076436 454.32345847 438.58021821 452.40625 437.390625 C448.72557945 435.14692857 446.63955301 434.02131843 442.25 433.875 C437.26279698 435.60133951 435.0466003 437.85879021 432.72265625 442.61328125 C430.19279082 448.54193246 428.04636846 454.58259482 426.08984375 460.72265625 C424.72282899 463.57917814 423.87905423 464.63374931 421 466 C413.91284595 466.06063875 409.30456063 463.21783411 403.4375 459.5 C395.8182339 454.53235667 395.8182339 454.53235667 387 453 C381.36073546 455.25410147 379.8896385 459.43094726 377.41015625 464.65625 C376.04952252 467.88257265 374.92837291 471.09975368 373.875 474.4375 C371.2106417 482.6570993 371.2106417 482.6570993 368 485 C360.45014567 486.1056272 354.21686116 481.65157033 348 478 C345.91024912 476.80770401 343.80595968 475.64050738 341.6875 474.5 C340.74261719 473.9740625 339.79773437 473.448125 338.82421875 472.90625 C335.10341955 471.7123006 333.478923 472.30983498 330 474 C326.5727802 476.74539614 325.09621402 479.51264619 323.5 483.5625 C323.07976562 484.614375 322.65953125 485.66625 322.2265625 486.75 C320.7309331 490.71294161 319.32633112 494.70251553 317.9921875 498.72265625 C316.95261387 501.10876422 316.01063903 502.37112788 314 504 C309.09667051 505.79390103 305.62853414 504.54962681 301.046875 502.578125 C296.47996311 500.21269884 292.16993145 497.45947601 287.88525391 494.61791992 C282.71931854 491.24168127 277.33586781 488 271 488 C273.25158779 492.58331555 275.52682708 497.15382458 277.82373047 501.71459961 C278.60002425 503.26412581 279.37002669 504.81682197 280.13330078 506.37280273 C286.10134631 518.73561749 286.10134631 518.73561749 296 528 C296.58523438 528.43562256 297.17046875 528.87124512 297.7734375 529.32006836 C312.26337311 539.97648169 332.40062356 552.42208512 351 551 C353.99666108 549.91280787 353.99666108 549.91280787 356.625 548.25 C358.02105469 547.43208984 358.02105469 547.43208984 359.4453125 546.59765625 C362.33909619 544.78793526 365.17140818 542.90929948 368 541 C371.62703026 539.79098991 375.24017363 539.21339525 379 540 C383.66741089 543.27348278 384.87238574 548.39383892 386.625 553.5625 C387.21785665 555.27335141 387.81407743 556.98304169 388.4140625 558.69140625 C388.6713916 559.44623291 388.9287207 560.20105957 389.19384766 560.97875977 C390.02144193 563.25640093 390.02144193 563.25640093 392 566 C397.4457202 566.93536388 400.77830564 564.65132147 405.0625 561.625 C414.61845307 555.04178153 414.61845307 555.04178153 420.5625 554.9375 C424 556 424 556 426.0625 558.6875 C427.29550961 561.22760563 428.34656116 563.83099134 429.43359375 566.4375 C429.69197021 567.05278564 429.95034668 567.66807129 430.21655273 568.30200195 C430.97413278 570.12524617 431.70629239 571.9589888 432.4375 573.79296875 C434.00355739 577.00730155 435.05783443 578.96675344 438 581 C443.04292441 581 446.16249286 578.8567858 450.1875 576 C455.34969785 572.36373485 458.61112221 570.94176755 464.96484375 570.4765625 C468.27258624 571.32730625 469.15732359 573.16594213 471 576 C472.51660988 579.17458344 473.8288944 582.41766705 475.125 585.6875 C475.81061658 587.40154144 476.50052639 589.11387363 477.1953125 590.82421875 C477.49453613 591.57791748 477.79375977 592.33161621 478.10205078 593.1081543 C478.95533894 595.17907225 478.95533894 595.17907225 481 597 C485.66403967 596.73403946 488.39127736 595.36100727 492.0625 592.5625 C497.59722036 588.37429928 501.91397817 586.24078337 509 587 C513.05035259 589.71086591 515.2944655 592.68292342 517.8125 596.8125 C524.71612336 607.34758323 530.85645852 610.92345545 543 614 C552.07392512 616.33812764 560.056828 618.9392165 568 624 C568.60585937 624.37769531 569.21171875 624.75539063 569.8359375 625.14453125 C575.29491816 629.06557573 578.33728739 635.24819151 579.484375 641.7421875 C579.90462979 649.98385085 577.30600797 656.11819025 572.00390625 662.34375 C544.02478775 689.89822758 493.69363951 690.46259528 457.1171875 691.5703125 C455.64519141 691.61608541 454.17319639 691.66189307 452.70120239 691.70773315 C449.64412126 691.80214055 446.58697915 691.89418915 443.52978516 691.98486328 C439.64923348 692.10042383 435.76902508 692.22496451 431.88882256 692.3516407 C428.85858733 692.44903282 425.82818393 692.54007124 422.79770279 692.62945175 C421.3681752 692.67262951 419.93871275 692.71803429 418.50933456 692.76590347 C410.55874885 693.0296051 402.7863073 692.96448662 394.8614502 692.25341797 C391.13936814 691.92378005 387.44223547 691.79026029 383.70703125 691.68359375 C382.99642044 691.66281265 382.28580963 691.64203156 381.55366516 691.62062073 C379.30668994 691.55617993 377.05962073 691.49662682 374.8125 691.4375 C373.25439377 691.39390748 371.6962883 691.35028751 370.13818359 691.30664062 C360.82041401 691.05404607 351.51659519 690.91424898 342.1953125 691.0625 C339 691 339 691 336.62567139 690.5211792 C333.99008899 689.99803273 331.47470338 689.76069635 328.79394531 689.59863281 C327.76936722 689.53455231 326.74478912 689.4704718 325.68916321 689.40444946 C324.5800206 689.33801239 323.47087799 689.27157532 322.328125 689.203125 C319.90938785 689.0508635 317.49068819 688.89800539 315.07202148 688.74462891 C313.16028641 688.62441376 313.16028641 688.62441376 311.20993042 688.50177002 C259.69257252 685.22632706 208.33086279 680.30780456 157.70783997 669.93026733 C155.71699519 669.52559055 153.72396444 669.13399251 151.72998047 668.74511719 C149.30384304 668.26046138 146.88503101 667.73698167 144.47705078 667.16894531 C136.07383472 665.40334651 131.64746734 666.67457601 124.5 671.25 C122.57680838 672.38331229 120.65096138 673.51212901 118.72265625 674.63671875 C117.76375488 675.20696777 116.80485352 675.7772168 115.81689453 676.36474609 C45.63798259 717.10476621 -45.67938429 726.73934248 -198.25 729.5625 C-198.97060608 729.5429425 -199.69121216 729.52338501 -200.43365479 729.50323486 C-208.32183898 729.28282872 -216.16096408 728.9546943 -224 728 C-222.55756493 735.30631284 -222.55756493 735.30631284 -218 741 C-210.60141542 744.29311453 -202.80960685 746.11989521 -194.9375 747.875 C-148.33038274 758.7420694 -148.33038274 758.7420694 -136.6875 776.8125 C-131.24945876 786.65135391 -129.08772411 796.93965432 -131.7265625 808.0625 C-133.85674384 814.43572549 -136.44265725 819.4431599 -142 823.4375 C-145.37930383 824.3879292 -148.12910093 823.48789419 -151.140625 821.80078125 C-151.83671875 821.30964844 -152.5328125 820.81851563 -153.25 820.3125 C-154.0234375 819.77753906 -154.796875 819.24257812 -155.59375 818.69140625 C-156.3878125 818.13324219 -157.181875 817.57507812 -158 817 C-159.57910854 815.91051765 -161.16233081 814.82696894 -162.75 813.75 C-163.44609375 813.27046875 -164.1421875 812.7909375 -164.859375 812.296875 C-168.3334504 810.19214319 -171.03437083 808.98068742 -175.125 809.0625 C-178.15465923 809.75514006 -178.15465923 809.75514006 -179.8125 812.3125 C-181.70754249 816.60128037 -182.11606215 820.23249853 -182.29052734 824.94091797 C-182.89944893 841.13541629 -182.89944893 841.13541629 -187.36328125 846.69921875 C-189.73172451 848.58153762 -192.02035409 848.47357222 -194.95703125 848.33984375 C-200.09637392 847.48492442 -203.2482322 843.78024425 -206.6875 840.1875 C-211.72544056 835.04339595 -218.45312833 828.77520461 -226 828.3125 C-229.00086637 828.72606055 -229.00086637 828.72606055 -230.62109375 830.58203125 C-232.47907898 833.84008467 -232.68557053 836.64961938 -233.0625 840.375 C-233.22349479 841.80734384 -233.38496256 843.2396346 -233.546875 844.671875 C-233.84032617 847.43130235 -234.1177382 850.19151063 -234.390625 852.953125 C-235.56994775 863.21760079 -235.56994775 863.21760079 -238.125 866.875 C-241.20151064 869.14894265 -243.17811945 869.76389846 -247.015625 869.4609375 C-250.26165849 868.70693759 -252.42463105 867.06029516 -255 865 C-255.804375 864.4225 -256.60875 863.845 -257.4375 863.25 C-259.69769069 861.26544232 -261.46040792 859.30262745 -263.375 857 C-267.123358 852.64049667 -270.7078086 849.30625036 -276.6875 848.75 C-280.8783448 851.01532151 -282.35054754 855.91939128 -283.7253418 860.32373047 C-284.56622608 863.54319189 -285.31956047 866.77914356 -286.06640625 870.02148438 C-287.61134468 876.3598245 -289.29311097 882.11694676 -294.875 886 C-298.68337589 887.21868028 -300.22116081 887.36038211 -304 886 C-314.59426635 879.12521966 -317.59077544 867.79980552 -321.19235229 856.2802124 C-328.87041821 831.91791064 -340.32697236 816.97662203 -359 800 C-370.80355079 789.23793899 -376.29201468 777.10041502 -377.875 761.125 C-378.84324406 740.05978783 -371.95770425 719.55136541 -358.24609375 703.4609375 C-357.13427734 702.24277344 -357.13427734 702.24277344 -356 701 C-355.56703613 700.5246582 -355.13407227 700.04931641 -354.68798828 699.55957031 C-345.38961911 689.48121264 -334.57583121 680.72675151 -322 675 C-321.34 675 -320.68 675 -320 675 C-323.11673393 671.39115019 -326.39721744 670.19225296 -331.09375 669.62890625 C-350.90627257 669.24265294 -364.66471309 680.50394915 -378.3359375 693.48828125 C-380.50643076 695.53465539 -382.7101991 697.46683258 -385 699.375 C-392.1934596 705.6073293 -398.48065994 713.00171232 -404.625 720.25 C-419.66936836 737.47999088 -434.76905061 739.99538483 -456.69213867 741.55834961 C-505.9537793 744.3918179 -556.3538054 741.17772292 -605.25 734.9375 C-607.15990723 734.69410889 -607.15990723 734.69410889 -609.10839844 734.44580078 C-612.41335143 734.00361405 -615.70690357 733.5226794 -619 733 C-619.83281494 732.87125488 -620.66562988 732.74250977 -621.52368164 732.60986328 C-624.85981561 731.96118108 -626.63671445 731.45989555 -628.77734375 728.75 C-629.35162109 727.38875 -629.35162109 727.38875 -629.9375 726 C-635.93965568 713.72286339 -645.71228882 705.4597239 -658.5234375 700.6875 C-665.90329403 698.47191393 -673.38255575 697.09779653 -681 696 C-680.7733667 695.41734375 -680.5467334 694.8346875 -680.31323242 694.234375 C-671.13216519 670.41929976 -665.637311 648.46838853 -675.3125 623.625 C-680.95107377 611.00931862 -691.12053409 601.19507869 -704 596 C-710.11377963 594.608885 -710.11377963 594.608885 -716 596 C-715.16597656 596.65484375 -714.33195312 597.3096875 -713.47265625 597.984375 C-701.6424005 607.48806079 -690.29373601 619.30364962 -688 635 C-685.53634677 664.89310063 -700.16646976 690.59516894 -716 715 C-715.23558594 715.0093457 -714.47117187 715.01869141 -713.68359375 715.02832031 C-670.25187068 715.69469151 -670.25187068 715.69469151 -654.375 730.4375 C-653.59125 731.283125 -652.8075 732.12875 -652 733 C-651.319375 733.721875 -650.63875 734.44375 -649.9375 735.1875 C-640.70413036 748.59077851 -641.24068951 766.70663565 -643.94140625 782.125 C-644.33744758 784.04575249 -644.75213523 785.96277711 -645.1875 787.875 C-645.38359863 788.74624512 -645.57969727 789.61749023 -645.78173828 790.51513672 C-647.54363738 797.54785905 -650.10745873 806.32353995 -656 811 C-663.00458449 811.94248984 -667.06410558 809.81236746 -672.9375 806.1875 C-682.97697027 799.80217856 -682.97697027 799.80217856 -694.375 798.5 C-697.54615816 800.31209038 -698.34936603 801.77141582 -700 805 C-700.785015 807.7836789 -700.785015 807.7836789 -701.24609375 810.74609375 C-701.44396484 811.83083984 -701.64183594 812.91558594 -701.84570312 814.03320312 C-702.23946103 816.29828574 -702.63009911 818.56391296 -703.01757812 820.83007812 C-704.20383877 827.29884572 -705.23780258 832.23780258 -710 837 C-719.44908771 838.04989863 -724.5112981 834.22552008 -731.984375 828.85546875 C-737.25870511 825.14068041 -741.57892127 822.19826857 -748.0625 821.44921875 C-751.26815058 822.36050248 -752.21496049 824.23904426 -754 827 C-755.64134233 830.69189479 -756.93827278 834.50559886 -758.26757812 838.31835938 C-760.4259459 844.22053212 -762.86390378 848.90926919 -768.25 852.5 C-774.84640717 853.69934676 -779.947853 851.35470076 -785.375 847.6875 C-804.55124223 832.75190105 -820.08141563 806.74559025 -823.68652344 782.78222656 C-825.72393623 764.69939467 -824.13208885 746.65528873 -820 729 C-819.82871582 728.26346191 -819.65743164 727.52692383 -819.48095703 726.76806641 C-816.83213854 715.86490862 -812.56802926 705.55517008 -808.30224609 695.19970703 C-807.87637207 694.16571777 -807.45049805 693.13172852 -807.01171875 692.06640625 C-806.62459717 691.13771729 -806.23747559 690.20902832 -805.83862305 689.25219727 C-804.8836828 687.08816386 -804.8836828 687.08816386 -805 685 C-806.45326531 683.57002108 -806.45326531 683.57002108 -808.375 682.0625 C-850.73164464 645.82072307 -867.11326242 582.14009148 -871.79603577 528.85520935 C-872.11539628 524.38461613 -872.18126717 519.92599238 -872.203125 515.4453125 C-872.21013931 514.47385284 -872.21715363 513.50239319 -872.22438049 512.50149536 C-872.24180363 509.3759492 -872.24823504 506.25059298 -872.25 503.125 C-872.25101212 501.51763977 -872.25101212 501.51763977 -872.25204468 499.87780762 C-872.23490353 482.71551151 -871.58020618 465.992283 -869 449 C-868.83371094 447.86900879 -868.66742187 446.73801758 -868.49609375 445.57275391 C-860.5375773 392.89179641 -836.90204572 314.45484008 -793.94775391 278.27124023 C-791.47626559 276.65817435 -789.92642841 276.66077962 -787 276.75 C-786.154375 276.76546875 -785.30875 276.7809375 -784.4375 276.796875 C-782.17385214 276.98551232 -780.19164049 277.43412561 -778 278 C-772.37125029 278.33193401 -772.37125029 278.33193401 -767 277 C-766.28167267 275.69377334 -765.62896221 274.35152831 -765 273 C-738.37088292 219.68130401 -738.37088292 219.68130401 -725 214 C-720.13903294 213.31946461 -717.26209922 214.22279797 -713.0625 216.5 C-708.27383765 219.04716082 -705.39094126 219.91371886 -700 219 C-697.27127334 217.02409364 -697.27127334 217.02409364 -695 214 C-694.525625 213.49984375 -694.05125 212.9996875 -693.5625 212.484375 C-688.59804398 207.1857729 -684.5632298 201.2370962 -680.41943359 195.29663086 C-676.7680233 190.06478518 -673.00355398 184.96918082 -669 180 C-668.57589844 179.43023437 -668.15179687 178.86046875 -667.71484375 178.2734375 C-664.58247053 174.18423002 -661.66329589 172.04530521 -657 170 C-652.1453047 170.31428468 -648.91133212 171.96485415 -644.8125 174.5 C-639.22960026 177.92698751 -635.65223406 179.45099892 -629 179 C-624.07962729 177.00361927 -620.68903678 174.09435012 -617.0625 170.3125 C-616.53744873 169.7772168 -616.01239746 169.24193359 -615.47143555 168.69042969 C-612.65000841 165.79187628 -609.93454661 162.83151739 -607.3125 159.75 C-600.66018667 152.00239052 -592.70299829 144.2712583 -582.375 142.3125 C-576.39869876 143.5298947 -573.13419583 147.31490905 -569.8125 152.25 C-569.214375 153.1575 -568.61625 154.065 -568 155 C-565.42379868 157.04319415 -564.07636541 157 -560.75 157 C-553.60827663 155.09554043 -549.10797339 150.3602108 -544.5390625 144.77734375 C-537.21971228 136.32479464 -525.33694052 125.43080817 -514.01171875 123.6953125 C-510.57544532 123.47528746 -508.03575919 123.98498114 -504.875 125.3125 C-501.31390112 128.6413533 -499.513315 132.1847576 -497.39453125 136.5390625 C-496.0959914 139.26131488 -496.0959914 139.26131488 -493 141 C-485.81868289 142.22235185 -479.90882271 138.84174045 -474 135 C-468.55233922 131.09477198 -463.3365386 126.88508455 -458.11083984 122.69042969 C-441.85112988 109.66912136 -441.85112988 109.66912136 -433.375 108.5 C-428.96408444 109.15346897 -427.90178674 110.67015465 -425 114 C-423.71669096 116.18686337 -422.50791882 118.41907579 -421.375 120.6875 C-419.029899 125.56854618 -419.029899 125.56854618 -415 129 C-407.30300101 130.34167872 -401.41430599 128.12920948 -395 124 C-389.7069783 120.19564065 -384.90125517 115.92528434 -380.125 111.5 C-372.465051 104.57242857 -363.86743926 97 -353 97 C-349.39538715 97.88415032 -347.77712261 98.843679 -345.703125 101.9296875 C-344.3994565 104.25536773 -343.20294953 106.62091828 -342 109 C-341.12391816 110.51162098 -340.22907147 112.01258139 -339.3125 113.5 C-338.71888672 114.47453125 -338.71888672 114.47453125 -338.11328125 115.46875 C-337.06306534 117.16032226 -337.06306534 117.16032226 -335 118 C-324.956617 118.64021565 -317.01836798 113.59940984 -309.69921875 107.18359375 C-306.92449861 104.6653022 -304.21683212 102.08044822 -301.52539062 99.47363281 C-287.32510753 85.75517751 -287.32510753 85.75517751 -279.0625 84.3125 C-273.67242856 84.58356742 -270.62374313 88.38374394 -267 92 C-261.79542288 96.76181412 -261.79542288 96.76181412 -255.0625 98 C-244.02697667 96.56979618 -235.70828456 87.27615346 -228 80 C-226.52840244 78.67901897 -225.05005361 77.36548677 -223.5625 76.0625 C-222.96566406 75.53785156 -222.36882813 75.01320313 -221.75390625 74.47265625 C-221.17511719 73.98667969 -220.59632813 73.50070312 -220 73 C-219.36835937 72.45085937 -218.73671875 71.90171875 -218.0859375 71.3359375 C-214.34181844 68.93801855 -210.2819469 69.37235306 -206 70 C-203.1875 71.6875 -203.1875 71.6875 -201 74 C-200.13375 74.86625 -199.2675 75.7325 -198.375 76.625 C-197.59125 77.40875 -196.8075 78.1925 -196 79 C-192.23717633 81.50854911 -189.35114468 81.59885092 -185 81 C-173.70326822 77.7133202 -166.20946505 68.32350865 -158.73242188 59.78515625 C-154.14919282 54.73346226 -148.68236637 49.47757955 -141.58959961 48.75415039 C-134.55673315 48.94483163 -130.06343015 53.12478908 -125.15625 57.73046875 C-122.47780415 60.20333213 -120.69707766 61.81815365 -117.125 62.75 C-107.52777036 60.44666489 -100.67188568 52.13803329 -94.5 44.9375 C-89.67242454 39.3488203 -85.37165674 34.60003132 -77.8125 33.5625 C-72.57066585 34.16402195 -69.91167264 36.63891994 -66 40 C-60.91040978 44.09380083 -58.72045458 45.54197214 -52 45 C-36.25578949 39.7833554 -26.43332145 22.353437 -16.91796875 9.8203125 C-8.25815562 -1.53162733 -8.25815562 -1.53162733 0 0 Z M-577.4375 198.5625 C-578.39873779 198.8291748 -579.35997559 199.09584961 -580.3503418 199.37060547 C-586.47967325 201.13144523 -592.44150982 203.13198888 -598.3125 205.625 C-598.98144287 205.90158447 -599.65038574 206.17816895 -600.33959961 206.46313477 C-602.39067975 207.34095194 -602.39067975 207.34095194 -605 209 C-605.71224647 211.04814927 -605.71224647 211.04814927 -606 213 C-605.26475098 213.33733154 -604.52950195 213.67466309 -603.77197266 214.0222168 C-600.38885157 215.57558229 -597.00692134 217.13152432 -593.625 218.6875 C-592.46871094 219.21794922 -591.31242187 219.74839844 -590.12109375 220.29492188 C-588.98027344 220.82021484 -587.83945313 221.34550781 -586.6640625 221.88671875 C-585.53645508 222.40411621 -584.40884766 222.92151367 -583.24707031 223.45458984 C-579.44674196 225.26331755 -575.75975148 227.24752255 -572.09912109 229.32348633 C-570.01144374 230.18634448 -570.01144374 230.18634448 -567.84741211 229.55761719 C-565.00871254 227.16421118 -564.82221511 224.64303688 -564.04296875 221.05859375 C-563.89088455 220.37571793 -563.73880035 219.6928421 -563.58210754 218.98927307 C-563.26434821 217.54771287 -562.9546919 216.10434596 -562.65258789 214.65942383 C-562.18774044 212.4386487 -561.69869934 210.22430419 -561.20507812 208.00976562 C-559.99754717 202.52538186 -559.99754717 202.52538186 -559 197 C-560.10895216 195.67401348 -560.10895216 195.67401348 -562.91015625 195.77734375 C-567.93850323 195.85797135 -572.62052416 197.21707892 -577.4375 198.5625 Z M-631.203125 225.78515625 C-632.01120605 225.98318848 -632.81928711 226.1812207 -633.65185547 226.38525391 C-634.50924316 226.60874512 -635.36663086 226.83223633 -636.25 227.0625 C-637.13445801 227.28856934 -638.01891602 227.51463867 -638.93017578 227.74755859 C-649.34717476 230.49635894 -659.41621217 234.04691088 -669 239 C-668.74623656 240.94200528 -668.74623656 240.94200528 -668 243 C-665.45688399 244.57491406 -663.04259394 245.87483194 -660.3515625 247.14453125 C-659.5832309 247.5185759 -658.81489929 247.89262054 -658.02328491 248.27799988 C-656.39740324 249.06547284 -654.7681072 249.84592903 -653.13574219 250.61987305 C-650.63337999 251.80851942 -648.14452761 253.02242525 -645.65625 254.24023438 C-644.07626021 255.0015364 -642.49555366 255.76135302 -640.9140625 256.51953125 C-640.16710114 256.88399857 -639.42013977 257.24846588 -638.65054321 257.62397766 C-634.47133137 259.74719545 -634.47133137 259.74719545 -630 259 C-628.83627562 255.96410203 -628.83627562 255.96410203 -628 252.25 C-627.75008301 251.24477295 -627.75008301 251.24477295 -627.49511719 250.21923828 C-626.98449583 248.14892741 -626.49224535 246.07474496 -626 244 C-625.69578125 242.77539062 -625.3915625 241.55078125 -625.078125 240.2890625 C-623.35765153 233.22710684 -623.35765153 233.22710684 -623 226 C-626.07828343 225.02711363 -628.08009907 225.01425158 -631.203125 225.78515625 Z M-702.87158203 267.8984375 C-705.72535206 268.86532553 -708.55233257 269.88343611 -711.375 270.9375 C-712.25969971 271.26097412 -713.14439941 271.58444824 -714.0559082 271.91772461 C-719.1305359 273.89263279 -722.47276611 275.82683233 -726 280 C-720.68001156 282.69385553 -715.34418552 285.35449523 -710 288 C-709.08573242 288.4542334 -708.17146484 288.9084668 -707.22949219 289.37646484 C-704.38746897 290.78293181 -701.53850816 292.17435022 -698.6875 293.5625 C-697.77460205 294.01608887 -696.8617041 294.46967773 -695.92114258 294.93701172 C-695.06415771 295.35096191 -694.20717285 295.76491211 -693.32421875 296.19140625 C-692.56197998 296.56467041 -691.79974121 296.93793457 -691.0144043 297.32250977 C-688.8364862 298.28002227 -688.8364862 298.28002227 -686 297 C-684.83627562 293.96410203 -684.83627562 293.96410203 -684 290.25 C-683.75008301 289.24477295 -683.75008301 289.24477295 -683.49511719 288.21923828 C-682.98449583 286.14892741 -682.49224535 284.07474496 -682 282 C-681.69578125 280.77539062 -681.3915625 279.55078125 -681.078125 278.2890625 C-679.35765153 271.22710684 -679.35765153 271.22710684 -679 264 C-684.76869719 261.11565141 -696.93614426 266.04140545 -702.87158203 267.8984375 Z M-654.375 307.5625 C-655.81190186 307.95816162 -655.81190186 307.95816162 -657.27783203 308.36181641 C-666.15729707 310.89017147 -674.58456213 314.22756233 -683 318 C-683 319.32 -683 320.64 -683 322 C-682.06542969 322.46148438 -681.13085938 322.92296875 -680.16796875 323.3984375 C-678.84098502 324.05696772 -677.51417697 324.715852 -676.1875 325.375 C-675.12934082 325.89888306 -675.12934082 325.89888306 -674.04980469 326.43334961 C-669.94102535 328.48192074 -665.87741143 330.59264506 -661.84765625 332.79296875 C-660.99856689 333.2533252 -660.14947754 333.71368164 -659.2746582 334.18798828 C-657.61010296 335.09423004 -655.95089806 336.01037894 -654.29760742 336.93701172 C-653.53424072 337.35096191 -652.77087402 337.76491211 -651.984375 338.19140625 C-651.31116211 338.56467041 -650.63794922 338.93793457 -649.94433594 339.32250977 C-647.57646759 340.1475769 -646.33136703 339.81623851 -644 339 C-642.99569004 334.96329975 -641.99903 330.92480919 -641.00927734 326.88452148 C-640.67183363 325.5116141 -640.33234027 324.13920874 -639.99072266 322.76733398 C-639.49876979 320.79019979 -639.0143262 318.81135049 -638.53125 316.83203125 C-638.23798828 315.64327393 -637.94472656 314.4545166 -637.64257812 313.22973633 C-637.07367599 310.37031142 -636.86609323 307.90051639 -637 305 C-643.17386879 304.65324847 -648.44708347 305.90177282 -654.375 307.5625 Z M-759.875 323.6875 C-760.57512207 323.97246338 -761.27524414 324.25742676 -761.99658203 324.55102539 C-765.40875839 326.02613017 -766.88816981 326.83225472 -769 330 C-766.38648109 333.08702839 -763.36831882 334.40381389 -759.72265625 336.06640625 C-759.11489853 336.34596664 -758.50714081 336.62552704 -757.88096619 336.91355896 C-755.9442844 337.80282736 -754.00357329 338.68286463 -752.0625 339.5625 C-750.12599164 340.44776785 -748.1903358 341.33487978 -746.25474548 342.22215271 C-744.49677037 343.02676367 -742.73683717 343.82709237 -740.97680664 344.62719727 C-739.24257869 345.42696465 -737.52256086 346.26270263 -735.84936523 347.18334961 C-733.72708836 348.26930158 -733.72708836 348.26930158 -730 348 C-727.84982796 341.07198057 -725.94887689 334.11434699 -724.25 327.0625 C-724.01667969 326.13115234 -723.78335937 325.19980469 -723.54296875 324.24023438 C-723.32769531 323.34755859 -723.11242188 322.45488281 -722.890625 321.53515625 C-722.69500977 320.734729 -722.49939453 319.93430176 -722.29785156 319.10961914 C-721.81402907 316.81499775 -721.81402907 316.81499775 -723 314 C-735.05914994 314 -748.80699749 319.14079683 -759.875 323.6875 Z M-701.5 365.625 C-702.2940625 365.91383057 -703.088125 366.20266113 -703.90625 366.50024414 C-707.68705908 367.93076511 -710.91926935 369.29616725 -714 372 C-713.27633104 375.2924337 -713.27633104 375.2924337 -709.96484375 376.70166016 C-708.62724995 377.32465744 -707.28437785 377.93639938 -705.9375 378.5390625 C-705.23101318 378.86538666 -704.52452637 379.19171082 -703.79663086 379.52792358 C-701.53546263 380.57013984 -699.26810148 381.5979714 -697 382.625 C-694.73327779 383.66195586 -692.46791105 384.70179172 -690.20336914 385.74349976 C-688.79265172 386.39128514 -687.38040796 387.03575836 -685.96655273 387.67666626 C-681.10886932 389.89113068 -681.10886932 389.89113068 -680 391 C-678.33382885 391.04063832 -676.66611905 391.042721 -675 391 C-672.84982796 384.07198057 -670.94887689 377.11434699 -669.25 370.0625 C-669.01667969 369.13115234 -668.78335937 368.19980469 -668.54296875 367.24023438 C-668.32769531 366.34755859 -668.11242188 365.45488281 -667.890625 364.53515625 C-667.69500977 363.734729 -667.49939453 362.93430176 -667.29785156 362.10961914 C-666.81402907 359.81499775 -666.81402907 359.81499775 -668 357 C-679.09277649 357 -691.1972283 361.84899393 -701.5 365.625 Z M-753.875 374.125 C-754.70273926 374.34655762 -755.53047852 374.56811523 -756.38330078 374.79638672 C-761.97208443 376.33594651 -767.44428272 378.09823125 -772.875 380.125 C-773.52194824 380.36621582 -774.16889648 380.60743164 -774.83544922 380.85595703 C-778.45720295 382.25882325 -781.7334351 383.90095259 -785 386 C-783.96022508 389.14768226 -783.01977679 389.9882979 -780.11425781 391.70751953 C-778.89998051 392.27909393 -777.67908132 392.83673762 -776.453125 393.3828125 C-775.80430359 393.68315399 -775.15548218 393.98349548 -774.48699951 394.29293823 C-772.41322673 395.24886017 -770.3317773 396.18665958 -768.25 397.125 C-766.86408172 397.7632348 -765.47865887 398.40254657 -764.09375 399.04296875 C-762.75565823 399.65723098 -761.41712981 400.27054312 -760.078125 400.8828125 C-759.45915344 401.16617462 -758.84018188 401.44953674 -758.20245361 401.7414856 C-754.52858631 403.39508109 -750.84236577 404.79036633 -747 406 C-744.25613428 403.25613428 -744.09043721 400.83642976 -743.23828125 397.05859375 C-743.08336716 396.37571793 -742.92845306 395.6928421 -742.7688446 394.98927307 C-742.44348244 393.54679049 -742.12177906 392.10347848 -741.8034668 390.65942383 C-741.31316516 388.44051028 -740.80882818 386.22512426 -740.30273438 384.00976562 C-739.98874153 382.60956351 -739.6755623 381.20917864 -739.36328125 379.80859375 C-739.07751221 378.52782959 -738.79174316 377.24706543 -738.49731445 375.92749023 C-738.33320068 374.96141846 -738.16908691 373.99534668 -738 373 C-739.06145285 371.72185794 -739.06145285 371.72185794 -741.5078125 371.8046875 C-745.82787171 372.04630155 -749.71084304 372.99532117 -753.875 374.125 Z M262.8125 383.125 C260.29730871 387.11461377 258.87752648 391.36633212 258 396 C258.33 396.66 258.66 397.32 259 398 C265.71828758 398.38555452 271.89822428 396.93592405 278.4375 395.5 C279.55060547 395.26152344 280.66371094 395.02304687 281.81054688 394.77734375 C284.54180031 394.19123786 287.27146868 393.59862748 290 393 C291.00263328 389.35427888 291.00263328 389.35427888 289.9609375 385.8671875 C285.1065847 379.52897416 285.1065847 379.52897416 277.8984375 376.69140625 C271.1696241 376.32008377 267.63051393 378.44464361 262.8125 383.125 Z M169.4140625 396.921875 C166.57669108 401.09171366 165.97686948 404.65842969 166.0625 409.625 C167.25465549 413.91675976 168.29068574 415.5018904 172 418 C178.65422672 418.83669634 185.06705944 417.61329442 191.5078125 416.03125 C192.35930878 415.8314856 193.21080505 415.63172119 194.08810425 415.42590332 C196.7696555 414.79431165 199.44724362 414.14747048 202.125 413.5 C203.95809177 413.06538613 205.79142355 412.63178324 207.625 412.19921875 C212.08618927 411.1444628 216.54389587 410.076028 221 409 C219.44802386 402.24258353 215.2185057 397.56452271 209.5625 393.6875 C195.5876632 385.04423959 180.51393574 383.23709978 169.4140625 396.921875 Z M-316 411 C-316 412.65 -316 414.3 -316 416 C-311.09863806 418.47803741 -306.18751303 420.93504629 -301.26611328 423.37304688 C-299.5930068 424.20554154 -297.92272498 425.04373815 -296.25537109 425.88769531 C-293.85972243 427.09905841 -291.45470132 428.28962845 -289.046875 429.4765625 C-287.9294693 430.04982773 -287.9294693 430.04982773 -286.78948975 430.63467407 C-282.87780256 432.57288763 -282.87780256 432.57288763 -278.6171875 432.63598633 C-276.16665257 430.15696541 -275.82832 427.72863864 -275.078125 424.34765625 C-274.85355621 423.3637516 -274.85355621 423.3637516 -274.62445068 422.35997009 C-274.1505121 420.26398965 -273.70046654 418.16363556 -273.25 416.0625 C-272.93245744 414.6513616 -272.61346335 413.24054899 -272.29296875 411.83007812 C-270.6314379 404.98121064 -270.6314379 404.98121064 -270 398 C-285.98588569 396.85815102 -301.96526888 403.98263444 -316 411 Z M-247 413 C-247.03179431 414.90370093 -247.03179431 414.90370093 -246 417 C-243.68692188 418.40054105 -241.53344439 419.51262759 -239.078125 420.6015625 C-238.38112488 420.92410004 -237.68412476 421.24663757 -236.96600342 421.57894897 C-234.73333885 422.60802053 -232.49201125 423.6164795 -230.25 424.625 C-228.7546095 425.3111965 -227.25980982 425.99868211 -225.765625 426.6875 C-217.45463003 430.50999714 -217.45463003 430.50999714 -209 434 C-205.28519352 428.35705061 -204.21639186 422.4544017 -202.75 415.9375 C-202.46898437 414.75349609 -202.18796875 413.56949219 -201.8984375 412.34960938 C-201.63804687 411.21201172 -201.37765625 410.07441406 -201.109375 408.90234375 C-200.87186523 407.86585693 -200.63435547 406.82937012 -200.38964844 405.76147461 C-200.01330645 403.09430408 -200.12231286 401.51450591 -201 399 C-216.41812419 398.59202317 -234.14262801 404.42841868 -247 413 Z M-387 417 C-387.04483228 418.89224006 -387.04483228 418.89224006 -386 421 C-383.63313497 422.49334527 -381.40994872 423.7035296 -378.89453125 424.890625 C-378.17770676 425.24010193 -377.46088226 425.58957886 -376.72233582 425.949646 C-375.20323495 426.685916 -373.68067981 427.41509482 -372.1550293 428.13769531 C-369.82980815 429.24178156 -367.51922953 430.37278223 -365.20898438 431.5078125 C-363.72996486 432.22040905 -362.25017022 432.93139948 -360.76953125 433.640625 C-360.0818013 433.97805725 -359.39407135 434.3154895 -358.6855011 434.66314697 C-354.61765174 436.56655017 -351.48777679 437.37474396 -347 437 C-345.9729743 432.80355091 -344.95811673 428.60440009 -343.9543457 424.40234375 C-343.6113093 422.9738086 -343.2649829 421.54605926 -342.9152832 420.11914062 C-342.41266997 418.06579039 -341.92202713 416.00988803 -341.43359375 413.953125 C-341.13509521 412.71723633 -340.83659668 411.48134766 -340.52905273 410.20800781 C-340.04694442 407.28465604 -339.97325894 405.72607192 -341 403 C-355.8974612 403 -373.86610682 410.25995132 -387 417 Z M-146.875 411.625 C-147.61024902 411.8003125 -148.34549805 411.975625 -149.10302734 412.15625 C-154.39241301 413.47492715 -159.51761427 415.09758045 -164.625 417 C-165.2629248 417.2367041 -165.90084961 417.4734082 -166.55810547 417.71728516 C-170.9813806 419.43376261 -174.93860697 421.57778102 -179 424 C-178.2899065 427.24363183 -178.2899065 427.24363183 -175.2277832 428.578125 C-174.0070115 429.14606058 -172.78090056 429.70260538 -171.55078125 430.25 C-170.90054489 430.54938477 -170.25030853 430.84876953 -169.58036804 431.15722656 C-167.49542917 432.11468448 -165.4042837 433.05760348 -163.3125 434 C-161.24014564 434.94559761 -159.16913164 435.89408597 -157.09819031 436.84277344 C-155.80930632 437.43187337 -154.51933489 438.018602 -153.22810364 438.60253906 C-149.4405393 440.31809174 -145.70774908 442.11831823 -142 444 C-138.87256505 441.4589932 -138.26980651 439.06447802 -137.39453125 435.1953125 C-137.13349609 434.05449219 -136.87246094 432.91367187 -136.60351562 431.73828125 C-136.34248047 430.54589844 -136.08144531 429.35351562 -135.8125 428.125 C-135.53986328 426.94035156 -135.26722656 425.75570313 -134.98632812 424.53515625 C-133.34907705 417.34030828 -133.34907705 417.34030828 -133 410 C-137.8269738 409.80451508 -142.20490046 410.50357226 -146.875 411.625 Z M-674.875 415.625 C-675.61097412 415.8003125 -676.34694824 415.975625 -677.10522461 416.15625 C-687.83394002 418.8289896 -698.27162765 422.73046498 -708 428 C-704.92003773 431.45589816 -701.92780019 433.21664272 -697.73046875 435.12890625 C-697.131241 435.40468002 -696.53201324 435.6804538 -695.91462708 435.96458435 C-694.00928791 436.83893907 -692.09857488 437.70076579 -690.1875 438.5625 C-688.91565036 439.14438458 -687.64416221 439.72705998 -686.37304688 440.31054688 C-680.61221603 442.94684345 -674.82895346 445.51822925 -669 448 C-666.93158391 444.89737586 -666.32440094 442.79414857 -665.4921875 439.1953125 C-665.22792969 438.05449219 -664.96367188 436.91367187 -664.69140625 435.73828125 C-664.42199219 434.54589844 -664.15257812 433.35351562 -663.875 432.125 C-663.59785156 430.94035156 -663.32070312 429.75570313 -663.03515625 428.53515625 C-661.36052885 421.34333591 -661.36052885 421.34333591 -661 414 C-665.82700663 413.80451375 -670.2048597 414.50369193 -674.875 415.625 Z M-428.4375 418.625 C-429.89216675 419.0267041 -429.89216675 419.0267041 -431.3762207 419.43652344 C-445.27210315 423.3718587 -445.27210315 423.3718587 -458 430 C-458 430.99 -458 431.98 -458 433 C-453.25280028 435.26748419 -448.50218485 437.52758987 -443.74829102 439.78100586 C-442.13242783 440.54820481 -440.51750695 441.31739178 -438.90356445 442.08862305 C-436.58010345 443.19847461 -434.25331876 444.3010719 -431.92578125 445.40234375 C-431.20787918 445.74716293 -430.48997711 446.09198212 -429.75032043 446.44725037 C-426.17810854 448.12882783 -422.95385624 449.45731385 -419 450 C-416.88652956 443.85260489 -415.34468571 437.62510511 -413.8125 431.3125 C-413.52697266 430.17232422 -413.24144531 429.03214844 -412.94726562 427.85742188 C-412.68236328 426.76623047 -412.41746094 425.67503906 -412.14453125 424.55078125 C-411.77871948 423.06058472 -411.77871948 423.06058472 -411.40551758 421.5402832 C-410.78133717 418.88628305 -410.78133717 418.88628305 -412 416 C-417.81633651 415.59353389 -422.89426803 417.0753099 -428.4375 418.625 Z M-743.8125 430.625 C-744.55298584 430.8003125 -745.29347168 430.975625 -746.05639648 431.15625 C-756.63448784 433.77582187 -767.59940725 437.43638388 -777 443 C-777.33 443.99 -777.66 444.98 -778 446 C-774.08591346 447.90119262 -770.16826238 449.79493046 -766.25 451.6875 C-764.61224609 452.48317383 -764.61224609 452.48317383 -762.94140625 453.29492188 C-757.45440978 455.94101781 -751.94444403 458.52387354 -746.359375 460.95703125 C-745.39999023 461.37573486 -744.44060547 461.79443848 -743.45214844 462.22583008 C-740.9039889 463.29420172 -740.9039889 463.29420172 -738 462 C-736.83627562 458.96410203 -736.83627562 458.96410203 -736 455.25 C-735.75008301 454.24477295 -735.75008301 454.24477295 -735.49511719 453.21923828 C-734.98449583 451.14892741 -734.49224535 449.07474496 -734 447 C-733.69578125 445.77539062 -733.3915625 444.55078125 -733.078125 443.2890625 C-731.35765153 436.22710684 -731.35765153 436.22710684 -731 429 C-735.44239738 428.77572363 -739.51712064 429.60590692 -743.8125 430.625 Z M-497.75 434.5625 C-498.76537842 434.82844971 -499.78075684 435.09439941 -500.8269043 435.3684082 C-507.30804303 437.12608284 -513.59531429 439.14751888 -519.8125 441.6875 C-520.51665039 441.97246338 -521.22080078 442.25742676 -521.94628906 442.55102539 C-525.37958937 444.02373052 -526.87761348 444.81642023 -529 448 C-523.54565533 451.94391076 -517.63973011 454.70330793 -511.5625 457.5625 C-510.55123047 458.04396484 -509.53996094 458.52542969 -508.49804688 459.02148438 C-506.54157499 459.94930894 -504.58156966 460.86972869 -502.61767578 461.78173828 C-501.03508598 462.5182728 -499.45845026 463.26807528 -497.89404297 464.04248047 C-494.08279466 465.85888325 -492.04490592 465.9969929 -488 465 C-486.9872056 460.81548911 -485.99206632 456.62696925 -485 452.4375 C-484.57074219 450.66536133 -484.57074219 450.66536133 -484.1328125 448.85742188 C-482.78554399 443.13153071 -481.58479624 437.89070335 -482 432 C-487.5483949 431.83132385 -492.4145188 433.16410689 -497.75 434.5625 Z M-78.84375 434.13671875 C-80.20983398 434.50446411 -80.20983398 434.50446411 -81.60351562 434.87963867 C-82.55935547 435.14623291 -83.51519531 435.41282715 -84.5 435.6875 C-85.48162109 435.95860596 -86.46324219 436.22971191 -87.47460938 436.5090332 C-97.05496602 439.20804765 -106.11728081 442.46720065 -115 447 C-114.32202144 450.09381411 -114.32202144 450.09381411 -111.99731445 451.25512695 C-110.69346802 451.86553833 -110.69346802 451.86553833 -109.36328125 452.48828125 C-108.39914307 452.94485107 -107.43500488 453.4014209 -106.44165039 453.87182617 C-104.89272095 454.58495972 -104.89272095 454.58495972 -103.3125 455.3125 C-102.27279053 455.80016846 -101.23308105 456.28783691 -100.16186523 456.7902832 C-92.51067982 460.35909483 -84.80965985 463.79221944 -77 467 C-74.25613428 464.25613428 -74.09043721 461.83642976 -73.23828125 458.05859375 C-73.08336716 457.37571793 -72.92845306 456.6928421 -72.7688446 455.98927307 C-72.44348244 454.54679049 -72.12177906 453.10347848 -71.8034668 451.65942383 C-71.31316516 449.44051028 -70.80882818 447.22512426 -70.30273438 445.00976562 C-69.98874153 443.60956351 -69.6755623 442.20917864 -69.36328125 440.80859375 C-69.07751221 439.52782959 -68.79174316 438.24706543 -68.49731445 436.92749023 C-68.33320068 435.96141846 -68.16908691 434.99534668 -68 434 C-69.03148882 432.74712442 -69.03148882 432.74712442 -71.25976562 432.86645508 C-73.96379208 432.99823541 -76.23506856 433.43205411 -78.84375 434.13671875 Z M-564.25 452.5625 C-565.04269287 452.74304932 -565.83538574 452.92359863 -566.65209961 453.10961914 C-578.01140594 455.82142886 -589.06944354 459.76581733 -599 466 C-595.81581332 469.60751785 -592.28313145 471.6217256 -588.00390625 473.671875 C-587.33334702 473.99915588 -586.66278778 474.32643677 -585.97190857 474.66363525 C-584.55937676 475.35006629 -583.1447816 476.03226578 -581.72827148 476.71044922 C-579.56662661 477.74801927 -577.41506801 478.80465386 -575.26367188 479.86328125 C-573.88598238 480.52981639 -572.50774467 481.19521986 -571.12890625 481.859375 C-570.48917374 482.17493347 -569.84944122 482.49049194 -569.19032288 482.81561279 C-565.64858051 484.49156633 -562.92773272 485.37527001 -559 485 C-558.74605469 483.98421875 -558.49210937 482.9684375 -558.23046875 481.921875 C-557.98248535 480.93054565 -557.98248535 480.93054565 -557.72949219 479.91918945 C-557.36609707 478.46479052 -557.00347541 477.01019812 -556.64160156 475.55541992 C-555.80075331 472.17900493 -554.94940206 468.80713505 -554.06640625 465.44140625 C-553.79699219 464.40886719 -553.52757812 463.37632812 -553.25 462.3125 C-553.00765625 461.40113281 -552.7653125 460.48976563 -552.515625 459.55078125 C-551.99263006 456.96354111 -551.90515665 454.63190288 -552 452 C-556.33860432 450.68365256 -559.92576842 451.56403799 -564.25 452.5625 Z M-635.3125 459.125 C-636.19244629 459.34655762 -637.07239258 459.56811523 -637.97900391 459.79638672 C-648.39109519 462.50514706 -658.42941624 466.053735 -668 471 C-666.96158636 474.03116715 -666.10186354 474.93968993 -663.29785156 476.59985352 C-662.1734668 477.10444092 -661.04908203 477.60902832 -659.890625 478.12890625 C-659.28619568 478.40468002 -658.68176636 478.6804538 -658.059021 478.96458435 C-656.12787598 479.84262493 -654.1894013 480.70287218 -652.25 481.5625 C-650.32685293 482.42965484 -648.40533102 483.30034196 -646.48382568 484.17112732 C-644.73161444 484.96279619 -642.97576273 485.746393 -641.21972656 486.52954102 C-638 488 -638 488 -634.83496094 489.74975586 C-632.14668878 491.2284671 -632.14668878 491.2284671 -629.625 490.6875 C-629.08875 490.460625 -628.5525 490.23375 -628 490 C-626.99720444 485.94462159 -626.00047442 481.8878146 -625.00927734 477.82958984 C-624.67141344 476.44995189 -624.33191099 475.07071411 -623.99072266 473.69189453 C-623.49988814 471.70709142 -623.01501256 469.72091201 -622.53125 467.734375 C-622.23798828 466.54038086 -621.94472656 465.34638672 -621.64257812 464.11621094 C-620.86536266 460.87736571 -620.86536266 460.87736571 -621 457 C-625.99173143 456.65434039 -630.5156889 457.90963792 -635.3125 459.125 Z M-299.1875 459 C-300.05084961 459.21422607 -300.91419922 459.42845215 -301.80371094 459.64916992 C-311.2752098 462.13384948 -320.10925266 465.94686518 -329 470 C-329 471.32 -329 472.64 -329 474 C-325.39671657 475.73101137 -321.79220841 477.45945825 -318.1875 479.1875 C-317.18267578 479.67025391 -316.17785156 480.15300781 -315.14257812 480.65039062 C-312.09894555 482.10859401 -309.05007623 483.5553299 -306 485 C-304.98502441 485.48807129 -303.97004883 485.97614258 -302.92431641 486.47900391 C-301.9554248 486.93581543 -300.9865332 487.39262695 -299.98828125 487.86328125 C-299.12372314 488.27489502 -298.25916504 488.68650879 -297.3684082 489.1105957 C-294.79753913 490.23437133 -294.79753913 490.23437133 -291 490 C-286.31171848 474.16054507 -286.31171848 474.16054507 -283 458 C-284.0590422 456.72363259 -284.0590422 456.72363259 -286.48828125 456.8125 C-290.88782144 457.04740315 -294.92204456 457.93363614 -299.1875 459 Z M-229.75 461.5625 C-231.27089233 461.95816162 -231.27089233 461.95816162 -232.82250977 462.36181641 C-241.90380365 464.8123583 -250.4453804 468.11884373 -259 472 C-259 473.32 -259 474.64 -259 476 C-250.62695932 480.23723189 -242.22896009 484.4156543 -233.75 488.4375 C-232.67890991 488.94990234 -232.67890991 488.94990234 -231.58618164 489.47265625 C-226.94966037 491.72447757 -226.94966037 491.72447757 -222 493 C-219.25613428 490.25613428 -219.09043721 487.83642976 -218.23828125 484.05859375 C-218.08336716 483.37571793 -217.92845306 482.6928421 -217.7688446 481.98927307 C-217.44348244 480.54679049 -217.12177906 479.10347848 -216.8034668 477.65942383 C-216.31316516 475.44051028 -215.80882818 473.22512426 -215.30273438 471.00976562 C-214.98874153 469.60956351 -214.6755623 468.20917864 -214.36328125 466.80859375 C-214.07751221 465.52782959 -213.79174316 464.24706543 -213.49731445 462.92749023 C-213.33320068 461.96141846 -213.16908691 460.99534668 -213 460 C-214.03085942 458.74730195 -214.03085942 458.74730195 -216.25488281 458.87084961 C-220.90374565 459.08956612 -225.26264536 460.38730147 -229.75 461.5625 Z M-368.9375 464.625 C-369.67605225 464.8010376 -370.41460449 464.9770752 -371.17553711 465.15844727 C-381.81792829 467.8221715 -391.94493065 471.71689066 -401 478 C-398.23113477 481.36465583 -394.46960785 482.94128702 -390.62890625 484.79296875 C-389.9101683 485.14386063 -389.19143036 485.4947525 -388.45091248 485.85627747 C-386.93355834 486.59473707 -385.41464223 487.32999465 -383.89428711 488.06225586 C-381.56949941 489.18412231 -379.25240139 490.32084158 -376.93554688 491.45898438 C-375.45877475 492.1753898 -373.98157504 492.89091462 -372.50390625 493.60546875 C-371.81212784 493.94603806 -371.12034943 494.28660736 -370.40760803 494.63749695 C-366.94867646 496.28881724 -364.90909721 497 -361 497 C-355.73334914 480.70555303 -355.73334914 480.70555303 -354 464 C-355.06784914 462.71196577 -355.06784914 462.71196577 -357.56640625 462.8359375 C-361.47870556 463.0228733 -365.14211853 463.71830859 -368.9375 464.625 Z M-158.25 472.5625 C-159.43795166 472.83223633 -159.43795166 472.83223633 -160.64990234 473.10742188 C-171.57433444 475.70961681 -182.11807693 479.64729167 -192 485 C-192 486.32 -192 487.64 -192 489 C-191.1529248 489.40839111 -190.30584961 489.81678223 -189.43310547 490.23754883 C-186.26838873 491.76357238 -183.10385933 493.28998307 -179.93945312 494.81665039 C-178.57396729 495.47533259 -177.20840856 496.1338637 -175.84277344 496.79223633 C-173.87154929 497.74259658 -171.90059434 498.69351316 -169.9296875 499.64453125 C-168.15440674 500.50075073 -168.15440674 500.50075073 -166.34326172 501.37426758 C-164.13756413 502.44683515 -161.9598043 503.57913642 -159.81689453 504.7722168 C-157.14177252 506.22633327 -157.14177252 506.22633327 -154.625 505.6875 C-154.08875 505.460625 -153.5525 505.23375 -153 505 C-151.99720444 500.94462159 -151.00047442 496.8878146 -150.00927734 492.82958984 C-149.67141344 491.44995189 -149.33191099 490.07071411 -148.99072266 488.69189453 C-148.49988814 486.70709142 -148.01501256 484.72091201 -147.53125 482.734375 C-147.23798828 481.54038086 -146.94472656 480.34638672 -146.64257812 479.11621094 C-145.86536266 475.87736571 -145.86536266 475.87736571 -146 472 C-150.33872764 470.68361515 -153.92562952 471.56435742 -158.25 472.5625 Z M-459.8125 487 C-461.09278076 487.49790039 -461.09278076 487.49790039 -462.39892578 488.00585938 C-466.70958399 489.76714778 -469.98404855 491.29822945 -473 495 C-470.03929432 497.38289054 -467.10290891 499.00223917 -463.640625 500.55859375 C-462.60679687 501.02716797 -461.57296875 501.49574219 -460.5078125 501.97851562 C-459.43273438 502.45998047 -458.35765625 502.94144531 -457.25 503.4375 C-455.12961688 504.39322013 -453.00981298 505.35022648 -450.890625 506.30859375 C-449.88064453 506.76347168 -448.87066406 507.21834961 -447.83007812 507.68701172 C-445.33975452 508.84237407 -442.91312339 510.06969342 -440.484375 511.34765625 C-437.04034987 513.28565213 -437.04034987 513.28565213 -433 513 C-432.74605469 511.98421875 -432.49210937 510.9684375 -432.23046875 509.921875 C-431.98248535 508.9306665 -431.98248535 508.9306665 -431.72949219 507.91943359 C-431.36594416 506.46425894 -431.00332496 505.00885195 -430.64160156 503.55322266 C-429.80420843 500.18808794 -428.95462905 496.82876738 -428.06640625 493.4765625 C-427.79699219 492.45304687 -427.52757812 491.42953125 -427.25 490.375 C-427.00765625 489.47523438 -426.7653125 488.57546875 -426.515625 487.6484375 C-425.94397961 484.71225889 -425.91248892 481.98412786 -426 479 C-437.63159272 478.56786652 -449.13204561 482.79260741 -459.8125 487 Z M-711 486.625 C-711.73404053 486.8003125 -712.46808105 486.975625 -713.22436523 487.15625 C-723.65300209 489.77433659 -733.51047727 493.96474304 -743 499 C-742.27807342 502.28660538 -742.27807342 502.28660538 -738.99658203 503.68579102 C-737.67183391 504.30234119 -736.34181583 504.90764555 -735.0078125 505.50390625 C-734.30606903 505.82785873 -733.60432556 506.15181122 -732.88131714 506.48558044 C-730.63358616 507.52108481 -728.37968924 508.54224712 -726.125 509.5625 C-723.87877661 510.58899477 -721.63392938 511.6184009 -719.3901062 512.65013123 C-717.99279155 513.29153287 -716.59385362 513.92941254 -715.19314575 514.56336975 C-712.29013411 515.88673068 -709.66210464 517.22526357 -707 519 C-704.84725052 518.69159401 -704.84725052 518.69159401 -703 518 C-701.04266572 510.26008424 -699.09679664 502.51714949 -697.25 494.75 C-697.00765625 493.73421875 -696.7653125 492.7184375 -696.515625 491.671875 C-695.87367582 488.79894 -695.87367582 488.79894 -696 485 C-701.21703275 484.8233817 -705.91587433 485.39635106 -711 486.625 Z M-505.203125 497.78515625 C-506.01120605 497.98318848 -506.81928711 498.1812207 -507.65185547 498.38525391 C-508.50924316 498.60874512 -509.36663086 498.83223633 -510.25 499.0625 C-511.13445801 499.28856934 -512.01891602 499.51463867 -512.93017578 499.74755859 C-523.34717476 502.49635894 -533.41621217 506.04691088 -543 511 C-543 511.99 -543 512.98 -543 514 C-534.3625465 518.74993603 -525.61771756 523.25674322 -516.75 527.5625 C-515.83323486 528.01608887 -514.91646973 528.46967773 -513.97192383 528.93701172 C-513.10978271 529.35096191 -512.2476416 529.76491211 -511.359375 530.19140625 C-510.59077148 530.56467041 -509.82216797 530.93793457 -509.03027344 531.32250977 C-506.83846968 532.27963416 -506.83846968 532.27963416 -504 531 C-502.83627562 527.96410203 -502.83627562 527.96410203 -502 524.25 C-501.75008301 523.24477295 -501.75008301 523.24477295 -501.49511719 522.21923828 C-500.98449583 520.14892741 -500.49224535 518.07474496 -500 516 C-499.69578125 514.77539062 -499.3915625 513.55078125 -499.078125 512.2890625 C-497.35765153 505.22710684 -497.35765153 505.22710684 -497 498 C-500.07828343 497.02711363 -502.08009907 497.01425158 -505.203125 497.78515625 Z M-584.4375 517.5625 C-585.3980127 517.82627441 -586.35852539 518.09004883 -587.34814453 518.36181641 C-595.93946164 520.81137731 -603.97089369 524.11198004 -612 528 C-612 529.32 -612 530.64 -612 532 C-608.03825282 533.94612816 -604.07290741 535.88467202 -600.10424805 537.81665039 C-598.75821414 538.47316986 -597.41313663 539.13165434 -596.0690918 539.79223633 C-588.84384826 543.34171447 -581.74606997 546.71274114 -574 549 C-571.55359132 542.86239233 -569.7841942 536.73523606 -568.25 530.3125 C-568.01667969 529.38888672 -567.78335938 528.46527344 -567.54296875 527.51367188 C-567.32769531 526.61841797 -567.11242188 525.72316406 -566.890625 524.80078125 C-566.69500977 523.99809814 -566.49939453 523.19541504 -566.29785156 522.3684082 C-565.9601464 519.68309855 -566.34071167 517.61021405 -567 515 C-573.18938783 514.6519 -578.49261903 515.90396811 -584.4375 517.5625 Z M-309.25 518.5625 C-310.04269287 518.74304932 -310.83538574 518.92359863 -311.65209961 519.10961914 C-323.01140594 521.82142886 -334.06944354 525.76581733 -344 532 C-344 532.66 -344 533.32 -344 534 C-336.67960306 537.69280267 -329.34650164 541.3594003 -322 545 C-321.1862793 545.40395996 -320.37255859 545.80791992 -319.53417969 546.22412109 C-317.46581721 547.24471257 -315.39119211 548.25065418 -313.3125 549.25 C-312.15363281 549.81203125 -310.99476563 550.3740625 -309.80078125 550.953125 C-306.9790798 552.3421188 -306.9790798 552.3421188 -304 551 C-302.83627562 547.96410203 -302.83627562 547.96410203 -302 544.25 C-301.75008301 543.24477295 -301.75008301 543.24477295 -301.49511719 542.21923828 C-300.98449583 540.14892741 -300.49224535 538.07474496 -300 536 C-299.69578125 534.77539062 -299.3915625 533.55078125 -299.078125 532.2890625 C-297.35765153 525.22710684 -297.35765153 525.22710684 -297 518 C-301.33860432 516.68365256 -304.92576842 517.56403799 -309.25 518.5625 Z M-649.0625 520.4375 C-650.65288086 520.83606201 -650.65288086 520.83606201 -652.27539062 521.24267578 C-662.2950935 523.87067155 -671.62265343 527.64307247 -681 532 C-680.93943555 533.91537791 -680.93943555 533.91537791 -680 536 C-677.45840614 537.71842152 -677.45840614 537.71842152 -674.2421875 539.12890625 C-672.46714844 539.96905273 -672.46714844 539.96905273 -670.65625 540.82617188 C-669.39593835 541.40517656 -668.1355208 541.98395078 -666.875 542.5625 C-665.63741443 543.14389322 -664.40042744 543.72656243 -663.1640625 544.31054688 C-659.78529246 545.89571659 -656.40158607 547.46441666 -653 549 C-652.11420258 549.43987747 -652.11420258 549.43987747 -651.21051025 549.88864136 C-647.39498874 551.70622198 -645.05636436 552.35212145 -641 551 C-640.01996076 546.60436074 -639.04112071 542.20845528 -638.0625 537.8125 C-637.78470703 536.56662109 -637.50691406 535.32074219 -637.22070312 534.03710938 C-636.81948242 532.2340332 -636.81948242 532.2340332 -636.41015625 530.39453125 C-636.04096069 528.73707886 -636.04096069 528.73707886 -635.66430664 527.04614258 C-635.08046718 524.36897797 -634.5272584 521.68879908 -634 519 C-639.21399659 517.27657029 -643.90118672 519.12629518 -649.0625 520.4375 Z M-235.203125 520.78515625 C-236.01112549 520.98310791 -236.81912598 521.18105957 -237.65161133 521.38500977 C-238.93781372 521.72036743 -238.93781372 521.72036743 -240.25 522.0625 C-241.13518311 522.28929443 -242.02036621 522.51608887 -242.93237305 522.74975586 C-253.83379359 525.63142568 -264.27919981 529.21232767 -274 535 C-270.81464034 538.60436807 -267.27509357 540.6398542 -263.00390625 542.70703125 C-262.33334702 543.03668381 -261.66278778 543.36633636 -260.97190857 543.70597839 C-259.55945312 544.39673648 -258.14485598 545.08313054 -256.72827148 545.76538086 C-254.56511654 546.81123494 -252.41452409 547.88028861 -250.26367188 548.95117188 C-248.88611784 549.62123509 -247.50788418 550.28990328 -246.12890625 550.95703125 C-245.48917374 551.27775101 -244.84944122 551.59847076 -244.19032288 551.9289093 C-240.39685823 553.72444965 -238.02841582 554.35333708 -234 553 C-232.83607424 548.67515912 -231.68007603 544.34833818 -230.53466797 540.01855469 C-230.04792401 538.18092956 -229.55737254 536.34431403 -229.06640625 534.5078125 C-228.79699219 533.47398437 -228.52757812 532.44015625 -228.25 531.375 C-228.00765625 530.45460938 -227.7653125 529.53421875 -227.515625 528.5859375 C-226.99725249 525.9862208 -226.90457711 523.64321394 -227 521 C-230.07828343 520.02711363 -232.08009907 520.01425158 -235.203125 520.78515625 Z M-380.875 526.625 C-381.61097412 526.8003125 -382.34694824 526.975625 -383.10522461 527.15625 C-393.83394002 529.8289896 -404.27162765 533.73046498 -414 539 C-412.96158636 542.03116715 -412.10186354 542.93968993 -409.29785156 544.59985352 C-408.1734668 545.10444092 -407.04908203 545.60902832 -405.890625 546.12890625 C-405.28619568 546.40468002 -404.68176636 546.6804538 -404.059021 546.96458435 C-402.12787598 547.84262493 -400.1894013 548.70287218 -398.25 549.5625 C-396.32685293 550.42965484 -394.40533102 551.30034196 -392.48382568 552.17112732 C-390.73161444 552.96279619 -388.97576273 553.746393 -387.21972656 554.52954102 C-384 556 -384 556 -380.83496094 557.74975586 C-378.14668878 559.2284671 -378.14668878 559.2284671 -375.625 558.6875 C-375.08875 558.460625 -374.5525 558.23375 -374 558 C-372.99720444 553.94462159 -372.00047442 549.8878146 -371.00927734 545.82958984 C-370.67141344 544.44995189 -370.33191099 543.07071411 -369.99072266 541.69189453 C-369.49988814 539.70709142 -369.01501256 537.72091201 -368.53125 535.734375 C-368.23798828 534.54038086 -367.94472656 533.34638672 -367.64257812 532.11621094 C-366.86536266 528.87736571 -366.86536266 528.87736571 -367 525 C-371.82700663 524.80451375 -376.2048597 525.50369193 -380.875 526.625 Z M-447.203125 540.78515625 C-448.01120605 540.98318848 -448.81928711 541.1812207 -449.65185547 541.38525391 C-450.50924316 541.60874512 -451.36663086 541.83223633 -452.25 542.0625 C-453.13445801 542.28856934 -454.01891602 542.51463867 -454.93017578 542.74755859 C-465.34717476 545.49635894 -475.41621217 549.04691088 -485 554 C-485 555.32 -485 556.64 -485 558 C-484.32533691 558.30703857 -483.65067383 558.61407715 -482.95556641 558.93041992 C-479.84451382 560.34755893 -476.73475358 561.76751287 -473.625 563.1875 C-472.56410156 563.67025391 -471.50320313 564.15300781 -470.41015625 564.65039062 C-468.83427734 565.3706543 -468.83427734 565.3706543 -467.2265625 566.10546875 C-466.18016602 566.58290527 -465.13376953 567.0603418 -464.05566406 567.55224609 C-460.36982542 569.29857265 -456.79065743 571.21656473 -453.23193359 573.20825195 C-450.46036643 574.19142766 -448.78973816 573.79219717 -446 573 C-444.9970154 569.08714061 -444.00029303 565.17274436 -443.00927734 561.25683594 C-442.67146625 559.92567238 -442.33196479 558.59493658 -441.99072266 557.26464844 C-441.49975601 555.3494491 -441.01542258 553.43255319 -440.53125 551.515625 C-440.23798828 550.36352539 -439.94472656 549.21142578 -439.64257812 548.02441406 C-438.86145016 544.86320976 -438.86145016 544.86320976 -439 541 C-442.07828343 540.02711363 -444.08009907 540.01425158 -447.203125 540.78515625 Z M-557 576 C-556.28861173 579.22703198 -556.28861173 579.22703198 -553.30371094 580.59399414 C-551.53688965 581.43111938 -551.53688965 581.43111938 -549.734375 582.28515625 C-549.10396301 582.58691269 -548.47355103 582.88866913 -547.82403564 583.1995697 C-545.80377745 584.16351443 -543.77703916 585.11291123 -541.75 586.0625 C-540.39930964 586.70547781 -539.04904367 587.34934795 -537.69921875 587.99414062 C-534.14303832 589.6856745 -530.5835461 591.36693307 -527 593 C-526.13793945 593.41564209 -525.27587891 593.83128418 -524.38769531 594.25952148 C-521.54787617 595.14021386 -519.82658521 594.80759578 -517 594 C-515.99720444 589.94462159 -515.00047442 585.8878146 -514.00927734 581.82958984 C-513.67141344 580.44995189 -513.33191099 579.07071411 -512.99072266 577.69189453 C-512.49988814 575.70709142 -512.01501256 573.72091201 -511.53125 571.734375 C-511.23798828 570.54038086 -510.94472656 569.34638672 -510.64257812 568.11621094 C-509.86536266 564.87736571 -509.86536266 564.87736571 -510 561 C-525.7626128 561 -543.78134945 567.70162493 -557 576 Z " fill="#005125" transform="translate(2061,294)"/>
<path d="M0 0 C0.97694824 0.33136963 0.97694824 0.33136963 1.97363281 0.66943359 C29.26574927 10.02972213 54.94523932 23.70166128 78 41 C78.9293335 41.69391846 78.9293335 41.69391846 79.87744141 42.40185547 C88.75333531 49.0747653 97.01593615 56.28773407 105 64 C105.62084473 64.59893066 106.24168945 65.19786133 106.88134766 65.81494141 C114.78800787 73.48410494 122.29021377 81.24196324 129 90 C129.92949987 91.1772315 130.85920027 92.3543047 131.7890625 93.53125 C139.80627137 103.81214137 146.5547104 114.67987007 153 126 C153.40847168 126.70705078 153.81694336 127.41410156 154.23779297 128.14257812 C176.12812827 166.2877494 188.00050627 213.15674665 188.203125 257.09765625 C188.21018463 258.12175598 188.21724426 259.14585571 188.22451782 260.20098877 C188.45211628 302.90945578 188.45211628 302.90945578 185 322 C184.80132324 323.1348584 184.60264648 324.2697168 184.39794922 325.43896484 C179.87547455 350.65980674 172.8783409 374.78052023 162 398 C161.66500488 398.71833008 161.33000977 399.43666016 160.98486328 400.17675781 C153.5020627 416.051171 144.55732688 430.98688656 134 445 C133.58169922 445.56251465 133.16339844 446.1250293 132.73242188 446.70458984 C125.19029335 456.80586045 116.75207221 465.94137535 108 475 C107.15179687 475.88945313 106.30359375 476.77890625 105.4296875 477.6953125 C100.49146742 482.77513029 95.22655623 487.32383753 89.65625 491.69873047 C88.48623083 492.61798197 87.31990841 493.54194799 86.15625 494.46923828 C20.70222534 546.53051236 -64.41540423 566.7584997 -146.875 557.75 C-204.01200614 550.97318682 -260.1027277 530.14213333 -304.53125 493.03125 C-307.32532014 490.73233153 -310.20398535 488.58570208 -313.1484375 486.484375 C-315.62591396 484.49821243 -317.7735116 482.26471138 -320 480 C-321.18184122 478.83805851 -322.36555552 477.6780202 -323.55078125 476.51953125 C-324.80476385 475.28393164 -326.05866883 474.04825327 -327.3125 472.8125 C-327.95767578 472.18408203 -328.60285156 471.55566406 -329.26757812 470.90820312 C-329.87666016 470.30556641 -330.48574219 469.70292969 -331.11328125 469.08203125 C-331.66798096 468.53780518 -332.22268066 467.9935791 -332.79418945 467.43286133 C-334 466 -334 466 -334 464 C-334.99 463.67 -335.98 463.34 -337 463 C-338.79989057 460.93160117 -340.47240322 458.86833191 -342.125 456.6875 C-342.61363525 456.05158936 -343.10227051 455.41567871 -343.60571289 454.76049805 C-344.60529987 453.45695071 -345.60180763 452.15103636 -346.59521484 450.84277344 C-347.8162386 449.2410551 -349.05683038 447.65429068 -350.30078125 446.0703125 C-396.98964406 385.81009834 -412.41700994 306.68053358 -404 232 C-396.7156921 174.99728066 -374.96512013 123.62363088 -337.54296875 79.97265625 C-336.22118318 78.42752749 -334.90299116 76.87834849 -333.63525391 75.28857422 C-332.46431313 73.8254338 -331.23626613 72.40837788 -330 71 C-329.34 71 -328.68 71 -328 71 C-327.01 69.02 -327.01 69.02 -326 67 C-325.34 67 -324.68 67 -324 67 C-324 66.34 -324 65.68 -324 65 C-323.34 65 -322.68 65 -322 65 C-321.505 63.515 -321.505 63.515 -321 62 C-318.57484829 59.42005138 -315.72421088 57.2553211 -313 55 C-312.44328613 54.53239258 -311.88657227 54.06478516 -311.31298828 53.58300781 C-234.24133239 -11.07620576 -128.34230806 -32.22299364 0 0 Z M-226 120 C-227.38251953 121.06734375 -227.38251953 121.06734375 -228.79296875 122.15625 C-231.2259906 124.07027627 -233.62125737 126.01908157 -236 128 C-237.18335938 128.98033203 -237.18335938 128.98033203 -238.390625 129.98046875 C-241.28039192 132.39929206 -241.28039192 132.39929206 -244 135 C-244 135.66 -244 136.32 -244 137 C-244.66 137 -245.32 137 -246 137 C-248.58244891 139.42007936 -250.74542408 142.27801199 -253 145 C-253.65500488 145.7727124 -253.65500488 145.7727124 -254.32324219 146.56103516 C-287.68323628 185.99378798 -302.24611539 236.42520752 -298.53540039 287.63500977 C-294.84348661 330.9472644 -277.18896657 371.61799866 -247 403 C-245.68902344 404.37091797 -245.68902344 404.37091797 -244.3515625 405.76953125 C-216.61495004 434.16653925 -179.86792162 451.36383394 -141 458 C-140.24799316 458.12987305 -139.49598633 458.25974609 -138.72119141 458.39355469 C-91.61141542 466.07134059 -37.6002266 455.40732207 1.5625 427.55078125 C6.9548668 423.59173034 12.24944808 419.5023731 17.43408203 415.27490234 C18.5264016 414.38558323 19.62705428 413.50644418 20.73388672 412.63525391 C22.19290631 411.46829442 23.60141516 410.23874657 25 409 C25 408.34 25 407.68 25 407 C25.85078125 406.64808594 25.85078125 406.64808594 26.71875 406.2890625 C40.80023772 398.33205745 51.755752 377.73074334 59.01806641 363.85693359 C59.91250294 362.16546559 60.85052176 360.49722626 61.79296875 358.83203125 C71.5527356 340.85351337 77.16766926 320.18035649 80 300 C80.1743457 298.77007324 80.34869141 297.54014648 80.52832031 296.27294922 C81.0646998 291.91211445 81.17796549 287.59712077 81.203125 283.20703125 C81.21013931 282.38697601 81.21715363 281.56692078 81.22438049 280.72201538 C81.24181176 278.08545394 81.24823393 275.44911697 81.25 272.8125 C81.25067474 271.91294586 81.25134949 271.01339172 81.25204468 270.08657837 C81.23624745 256.85160608 80.90631495 243.96641784 78 231 C77.82839355 230.21544434 77.65678711 229.43088867 77.47998047 228.62255859 C73.40158288 210.53400878 66.92078663 193.24902 58 177 C57.47817139 176.04915527 57.47817139 176.04915527 56.94580078 175.07910156 C48.91042011 160.65586907 38.70364377 148.28641759 27.32226562 136.38525391 C26.17857825 135.18708511 25.04888643 133.97558633 23.921875 132.76171875 C-6.28986239 101.09017052 -54.00442774 83.06162199 -97.18913269 81.76695251 C-143.59671404 80.67431306 -188.72681022 90.99362663 -226 120 Z " fill="#000000" transform="translate(2093,1307)"/>
<path d="M0 0 C137.61 0 275.22 0 417 0 C417 29.7 417 59.4 417 90 C311.73 90 206.46 90 98 90 C98 136.86 98 183.72 98 232 C190.07 232 282.14 232 377 232 C377 261.37 377 290.74 377 321 C284.93 321 192.86 321 98 321 C98.33 368.19 98.66 415.38 99 464 C206.58 464.33 314.16 464.66 425 465 C425 494.37 425 523.74 425 554 C284.75 554 144.5 554 0 554 C0 371.18 0 188.36 0 0 Z " fill="#000000" transform="translate(3398,1301)"/>
<path d="M0 0 C36.3 0 72.6 0 110 0 C114.94767681 9.89535362 119.88050041 19.78716807 124.6875 29.75 C124.98369232 30.36317078 125.27988464 30.97634155 125.58505249 31.60809326 C130.46106409 41.70889895 135.19935334 51.86887075 139.89331055 62.05566406 C144.65984062 72.35726546 149.62124814 82.55871903 154.60269165 92.75762939 C159.88090231 103.56950234 165.01929535 114.43210428 170.046875 125.36328125 C174.40602771 134.80451545 178.93624718 144.15636908 183.5 153.5 C189.17101509 165.11077039 194.71577351 176.76465222 200.1171875 188.50390625 C204.29749717 197.55951503 208.62842321 206.53554003 213 215.5 C217.9156024 225.58005191 222.74961067 235.68649681 227.4375 245.875 C232.67129535 257.24768314 238.10908578 268.51023138 243.60324097 279.75872803 C248.88126595 290.5702348 254.01946693 301.43247735 259.046875 312.36328125 C263.40602738 321.80451475 267.9362262 331.15637992 272.5 340.5 C278.14818816 352.06379053 283.66908775 363.67066806 289.046875 375.36328125 C293.40602738 384.80451475 297.9362262 394.15637992 302.5 403.5 C308.14818816 415.06379053 313.66908775 426.67066806 319.046875 438.36328125 C323.40602738 447.80451475 327.9362262 457.15637992 332.5 466.5 C338.14053259 478.04811694 343.66073391 489.63634626 349.02270508 501.31713867 C352.10763453 508.00815599 355.27264216 514.65198625 358.51171875 521.26953125 C359.09296005 522.4581929 359.09296005 522.4581929 359.6859436 523.67086792 C361.59593053 527.57324973 363.5134594 531.47169537 365.44140625 535.36523438 C366.1420812 536.79159097 366.84260906 538.21801983 367.54296875 539.64453125 C367.86319504 540.28501907 368.18342133 540.9255069 368.51335144 541.58540344 C370.55467571 545.75974007 371.69146103 549.42011359 373 554 C335.05 554 297.1 554 258 554 C253.13171675 544.2634335 248.3828432 534.62668745 244 524.6875 C242.8734961 522.14997007 241.74367893 519.61392242 240.61328125 517.078125 C240.32181717 516.42371933 240.03035309 515.76931366 239.73005676 515.09507751 C236.60043811 508.08096294 233.39562333 501.10168277 230.19052124 494.12182617 C223.39119357 479.31461294 216.71892965 464.45478973 210.1394043 449.54858398 C209.81673584 448.81879333 209.49406738 448.08900269 209.16162109 447.33709717 C208.56337656 445.98363557 207.96634876 444.62963514 207.37084961 443.27496338 C206.09026765 440.37822181 204.76279644 437.54502241 203.2980957 434.7355957 C202 432 202 432 202 429 C105.97 429 9.94 429 -89 429 C-90.485 433.455 -90.485 433.455 -92 438 C-92.79603122 440.03675501 -93.61732668 442.06389686 -94.46875 444.078125 C-95.18659668 445.78343384 -95.18659668 445.78343384 -95.91894531 447.52319336 C-96.44590058 448.76548895 -96.97292122 450.00775681 -97.5 451.25 C-98.06637518 452.591754 -98.63244558 453.93363669 -99.19824219 455.27563477 C-100.44603267 458.23354728 -101.69594305 461.19055269 -102.94726562 464.14697266 C-105.13129886 469.30811718 -107.30791106 474.47237876 -109.484375 479.63671875 C-111.07261448 483.40377331 -112.66120555 487.17067947 -114.25 490.9375 C-114.60908447 491.7888855 -114.96816895 492.640271 -115.33813477 493.51745605 C-123.85147432 513.69560526 -132.43376475 533.84415235 -141 554 C-174.66 554 -208.32 554 -243 554 C-242.05966379 549.29831897 -240.56848989 545.38606933 -238.6328125 541.0546875 C-238.28664886 540.26929596 -237.94048523 539.48390442 -237.58383179 538.67471313 C-236.43561042 536.07269306 -235.28029637 533.47388557 -234.125 530.875 C-233.31138304 529.03471113 -232.49824042 527.19421248 -231.68554688 525.35351562 C-229.98359879 521.50103047 -228.27871197 517.64986651 -226.57128906 513.79980469 C-224.11304912 508.25666924 -221.66092402 502.71085 -219.2109375 497.1640625 C-218.42554313 495.38606505 -217.64014274 493.60807026 -216.85473633 491.83007812 C-216.46685944 490.95198486 -216.07898254 490.0738916 -215.67935181 489.16918945 C-214.49076678 486.47910275 -213.30150705 483.78931527 -212.11206055 481.09960938 C-206.70266345 468.8658979 -201.31237682 456.62391575 -195.9375 444.375 C-195.56769012 443.53225525 -195.19788025 442.6895105 -194.81686401 441.82122803 C-192.21048849 435.88114941 -189.60512314 429.94062796 -187 424 C-184.02153814 417.208024 -181.04261038 410.41625286 -178.0625 403.625 C-177.69277069 402.78241638 -177.32304138 401.93983276 -176.94210815 401.07171631 C-170.75234463 386.96827439 -164.53248228 372.87826557 -158.30252075 358.7925415 C-152.51405481 345.70417603 -146.74757018 332.60637334 -141 319.5 C-134.85610679 305.48987822 -128.68794282 291.49072125 -122.5 277.5 C-116.29361492 263.46659021 -110.10327244 249.42630381 -103.9375 235.375 C-103.56769012 234.53225525 -103.19788025 233.6895105 -102.81686401 232.82122803 C-100.21048849 226.88114941 -97.60512314 220.94062796 -95 215 C-92.02153814 208.208024 -89.04261038 201.41625286 -86.0625 194.625 C-85.69277069 193.78241638 -85.32304138 192.93983276 -84.94210815 192.07171631 C-78.75264546 177.96895981 -72.53268015 163.87981841 -66.30352783 149.79455566 C-60.49650772 136.66272776 -54.7070463 123.52333602 -48.9375 110.375 C-48.56769012 109.53225525 -48.19788025 108.6895105 -47.81686401 107.82122803 C-45.21048849 101.88114941 -42.60512314 95.94062796 -40 90 C-30.96198186 69.39003246 -21.91742628 48.7829606 -12.83322144 28.19329834 C-11.99363644 26.28991103 -11.15453642 24.38630971 -10.31594849 22.48248291 C-9.15089008 19.8379373 -7.98390968 17.19424818 -6.81640625 14.55078125 C-6.47347534 13.77143723 -6.13054443 12.9920932 -5.77722168 12.18913269 C-5.45443237 11.45938736 -5.13164307 10.72964203 -4.79907227 9.9777832 C-4.38420311 9.03742973 -4.38420311 9.03742973 -3.96095276 8.07807922 C-2.70222311 5.35605163 -1.34118116 2.68236232 0 0 Z M51 98 C50.40650757 99.41249023 50.40650757 99.41249023 49.80102539 100.85351562 C41.7824655 119.93358619 33.73566345 139.00120936 25.63104248 158.04489136 C19.95902713 171.373949 14.31631327 184.71514565 8.6875 198.0625 C1.74056488 214.53464903 -5.24387629 230.99048083 -12.25137329 247.43695068 C-18.93286523 263.11981773 -25.57443385 278.81918953 -32.19717407 294.52694702 C-38.74007309 310.04310986 -45.33478155 325.53596097 -52 341 C-49.42768585 343.57231415 -47.72506603 343.23927133 -44.21931016 343.25816262 C-43.40414576 343.25233693 -42.58898135 343.24651125 -41.74911499 343.24050903 C-40.88577659 343.24221788 -40.02243819 343.24392673 -39.13293803 343.24568737 C-36.22314532 343.24899693 -33.31358026 343.23795454 -30.40380859 343.22705078 C-28.32472235 343.22648698 -26.2456357 343.22680261 -24.16654968 343.22793579 C-18.50772308 343.22851153 -12.84898061 343.21672148 -7.19017363 343.20278788 C-1.28178549 343.19031732 4.6266044 343.18911293 10.53500366 343.18673706 C21.729943 343.18051146 32.92484345 343.16408606 44.11976564 343.14403808 C56.86200673 343.12171264 69.60424964 343.1106941 82.3465054 343.10064721 C108.56435853 343.07972075 134.78217709 343.04452384 161 343 C160.27446424 338.09383734 158.86644265 334.04324025 156.74609375 329.5859375 C156.24777039 328.51430359 156.24777039 328.51430359 155.73937988 327.42102051 C155.02105082 325.87769463 154.29953365 324.33584942 153.57516479 322.79534912 C151.6178557 318.63123033 149.68516304 314.45569472 147.75 310.28125 C147.35167465 309.4234494 146.9533493 308.5656488 146.54295349 307.68185425 C142.57613083 299.12275027 138.74675265 290.50509893 134.9375 281.875 C129.7088672 270.04392351 124.39911943 258.25424891 119 246.5 C113.23781067 233.95457624 107.58563544 221.36470042 102 208.73974609 C96.75770286 196.89594293 91.41115272 185.10365706 86.0050354 173.33383179 C80.46876292 161.27531941 75.05022347 149.16771274 69.67919922 137.03479004 C63.89551934 123.97187108 58.00450137 110.96320646 52 98 C51.67 98 51.34 98 51 98 Z " fill="#000000" transform="translate(712,1301)"/>
<path d="M0 0 C0.6084375 0.47308594 1.216875 0.94617187 1.84375 1.43359375 C3 3 3 3 2.79737854 5.12638855 C1.76909028 8.83215787 0.13155819 12.13061313 -1.60180664 15.54418945 C-1.97258835 16.28619095 -2.34337006 17.02819244 -2.72538757 17.79267883 C-3.94797442 20.23576853 -5.178998 22.67450133 -6.41015625 25.11328125 C-7.26121993 26.80981133 -8.11175288 28.50660775 -8.96177673 30.20365906 C-11.19722942 34.66312631 -13.43986686 39.11894233 -15.684021 43.57403564 C-17.97403719 48.12334521 -20.25723821 52.67607191 -22.54101562 57.22851562 C-27.02068122 66.15570084 -31.50794469 75.07904348 -36 84 C-41.03743725 84 -43.4110124 81.90662317 -47.3125 79.0625 C-54.99854141 73.63114726 -62.8172761 68.64673237 -71 64 C-72.03253906 63.40687012 -72.03253906 63.40687012 -73.0859375 62.80175781 C-120.82601203 35.63558724 -180.82776319 24.70548271 -235 35 C-235.70705078 35.13390137 -236.41410156 35.26780273 -237.14257812 35.40576172 C-254.40729848 38.88655211 -271.85228557 47.04885694 -282.46484375 61.5 C-290.16353393 74.03730717 -292.02839677 88.40603644 -289.28125 102.75390625 C-283.80113209 121.47027668 -271.07943812 133.81422562 -254.42211914 143.32104492 C-226.62326218 158.48194807 -194.69239363 166.19131431 -164.49609375 175.109375 C-109.61431816 191.33139561 -109.61431816 191.33139561 -84 204 C-83.13197754 204.42780762 -82.26395508 204.85561523 -81.36962891 205.29638672 C-65.24303186 213.32067627 -50.72733675 222.30634277 -37 234 C-35.77146536 234.97995954 -34.54242234 235.9592827 -33.3125 236.9375 C-32.549375 237.618125 -31.78625 238.29875 -31 239 C-31 239.66 -31 240.32 -31 241 C-30.44441406 241.2165625 -29.88882813 241.433125 -29.31640625 241.65625 C-10.5549687 252.53978207 0.50450781 283.082332 5.99975586 302.81762695 C16.58903715 343.33898587 12.49472355 386.54859124 -8.31347656 423.03588867 C-12.57201863 430.24044649 -17.45780279 436.71820281 -23 443 C-23.75410156 443.86367187 -24.50820312 444.72734375 -25.28515625 445.6171875 C-27.49250549 448.10850105 -29.73642429 450.55977501 -32 453 C-32.57621094 453.64195312 -33.15242188 454.28390625 -33.74609375 454.9453125 C-43.96748891 465.82688685 -57.04639638 474.70630427 -70 482 C-70.67160156 482.38220703 -71.34320312 482.76441406 -72.03515625 483.15820312 C-142.26264805 522.79464975 -230.03438407 521.76455757 -306.00585938 501.21728516 C-343.24125145 490.75871953 -378.94825443 473.51437978 -409 449 C-408.41710489 444.85079788 -407.47155711 441.21853845 -405.9453125 437.3203125 C-405.50413086 436.18601807 -405.06294922 435.05172363 -404.60839844 433.88305664 C-404.11409703 432.63030608 -403.61962528 431.37762272 -403.125 430.125 C-402.60929837 428.80671649 -402.09401207 427.48827045 -401.57910156 426.16967773 C-399.72959625 421.44242043 -397.86500921 416.72115769 -396 412 C-395.61026001 411.01263855 -395.22052002 410.0252771 -394.81896973 409.00799561 C-388.89454799 393.99928664 -382.95335157 378.99725556 -377 364 C-372.86915066 364.87213604 -369.97072193 366.9194834 -366.5625 369.3125 C-311.08100563 407.0953494 -235.43630383 429.45744712 -168.34179688 417.52734375 C-147.13770936 413.38771712 -123.46626664 405.09310546 -110.6875 386.5 C-109.77041248 385.01289952 -108.87316512 383.51330765 -108 382 C-107.62101562 381.36449219 -107.24203125 380.72898437 -106.8515625 380.07421875 C-99.54307437 366.80354294 -98.86775808 349.99230667 -102.5625 335.5 C-109.30450851 315.29746578 -126.44788727 303.12023506 -144.6875 293.875 C-171.97547825 280.5768035 -201.62744697 272.21421397 -230.5625 263.3125 C-275.63996069 249.43622382 -319.73928375 234.86180259 -357 205 C-357.90234375 204.29617188 -358.8046875 203.59234375 -359.734375 202.8671875 C-362.23805981 200.80380588 -364.00670505 198.55390916 -366 196 C-366.763125 195.236875 -367.52625 194.47375 -368.3125 193.6875 C-392.59071902 169.40928098 -402.1466695 136.13885248 -402.375 102.5625 C-402.10992698 59.10271244 -385.789713 20.05032869 -354.89086914 -10.52661133 C-337.74332968 -26.99125567 -317.15849252 -38.66952876 -295 -47 C-293.89688477 -47.41523926 -293.89688477 -47.41523926 -292.77148438 -47.83886719 C-203.40633905 -80.82359803 -75.56555072 -64.32072901 0 0 Z " fill="#000000" transform="translate(2766,1352)"/>
<path d="M0 0 C1.47187221 1.17861142 2.95537104 2.3426599 4.43945312 3.50585938 C12.32613841 9.906049 19.49698973 17.00464564 26.67382812 24.17773438 C27.18927185 24.69218109 27.70471558 25.20662781 28.23577881 25.73666382 C29.72136474 27.22257542 31.20248355 28.71276905 32.68164062 30.20507812 C33.5467627 31.07769287 34.41188477 31.95030762 35.30322266 32.84936523 C37.22765995 34.89829048 38.92448207 36.95096104 40.54882812 39.24023438 C39.05189537 42.73586178 37.04864323 44.98312574 34.36206055 47.65405273 C33.49743698 48.51852524 32.63281342 49.38299774 31.74198914 50.27366638 C30.33733147 51.66284019 30.33733147 51.66284019 28.90429688 53.08007812 C27.93220508 54.04843487 26.96055753 55.01723777 25.98933411 55.98646545 C23.43268961 58.53548529 20.87010392 61.07844957 18.30621338 63.62017822 C15.710988 66.19502199 13.12133309 68.77545413 10.53125 71.35546875 C5.9609716 75.90662912 1.38581176 80.45283749 -3.19294739 84.99546814 C-4.8559754 86.64858507 -6.49190093 88.32907686 -8.11210632 90.02418518 C-10.45117188 92.24023438 -10.45117188 92.24023438 -12.45117188 92.24023438 C-12.45117188 92.90023438 -12.45117188 93.56023437 -12.45117188 94.24023438 C-13.11117188 94.24023438 -13.77117187 94.24023438 -14.45117188 94.24023438 C-14.45117188 94.90023438 -14.45117188 95.56023437 -14.45117188 96.24023438 C-16.06054688 97.82617188 -16.06054688 97.82617188 -18.20117188 99.61523438 C-21.07554508 102.05641303 -23.8366118 104.51673429 -26.45117188 107.24023438 C-31.5789512 105.74623852 -34.50699881 102.57685655 -38.20117188 98.92773438 C-82.21838743 56.72453515 -135.92677947 38.92975628 -196.13818359 40.10839844 C-241.76115298 41.2964512 -285.61679329 62.31744632 -318.45117188 93.24023438 C-319.16273438 93.88734375 -319.87429688 94.53445313 -320.60742188 95.20117188 C-331.79438573 105.78014857 -340.87245644 118.90039692 -348.45117188 132.24023438 C-349.10472656 133.36171875 -349.75828125 134.48320313 -350.43164062 135.63867188 C-375.05419406 178.93814401 -379.38348103 233.59612766 -366.45117188 281.24023438 C-362.45665521 294.89129104 -357.30180282 307.78545806 -350.45117188 320.24023438 C-350.12648926 320.84657715 -349.80180664 321.45291992 -349.46728516 322.07763672 C-327.07727972 363.85968271 -287.84574777 393.95510695 -242.95654297 408.02197266 C-205.74663123 419.07508763 -166.95227256 418.85034303 -129.45117188 409.24023438 C-128.65598145 409.04091309 -127.86079102 408.8415918 -127.04150391 408.63623047 C-84.73590487 397.87129939 -44.32832753 376.65081046 -10.45117188 349.24023438 C-6.41633445 353.03516255 -3.27624083 357.06184755 -0.13867188 361.61523438 C0.36913818 362.34347412 0.87694824 363.07171387 1.40014648 363.82202148 C2.51639835 365.42422423 3.63030622 367.0280619 4.7421875 368.63330078 C6.65647291 371.39556289 8.57854706 374.15228498 10.50195312 376.90820312 C17.77698909 387.33870777 25.01521647 397.79400944 32.20605469 408.28271484 C34.71299884 411.93738361 37.22508893 415.58851621 39.73632812 419.24023438 C40.6673375 420.59438743 41.59832904 421.94855276 42.52929688 423.30273438 C43.19574219 424.27210938 43.8621875 425.24148438 44.54882812 426.24023438 C42.07903154 432.46412176 35.65960394 436.20325109 30.54882812 440.24023438 C29.89333984 440.75859863 29.23785156 441.27696289 28.5625 441.81103516 C-18.11892287 478.52564239 -71.39893725 502.44967241 -129.76367188 513.49023438 C-130.54911377 513.64145752 -131.33455566 513.79268066 -132.14379883 513.94848633 C-149.68673151 517.08197435 -167.29823912 517.61399766 -185.07617188 517.55273438 C-186.17645721 517.55091156 -187.27674255 517.54908875 -188.41036987 517.54721069 C-204.61289779 517.50204388 -220.46035653 517.07793966 -236.45117188 514.24023438 C-237.46179687 514.06862793 -238.47242188 513.89702148 -239.51367188 513.72021484 C-282.8500635 506.21813839 -328.05507165 491.04878929 -363.45117188 464.24023438 C-364.71488755 463.30321694 -365.97927469 462.36710475 -367.24414062 461.43164062 C-371.33493957 458.39626877 -375.39987336 455.32808871 -379.45117188 452.24023438 C-380.010625 451.81436035 -380.57007813 451.38848633 -381.14648438 450.94970703 C-382.58779304 449.84654459 -384.01989733 448.73138455 -385.45117188 447.61523438 C-386.23492188 447.00421875 -387.01867188 446.39320313 -387.82617188 445.76367188 C-388.63054687 445.00957031 -388.63054687 445.00957031 -389.45117188 444.24023438 C-389.45117188 443.58023437 -389.45117188 442.92023438 -389.45117188 442.24023438 C-390.03543945 441.98048828 -390.61970703 441.72074219 -391.22167969 441.453125 C-393.60678352 440.15557837 -395.20307824 438.74682315 -397.12304688 436.83398438 C-397.78691406 436.17269531 -398.45078125 435.51140625 -399.13476562 434.83007812 C-400.15763672 433.79560547 -400.15763672 433.79560547 -401.20117188 432.74023438 C-401.89855469 432.05058594 -402.5959375 431.3609375 -403.31445312 430.65039062 C-403.97316406 429.98910156 -404.631875 429.3278125 -405.31054688 428.64648438 C-406.21498535 427.73866211 -406.21498535 427.73866211 -407.13769531 426.8125 C-408.45117188 425.24023438 -408.45117188 425.24023438 -408.45117188 423.24023438 C-409.44117188 422.91023438 -410.43117188 422.58023437 -411.45117188 422.24023438 C-413.14257812 420.41210938 -413.14257812 420.41210938 -415.01367188 417.99023438 C-415.72136719 417.07628906 -416.4290625 416.16234375 -417.15820312 415.22070312 C-417.91488281 414.23714844 -418.6715625 413.25359375 -419.45117188 412.24023438 C-420.21816406 411.28761719 -420.98515625 410.335 -421.77539062 409.35351562 C-429.1094787 400.12980743 -435.35504609 390.31533232 -441.45117188 380.24023438 C-442.06822998 379.22920654 -442.06822998 379.22920654 -442.69775391 378.19775391 C-459.50682475 350.42716562 -469.41738836 318.96609271 -475.45117188 287.24023438 C-475.61842773 286.36383301 -475.78568359 285.48743164 -475.95800781 284.58447266 C-479.82546458 263.58792513 -481.33262069 241.57539551 -480.45117188 220.24023438 C-480.41008301 219.22123047 -480.36899414 218.20222656 -480.32666016 217.15234375 C-478.45439876 175.54387641 -469.81425795 134.76580416 -451.45117188 97.24023438 C-451.0726709 96.45874023 -450.69416992 95.67724609 -450.30419922 94.87207031 C-439.342197 72.46560789 -424.94625957 52.00305946 -407.86132812 33.86132812 C-405.40906872 31.26999583 -405.40906872 31.26999583 -403.25976562 28.40039062 C-402.66292969 27.68753906 -402.06609375 26.9746875 -401.45117188 26.24023438 C-400.79117187 26.24023438 -400.13117188 26.24023438 -399.45117188 26.24023438 C-399.45117188 25.58023437 -399.45117188 24.92023438 -399.45117188 24.24023438 C-398.08789062 22.86523438 -398.08789062 22.86523438 -396.13867188 21.24023438 C-392.81822438 18.42973344 -389.62158603 15.5312929 -386.45117188 12.55273438 C-338.94388313 -30.63570994 -275.32206603 -52.24117485 -212.45117188 -58.75976562 C-210.56398438 -58.95892578 -210.56398438 -58.95892578 -208.63867188 -59.16210938 C-135.09363828 -65.37598374 -58.04503692 -46.50725044 0 0 Z " fill="#000000" transform="translate(1584.451171875,1349.759765625)"/>
<path d="M0 0 C157.41 0 314.82 0 477 0 C477 87 477 87 476 89 C412.64 89 349.28 89 284 89 C284 242.45 284 395.9 284 554 C251.66 554 219.32 554 186 554 C186 400.55 186 247.1 186 89 C124.62 89 63.24 89 0 89 C0 59.63 0 30.26 0 0 Z " fill="#000000" transform="translate(2837,1301)"/>
<path d="M0 0 C32.34 0 64.68 0 98 0 C98 153.45 98 306.9 98 465 C194.03 465 290.06 465 389 465 C389 494.37 389 523.74 389 554 C260.63 554 132.26 554 0 554 C0 371.18 0 188.36 0 0 Z " fill="#000000" transform="translate(13,1301)"/>
<path d="M0 0 C10.93239924 3.31003977 21.23490923 5.62066772 32.68896484 5.59985352 C33.63497559 5.59824219 34.58098633 5.59663086 35.55566406 5.5949707 C48.17275899 5.37907678 59.99334595 2.36418255 71.74365234 -2.13842773 C74.43048672 -2.85638512 75.54894178 -2.73241727 78.12646484 -1.77514648 C79.68548709 0.63234509 80.97180608 2.91415499 82.23583984 5.47094727 C82.60751282 6.19725845 82.97918579 6.92356964 83.36212158 7.67189026 C84.14498897 9.2078454 84.92126319 10.74717625 85.69140625 12.28955078 C86.8733577 14.65613218 88.07409794 17.01236743 89.27880859 19.36743164 C90.03643238 20.85970545 90.79297991 22.35252626 91.54833984 23.84594727 C91.90764587 24.55432236 92.2669519 25.26269745 92.637146 25.99253845 C95.12646484 30.98958918 95.12646484 30.98958918 95.12646484 33.22485352 C93.80646484 33.55485352 92.48646484 33.88485352 91.12646484 34.22485352 C89.48495881 40.65408548 91.20468048 45.8799402 94.46630859 51.55688477 C102.34484012 62.55600824 114.14931514 68.76045234 126.13232422 74.29711914 C127.9605896 75.14768335 129.77115169 76.0360339 131.57958984 76.92797852 C153.05109222 87.04890695 177.02239515 92.50822829 199.75146484 99.09985352 C301.15309054 128.51683317 301.15309054 128.51683317 315.12646484 145.22485352 C317.29029897 149.64838783 317.39267007 152.41327367 316.12646484 157.22485352 C314.26460776 160.13481896 312.26909899 162.65353644 309.12646484 164.22485352 C300.29454245 164.94897618 292.95941558 164.48160187 285.12646484 160.22485352 C284.38009766 159.82395508 283.63373047 159.42305664 282.86474609 159.01000977 C276.95680019 155.45286956 272.65375295 150.69076976 268.19287109 145.51782227 C266.3371127 143.17807768 266.3371127 143.17807768 264.12646484 142.22485352 C256.12509383 141.96251348 251.47123503 145.37542887 245.28271484 149.92016602 C242.61569019 151.86762214 239.96854746 153.67302477 237.12646484 155.34985352 C236.46646484 155.74430664 235.80646484 156.13875977 235.12646484 156.54516602 C232.32265108 157.4980246 230.91118557 157.23516378 228.12646484 156.22485352 C223.59470068 152.57176729 221.44068283 148.38790422 219.06396484 143.22485352 C215.82736483 136.26392386 215.82736483 136.26392386 211.12646484 130.22485352 C205.48689372 128.59989234 201.96800967 129.14495675 196.75537109 131.70141602 C194.66606213 132.9121597 192.66418855 134.16529213 190.65380859 135.49829102 C189.73462646 136.10664795 189.73462646 136.10664795 188.796875 136.72729492 C187.57910721 137.54500759 186.37118753 138.37762497 185.17480469 139.22631836 C181.34732396 141.83640977 178.75251717 142.87250084 174.12646484 142.22485352 C168.92623132 138.4198046 166.78454684 132.89958576 164.12646484 127.22485352 C163.04941866 125.03425111 161.9660586 122.84674195 160.87646484 120.66235352 C160.37630859 119.65043945 159.87615234 118.63852539 159.36083984 117.59594727 C158.33265992 115.33081983 158.33265992 115.33081983 157.12646484 114.22485352 C146.80142031 113.09848502 139.38045162 118.77770688 131.35302734 124.67407227 C127.63773761 127.26173897 124.73649373 129.01193162 120.12646484 128.22485352 C113.27775221 122.54543328 109.75429716 114.70270677 106.12646484 106.79516602 C104.24488263 102.78870951 104.24488263 102.78870951 101.14599609 99.73657227 C93.20494974 97.72443093 84.95131894 101.42419576 77.54443359 104.06860352 C72.68847275 105.7113057 68.37298318 106.39503765 63.25146484 106.47485352 C62.26404297 106.50063477 61.27662109 106.52641602 60.25927734 106.55297852 C53.15854281 105.80926068 48.06052921 102.0217186 42.56396484 97.78735352 C41.87359131 97.26165771 41.18321777 96.73596191 40.47192383 96.19433594 C27.237139 86.01734195 15.07234643 75.21869966 4.57177734 62.19360352 C-10.17747476 44.28716327 -27.25363302 31.53015584 -51.10400391 28.65454102 C-65.82242621 27.29228539 -80.42765616 29.52032989 -94.94384766 31.87329102 C-108.70925128 34.07703313 -122.52703947 35.35626291 -135.06103516 28.47485352 C-142.69266079 22.36955301 -146.43528162 15.93067451 -147.56103516 6.22485352 C-147.67582485 4.89239271 -147.78395786 3.5592464 -147.87353516 2.22485352 C-147.30248047 2.34602539 -146.73142578 2.46719727 -146.14306641 2.59204102 C-122.78221203 7.42019852 -105.47297526 5.30149035 -82.87353516 -1.77514648 C-53.0245818 -11.03670241 -29.55151601 -8.98675344 0 0 Z " fill="#FC003F" transform="translate(2253.87353515625,783.775146484375)"/>
</svg>
