<?xml version="1.0" standalone="no"?>
<!DOCTYPE svg PUBLIC "-//W3C//DTD SVG 20010904//EN"
 "http://www.w3.org/TR/2001/REC-SVG-20010904/DTD/svg10.dtd">
<svg version="1.0" xmlns="http://www.w3.org/2000/svg"
 width="300.000000pt" height="200.000000pt" viewBox="0 0 300.000000 200.000000"
 preserveAspectRatio="xMidYMid meet">

<g transform="translate(0.000000,200.000000) scale(0.100000,-0.100000)"
fill="#000000" stroke="none">
<path d="M1875 1491 c-53 -24 -99 -74 -126 -136 -19 -42 -23 -77 -30 -240 -5
-104 -10 -207 -12 -227 -3 -44 16 -51 51 -18 20 19 22 31 22 138 1 141 15 312
31 361 17 54 56 101 83 101 54 0 73 -77 37 -149 -11 -21 -43 -65 -70 -97 -28
-32 -51 -68 -51 -78 0 -11 17 -40 38 -65 21 -25 42 -51 45 -58 13 -22 -18 -76
-86 -151 -37 -39 -67 -79 -67 -88 0 -8 7 -29 16 -47 l17 -31 26 34 c14 19 61
74 104 123 65 74 77 94 77 124 0 27 -7 41 -32 61 -76 65 -108 95 -108 102 0 4
28 28 63 54 86 64 127 126 127 194 0 46 -4 58 -29 83 -35 34 -68 37 -126 10z"/>
<path d="M875 1280 c-132 -39 -303 -122 -355 -170 -26 -24 -30 -35 -30 -79 l0
-52 65 50 c84 64 184 123 295 172 110 49 191 54 237 15 24 -21 27 -30 27 -79
-1 -41 -8 -67 -27 -100 -29 -50 -143 -160 -160 -154 -7 2 -10 51 -8 150 2 131
1 147 -14 147 -9 0 -25 -5 -36 -10 -17 -10 -19 -23 -20 -123 -1 -62 -4 -139
-8 -172 l-6 -60 -52 -28 c-29 -16 -53 -32 -53 -37 0 -5 25 -20 55 -34 l55 -25
0 -85 c0 -77 2 -85 18 -79 35 12 52 36 52 73 0 20 3 39 6 42 3 4 56 -18 117
-48 62 -30 120 -54 130 -54 16 0 46 45 36 54 -2 2 -68 36 -146 75 l-143 71 0
45 c0 40 3 46 31 61 47 24 160 142 191 200 40 74 44 119 16 173 -30 58 -74 81
-153 80 -33 0 -87 -9 -120 -19z"/>
<path d="M2375 1130 c-30 -48 -45 -51 -45 -9 0 48 -28 33 -64 -36 -37 -72 -59
-78 -67 -18 -6 49 -15 61 -31 45 -7 -7 -22 -12 -35 -12 -48 0 -123 -92 -123
-153 0 -57 52 -50 105 15 l26 33 16 -22 c21 -31 46 -29 76 7 29 33 37 37 37
16 0 -46 48 -18 81 47 11 20 23 37 28 37 4 0 15 -18 24 -40 20 -51 51 -54 91
-10 l27 31 -28 -3 c-25 -3 -30 2 -43 42 -28 84 -38 88 -75 30z m-255 -124
c-22 -36 -50 -48 -50 -22 0 8 12 29 26 46 37 43 55 25 24 -24z"/>
<path d="M1541 966 c-34 -36 -21 -68 26 -64 46 4 84 48 63 73 -19 23 -63 18
-89 -9z"/>
<path d="M1418 908 c-19 -35 -41 -63 -49 -63 -8 0 -18 17 -23 43 -6 23 -13 42
-18 42 -4 0 -21 -29 -37 -65 -16 -36 -34 -65 -40 -65 -14 0 -31 33 -31 60 0
26 -26 37 -51 22 -10 -7 -30 -12 -43 -12 -30 0 -81 -56 -91 -99 -17 -79 34
-96 96 -31 l37 39 16 -24 c9 -14 23 -25 31 -25 16 0 47 27 63 56 11 18 12 18
27 -3 21 -30 41 -29 61 2 9 14 21 25 26 25 5 0 8 -61 7 -152 l-2 -153 29 0 29
0 6 225 c4 124 3 229 -1 233 -4 5 -23 -20 -42 -55z m-258 -78 c0 -17 -27 -65
-43 -79 -35 -28 -27 37 8 72 19 19 35 22 35 7z"/>
</g>
</svg>
