<?xml version="1.0" standalone="no"?>
<!DOCTYPE svg PUBLIC "-//W3C//DTD SVG 20010904//EN"
 "http://www.w3.org/TR/2001/REC-SVG-20010904/DTD/svg10.dtd">
<svg version="1.0" xmlns="http://www.w3.org/2000/svg"
 width="280.000000pt" height="150.000000pt" viewBox="0 0 280.000000 150.000000"
 preserveAspectRatio="xMidYMid meet">

<g transform="translate(0.000000,150.000000) scale(0.100000,-0.100000)"
fill="#000000" stroke="none">
<path d="M2145 1313 c-14 -100 -5 -93 -116 -93 -111 0 -158 -14 -184 -53 -15
-23 -55 -223 -55 -275 0 -13 11 -34 25 -47 23 -24 30 -25 137 -25 123 0 168
15 188 62 5 13 26 115 45 228 19 113 37 215 40 228 5 20 2 22 -34 22 -39 0
-39 0 -46 -47z m-33 -168 c2 -3 -4 -53 -14 -112 -24 -135 -31 -143 -133 -143
-99 0 -102 4 -85 122 18 127 30 138 143 138 46 0 86 -2 89 -5z"/>
<path d="M290 1202 c-65 -35 -91 -132 -49 -186 19 -24 26 -26 95 -26 90 0 114
-10 114 -48 0 -46 -15 -52 -127 -52 -95 0 -103 -2 -103 -19 0 -11 -3 -26 -6
-35 -5 -14 8 -16 107 -16 97 0 119 3 147 20 60 37 84 149 40 190 -18 16 -35
20 -99 20 -95 0 -109 5 -109 39 0 50 11 56 127 61 l108 5 3 33 3 32 -108 0
c-86 0 -116 -4 -143 -18z"/>
<path d="M663 1200 c-18 -10 -38 -29 -46 -42 -13 -20 -87 -416 -87 -462 0 -12
9 -16 34 -16 l34 0 12 70 12 70 114 0 114 0 36 33 c33 30 36 38 57 159 32 191
21 208 -148 208 -82 0 -106 -4 -132 -20z m211 -72 c16 -26 -17 -208 -40 -225
-11 -8 -50 -13 -106 -13 -102 0 -96 -11 -73 125 21 121 38 137 137 133 54 -2
73 -7 82 -20z"/>
<path d="M1075 1202 c-50 -31 -57 -47 -80 -179 -35 -195 -27 -203 181 -203
151 0 154 1 154 51 0 18 -8 19 -124 19 -102 0 -128 3 -141 16 -10 10 -14 25
-11 38 3 12 6 27 6 34 0 9 36 12 144 12 165 0 151 -10 162 110 5 56 4 68 -14
90 -19 24 -26 25 -134 28 -97 2 -117 0 -143 -16z m196 -62 c14 -8 19 -21 19
-50 l0 -40 -108 0 -109 0 5 30 c7 47 44 70 114 70 33 0 68 -5 79 -10z"/>
<path d="M1482 1203 c-45 -22 -58 -51 -82 -192 -18 -109 -19 -124 -6 -150 9
-16 23 -31 31 -35 9 -3 81 -6 160 -6 140 0 143 0 149 23 12 47 13 47 -123 47
-146 0 -158 5 -147 65 l7 35 143 0 144 0 11 63 c19 107 14 130 -30 152 -40 21
-213 20 -257 -2z m206 -65 c7 -7 12 -29 12 -50 l0 -38 -110 0 c-60 0 -110 4
-110 9 0 25 24 70 43 79 31 15 150 15 165 0z"/>
<path d="M2302 1203 c-48 -23 -58 -44 -81 -173 -26 -145 -26 -156 4 -185 23
-24 30 -25 137 -25 120 0 163 13 187 58 15 28 53 261 46 283 -3 10 -18 28 -32
39 -22 17 -40 20 -127 20 -73 0 -110 -5 -134 -17z m203 -67 c18 -13 18 -17 2
-112 -21 -125 -30 -134 -132 -134 -98 0 -102 6 -85 113 16 104 24 125 52 137
36 14 142 12 163 -4z"/>
<path d="M740 750 c-33 -20 9 -38 226 -94 126 -33 233 -61 238 -64 5 -3 -172
-96 -395 -207 -330 -164 -405 -206 -407 -223 -3 -16 2 -22 17 -22 19 0 395
120 1296 412 187 60 348 117 358 126 20 18 22 45 5 60 -16 12 -1319 24 -1338
12z"/>
</g>
</svg>
